<?xml version="1.0" encoding="UTF-8"?>
<svg version="1.1" xmlns="http://www.w3.org/2000/svg" width="512" height="512">
<path d="M0 0 C0.72711182 0.00182281 1.45422363 0.00364563 2.20336914 0.00552368 C13.00717946 0.05110875 23.25163686 0.55153069 33.75 3.3125 C34.75909424 3.56193359 34.75909424 3.56193359 35.78857422 3.81640625 C64.97380477 11.09754485 89.66411602 27.09249084 109.75 49.3125 C110.16507813 50.00432373 110.58015625 50.69614746 111.0078125 51.40893555 C113.67098201 55.80446298 113.67098201 55.80446298 118.15625 57.90380859 C121.0562478 57.99391269 123.8577913 57.85315295 126.75 57.625 C128.81861691 57.54393192 130.88768211 57.4735781 132.95703125 57.4140625 C134.45290771 57.36813965 134.45290771 57.36813965 135.97900391 57.32128906 C152.87076935 57.26771166 171.43702181 66.5576329 183.53125 77.97265625 C199.36141666 94.66679327 207.18678736 114.44911467 206.96484375 137.53125 C205.66912559 160.33588957 195.39035347 178.8215702 178.8125 194.0625 C168.90255837 202.37280538 153.73634934 210.8685144 140.36694336 210.19189453 C139.17210327 210.05630127 139.17210327 210.05630127 137.953125 209.91796875 C132.65383043 209.37394881 127.73193094 209.17887941 122.75 211.3125 C118.31019001 215.55203595 116.08743567 221.45366646 113.48046875 226.91015625 C109.10608273 236.00913021 103.46157183 244.21639353 97.8125 252.5625 C96.75390871 254.13775036 95.69547674 255.7131078 94.63720703 257.28857422 C87.29663581 268.18163496 79.75331905 278.89407638 71.75 289.3125 C70.85768423 290.48668389 69.96574325 291.66115271 69.07421875 292.8359375 C66.65488328 296.01209787 64.20536434 299.16408927 61.75 302.3125 C60.85934315 303.46221491 59.96871916 304.61195528 59.078125 305.76171875 C53.66279783 312.72798641 48.08965717 319.52930975 42.359375 326.23828125 C39.98730965 329.01983088 37.67507288 331.84598661 35.375 334.6875 C30.16559382 341.08043853 24.77199264 347.30803154 19.33251953 353.50537109 C17.83791469 355.21210745 16.35426056 356.92785995 14.87109375 358.64453125 C14.00613281 359.62808594 13.14117187 360.61164063 12.25 361.625 C11.4971875 362.48738281 10.744375 363.34976562 9.96875 364.23828125 C6.38348505 367.58999901 3.7483104 368.3125 -1.125 368.3125 C-9.32919473 366.93235509 -13.93113122 359.41169244 -18.796875 353.3046875 C-21.34486447 350.19678952 -24.01045787 347.24993231 -26.75 344.3125 C-30.92563272 339.81516763 -34.89324632 335.19810537 -38.7421875 330.41796875 C-40.66948117 328.03136677 -42.61165834 325.66145166 -44.5703125 323.30078125 C-51.14953156 315.37013561 -57.64020443 307.4026779 -63.84521484 299.17382812 C-65.4604491 297.03365677 -67.08419222 294.90003506 -68.70703125 292.765625 C-90.71911165 263.7169195 -111.75240108 233.41497307 -127.25 200.3125 C-127.58193359 199.6205957 -127.91386719 198.92869141 -128.25585938 198.21582031 C-144.35469997 164.55323525 -147.86441191 130.30230391 -135.36572266 94.80078125 C-120.92803245 56.58027774 -93.17911257 28.09578578 -56.35327148 10.82739258 C-50.91805376 8.41968344 -45.32979721 6.65301623 -39.625 5 C-38.790896 4.75749512 -37.95679199 4.51499023 -37.09741211 4.26513672 C-24.80896005 0.88452825 -12.680811 -0.06609871 0 0 Z " fill="#F14764" transform="translate(224.25,14.6875)"/>
<path d="M0 0 C1.05316406 0.35191406 2.10632813 0.70382813 3.19140625 1.06640625 C17.65968603 6.24218993 32.32363493 14.85785879 41 28 C40.83287053 31.28473692 39.05120775 34.1279695 37.625 37.0625 C30.44312696 52.60938701 27.40762682 73.98966409 33.02734375 90.53515625 C33.50880859 91.75525391 33.50880859 91.75525391 34 93 C34.35191406 93.96808594 34.70382812 94.93617188 35.06640625 95.93359375 C37.53210175 102.32161674 40.6364198 107.94384502 44.44921875 113.625 C45.80639039 115.70348957 46.94578905 117.75655601 48 120 C35.04614009 139.57657285 17.54606497 154.47872108 -5.8046875 159.6171875 C-25.1514068 163.13915884 -43.50020128 161.2554491 -61 152 C-61.96292969 151.50886719 -62.92585938 151.01773438 -63.91796875 150.51171875 C-84.04446412 139.60227301 -96.96915973 121.29167824 -103.4375 99.625 C-108.78528985 77.99434672 -105.35552049 55.00037877 -94 36 C-81.55070357 17.32605536 -63.42098162 2.66544378 -41 -2 C-27.50757675 -3.9725272 -12.9842795 -4.5344819 0 0 Z " fill="#FEFEFE" transform="translate(248,79)"/>
<path d="M0 0 C14.97161103 12.49826932 25.60348189 31.43905839 27.46875 50.96484375 C28.76077032 73.67307959 23.3073708 94.19543734 8.16015625 111.48046875 C-3.9344413 124.39226883 -18.580245 133.65133576 -36.40234375 136.23046875 C-37.39105469 136.37613281 -38.37976563 136.52179688 -39.3984375 136.671875 C-60.1014957 138.94562128 -81.22411301 132.73653935 -97.50390625 119.7578125 C-111.13505389 108.03532611 -119.93947481 93.66455388 -124.40234375 76.23046875 C-124.57435303 75.61864746 -124.7463623 75.00682617 -124.92358398 74.37646484 C-128.79523513 57.02214891 -124.46615168 36.05213078 -115.51171875 21.06640625 C-113.55400575 18.05511488 -111.51970077 15.13124787 -109.40234375 12.23046875 C-108.9434375 11.58464844 -108.48453125 10.93882813 -108.01171875 10.2734375 C-81.78306451 -23.46040395 -32.4023301 -23.86708217 0 0 Z " fill="#FEE34D" transform="translate(403.40234375,88.76953125)"/>
<path d="M0 0 C2.05997928 0.00564043 4.11995033 0.00846078 6.17993546 0.0110817 C25.76360065 0.04731114 45.1356055 0.31289824 64.52988052 3.31805801 C66.26600601 3.57546768 66.26600601 3.57546768 68.03720474 3.83807755 C113.28979523 10.73976062 113.28979523 10.73976062 126.71738052 24.13055801 C129.1154792 28.34790395 129.43757874 31.57687704 128.52988052 36.31805801 C123.77083468 45.61982943 110.21996512 49.54573704 100.84482193 52.60663223 C74.86577677 60.59048982 46.29232576 63.41756812 19.22519302 63.52118301 C17.99490875 63.52815201 16.76462448 63.535121 15.49705887 63.54230118 C11.54965021 63.5595963 7.60231877 63.56647627 3.65488052 63.56805801 C2.64775198 63.56894173 2.64775198 63.56894173 1.6202774 63.56984329 C-18.56440675 63.58235226 -38.46825691 63.29624731 -58.47011948 60.31805801 C-59.50088608 60.17352188 -60.53165268 60.02898575 -61.59365463 59.88006973 C-81.75191344 56.99758237 -105.6419896 53.22263044 -121.47011948 39.31805801 C-123.47567794 36.30972032 -123.80675241 35.44097153 -123.90761948 32.00555801 C-123.94758041 31.2669252 -123.98754135 30.52829239 -124.02871323 29.76727676 C-122.87252288 24.69782678 -119.37888273 21.91224937 -115.22011948 19.19305801 C-113.98087954 18.54698575 -112.7299646 17.92296732 -111.47011948 17.31805801 C-110.77354233 16.98120987 -110.07696518 16.64436172 -109.35927963 16.29730606 C-95.76722653 10.0053517 -81.28341731 7.08233025 -66.59511948 4.56805801 C-65.43931381 4.36930069 -64.28350815 4.17054337 -63.09267807 3.96576309 C-42.13681197 0.60562319 -21.194109 -0.05893082 0 0 Z " fill="#D0DFFC" transform="translate(253.47011947631836,433.681941986084)"/>
<path d="M0 0 C5.34042396 4.59468908 10.30374769 9.55055888 15.1875 14.625 C14.15556617 17.7208015 13.02980981 18.82807716 10.73046875 21.01953125 C7.58210914 24.29541936 4.92435787 28.00477591 2.1875 31.625 C1.5275 30.965 0.8675 30.305 0.1875 29.625 C-0.27785156 29.16609375 -0.74320313 28.7071875 -1.22265625 28.234375 C-2.31924477 27.12431488 -3.38837366 25.98668221 -4.43359375 24.828125 C-15.71163034 12.70120394 -30.96298402 5.69038711 -46.8125 1.625 C-47.53566406 1.43808594 -48.25882812 1.25117187 -49.00390625 1.05859375 C-70.94167588 -2.32818293 -93.61939888 2.65220474 -111.625 15.65625 C-128.61869997 29.06239108 -140.69302495 46.94023589 -143.8125 68.625 C-145.55663085 91.38533007 -142.2622167 113.7076445 -127.34765625 131.84375 C-126.84105469 132.4315625 -126.33445313 133.019375 -125.8125 133.625 C-125.25433594 134.3365625 -124.69617188 135.048125 -124.12109375 135.78125 C-112.08460933 150.45621221 -92.49041434 160.21793297 -73.8125 162.625 C-49.42332966 163.97825682 -28.28875497 158.50126982 -9.265625 142.828125 C-2.62900573 136.86784909 2.75268466 130.35016221 7.1875 122.625 C10.86543249 124.19025964 13.39962508 126.47896108 16.3125 129.1875 C19.50257509 132.26219186 19.50257509 132.26219186 23.1875 134.625 C22.75927749 139.5358922 20.27820611 142.38556455 17.125 145.9375 C16.62403809 146.51145508 16.12307617 147.08541016 15.60693359 147.67675781 C14.14594167 149.33750752 12.66957421 150.98306865 11.1875 152.625 C10.17236328 153.76775391 10.17236328 153.76775391 9.13671875 154.93359375 C-6.41362624 171.48289023 -30.67176585 182.44813351 -53.1796875 183.83203125 C-56.68500699 183.92763087 -60.18093531 183.95426178 -63.6875 183.9375 C-64.9240332 183.93186035 -66.16056641 183.9262207 -67.43457031 183.92041016 C-75.97268867 183.80655355 -83.65394185 183.30726569 -91.8125 180.625 C-92.42915527 180.43164062 -93.04581055 180.23828125 -93.68115234 180.0390625 C-120.01700464 171.65094144 -142.00293783 153.39883411 -154.75390625 128.80957031 C-167.05169274 104.25258871 -169.83487654 76.43527274 -161.7109375 50.046875 C-160.53175932 46.83646731 -159.22903614 43.73733226 -157.8125 40.625 C-157.16667969 39.15353516 -157.16667969 39.15353516 -156.5078125 37.65234375 C-144.69078932 12.31584491 -124.2176764 -4.71519537 -98.8125 -15.375 C-97.58466797 -15.89707031 -97.58466797 -15.89707031 -96.33203125 -16.4296875 C-64.76613615 -28.27453015 -26.09984138 -20.78456469 0 0 Z " fill="#CF1C4D" transform="translate(287.8125,76.375)"/>
<path d="M0 0 C3.77593781 1.16710805 5.04954218 1.97349035 7.4375 5.0625 C7.89160156 8.08691406 7.89160156 8.08691406 7.828125 11.578125 C7.81523437 12.82851562 7.80234375 14.07890625 7.7890625 15.3671875 C7.75554687 16.66914062 7.72203125 17.97109375 7.6875 19.3125 C7.66945313 20.62992188 7.65140625 21.94734375 7.6328125 23.3046875 C7.58566271 26.55802308 7.51986044 29.80989625 7.4375 33.0625 C8.26475586 33.04155273 9.09201172 33.02060547 9.94433594 32.99902344 C13.6919337 32.91588381 17.43933749 32.86384469 21.1875 32.8125 C22.48945313 32.77898437 23.79140625 32.74546875 25.1328125 32.7109375 C26.38320313 32.69804687 27.63359375 32.68515625 28.921875 32.671875 C30.65002441 32.6404541 30.65002441 32.6404541 32.41308594 32.60839844 C36.06940707 33.15737788 37.20348722 34.18029188 39.4375 37.0625 C40.00390625 39.0625 40.00390625 39.0625 40 41.0625 C40.02191406 41.7225 40.04382813 42.3825 40.06640625 43.0625 C39.07635959 46.21097138 37.14093651 47.26728525 34.4375 49.0625 C31.39135742 49.51660156 31.39135742 49.51660156 28.04296875 49.453125 C26.84091797 49.44023437 25.63886719 49.42734375 24.40039062 49.4140625 C23.15451172 49.38054687 21.90863281 49.34703125 20.625 49.3125 C19.35978516 49.29445312 18.09457031 49.27640625 16.79101562 49.2578125 C13.67240665 49.21073916 10.55534027 49.14499094 7.4375 49.0625 C7.46368408 49.85422607 7.48986816 50.64595215 7.5168457 51.46166992 C7.62094122 55.05757717 7.685869 58.65316731 7.75 62.25 C7.79189453 63.49587891 7.83378906 64.74175781 7.87695312 66.02539062 C8.01512221 76.33280406 8.01512221 76.33280406 5.140625 79.38671875 C1.56888256 81.6009926 -0.43690305 81.81260854 -4.5625 81.0625 C-7.26775138 78.42026663 -8.45480837 76.78490241 -9.01660156 73.01635742 C-8.98518066 71.35890503 -8.98518066 71.35890503 -8.953125 69.66796875 C-8.93378906 67.86489258 -8.93378906 67.86489258 -8.9140625 66.02539062 C-8.88054687 64.77951172 -8.84703125 63.53363281 -8.8125 62.25 C-8.79445313 60.98478516 -8.77640625 59.71957031 -8.7578125 58.41601562 C-8.71073916 55.29740665 -8.64499094 52.18034027 -8.5625 49.0625 C-9.35422607 49.08344727 -10.14595215 49.10439453 -10.96166992 49.12597656 C-14.55765018 49.20925467 -18.15342736 49.26119891 -21.75 49.3125 C-22.99587891 49.34601563 -24.24175781 49.37953125 -25.52539062 49.4140625 C-26.72744141 49.42695313 -27.92949219 49.43984375 -29.16796875 49.453125 C-30.27293701 49.47407227 -31.37790527 49.49501953 -32.51635742 49.51660156 C-36.25382382 48.95944139 -37.89325661 47.68301234 -40.5625 45.0625 C-41.19140625 43.0625 -41.19140625 43.0625 -41.125 41.0625 C-41.12628906 40.4025 -41.12757813 39.7425 -41.12890625 39.0625 C-40.29736605 36.12630287 -38.93387378 34.96155178 -36.5625 33.0625 C-33.53808594 32.60839844 -33.53808594 32.60839844 -30.046875 32.671875 C-28.79648437 32.68476563 -27.54609375 32.69765625 -26.2578125 32.7109375 C-24.30488281 32.76121094 -24.30488281 32.76121094 -22.3125 32.8125 C-20.99507813 32.83054688 -19.67765625 32.84859375 -18.3203125 32.8671875 C-15.06697692 32.91433729 -11.81510375 32.98013956 -8.5625 33.0625 C-8.58868408 32.24048096 -8.61486816 31.41846191 -8.6418457 30.5715332 C-8.7459144 26.83955062 -8.81086128 23.1078734 -8.875 19.375 C-8.91689453 18.08142578 -8.95878906 16.78785156 -9.00195312 15.45507812 C-9.01806641 14.20791016 -9.03417969 12.96074219 -9.05078125 11.67578125 C-9.07696533 10.52891846 -9.10314941 9.38205566 -9.13012695 8.20043945 C-8.1651597 2.86593445 -5.42159173 0.09511564 0 0 Z " fill="#FF884C" transform="translate(354.5625,107.9375)"/>
</svg>
