<?xml version="1.0" encoding="UTF-8"?>
<svg version="1.1" xmlns="http://www.w3.org/2000/svg" width="64" height="64">
<path d="M0 0 C2.64736238 1.41411904 3.91820814 2.71002895 6 5 C6.65625 7.671875 6.65625 7.671875 7 10 C7.75925781 9.96519531 8.51851562 9.93039062 9.30078125 9.89453125 C10.79158203 9.85392578 10.79158203 9.85392578 12.3125 9.8125 C13.29863281 9.77769531 14.28476562 9.74289062 15.30078125 9.70703125 C18 10 18 10 19.81640625 11.26953125 C21.47206889 13.69018652 21.56304868 16.13966476 21.8046875 19.0078125 C21.95857151 21.15093877 21.95857151 21.15093877 22.75 23.75 C23 26 23 26 21.75 27.9375 C20.88375 28.9584375 20.88375 28.9584375 20 30 C19.505 31.010625 19.01 32.02125 18.5 33.0625 C17.19100524 35.62594807 16.15203272 37.15540052 14 39 C18.14093698 39.20970559 18.14093698 39.20970559 22 38 C25.05920574 37.57928408 27.9467746 37.51485883 31 38 C33.75569447 40.18159145 35.43588747 41.87177494 37 45 C37.12370115 49.57694247 36.87838473 52.99613174 33.8125 56.5 C28.06488352 59.56539545 21.67690928 59.19227271 15.3125 59.1875 C13.98653809 59.1884668 13.98653809 59.1884668 12.63378906 59.18945312 C6.25992053 59.13799437 0.19471023 58.59130171 -6 57 C-6.0270043 55.54176788 -6.04639787 54.08339325 -6.0625 52.625 C-6.07410156 51.81289063 -6.08570312 51.00078125 -6.09765625 50.1640625 C-6 48 -6 48 -5 46 C-6.07121094 45.79503906 -7.14242188 45.59007812 -8.24609375 45.37890625 C-9.64326851 45.10697291 -11.04040181 44.83482648 -12.4375 44.5625 C-13.14455078 44.42779297 -13.85160156 44.29308594 -14.58007812 44.15429688 C-19.88671875 43.11328125 -19.88671875 43.11328125 -21 42 C-21.03173414 39.2164625 -20.93159925 36.44608937 -20.83984375 33.6640625 C-20.78932357 30.77026374 -20.78932357 30.77026374 -23 28 C-23.5106378 22.58723934 -22.41924256 19.74543732 -20 15 C-19.69880575 13.31765373 -19.43025364 11.6292676 -19.1875 9.9375 C-18.54301721 6.31091887 -17.89850036 4.34041656 -15.0625 1.9375 C-9.84761626 -1.36171216 -5.86950154 -1.45987602 0 0 Z " fill="#14A2D5" transform="translate(25,3)"/>
<path d="M0 0 C2.64736238 1.41411904 3.91820814 2.71002895 6 5 C6.65625 7.671875 6.65625 7.671875 7 10 C7.75925781 9.96519531 8.51851562 9.93039062 9.30078125 9.89453125 C10.79158203 9.85392578 10.79158203 9.85392578 12.3125 9.8125 C13.29863281 9.77769531 14.28476562 9.74289062 15.30078125 9.70703125 C18 10 18 10 19.84375 11.25 C21.89969134 14.361695 21.17887839 17.36280599 21 21 C20.01 21 19.02 21 18 21 C18 20.34 18 19.68 18 19 C17.29875 19.33 16.5975 19.66 15.875 20 C11.84318715 21.40236969 8.60102951 21.67411769 4.625 20 C4.08875 19.67 3.5525 19.34 3 19 C2.67 19.99 2.34 20.98 2 22 C1.01 21.67 0.02 21.34 -1 21 C-0.25 14.375 -0.25 14.375 2 11 C-1.31054842 10.70789279 -2.92842612 10.96345164 -5.9375 12.5 C-9.26815924 14.1313433 -11.34572929 14.26101934 -15 14 C-13.07608351 19.31411494 -13.07608351 19.31411494 -9 23 C-9 24.32 -9 25.64 -9 27 C-7.741875 26.608125 -6.48375 26.21625 -5.1875 25.8125 C-1.26951565 24.86059535 -1.26951565 24.86059535 0.8125 25.9375 C2.48392169 28.84049557 3.68847078 31.92075749 5 35 C5.66 35.33 6.32 35.66 7 36 C7 36.99 7 37.98 7 39 C6.45730469 39.26554687 5.91460938 39.53109375 5.35546875 39.8046875 C4.64003906 40.15789063 3.92460937 40.51109375 3.1875 40.875 C2.47980469 41.22304688 1.77210937 41.57109375 1.04296875 41.9296875 C-1.21246418 43.0656486 -1.21246418 43.0656486 -4 45 C-6.99609375 45.046875 -6.99609375 45.046875 -10.4375 44.75 C-11.57058594 44.66234375 -12.70367187 44.5746875 -13.87109375 44.484375 C-16.71191893 44.04459682 -18.56003128 43.46278223 -21 42 C-20.97679687 41.24074219 -20.95359375 40.48148438 -20.9296875 39.69921875 C-20.91164063 38.70535156 -20.89359375 37.71148437 -20.875 36.6875 C-20.85179687 35.70136719 -20.82859375 34.71523438 -20.8046875 33.69921875 C-20.79317361 30.77593473 -20.79317361 30.77593473 -23 28 C-23.5106378 22.58723934 -22.41924256 19.74543732 -20 15 C-19.69880575 13.31765373 -19.43025364 11.6292676 -19.1875 9.9375 C-18.54301721 6.31091887 -17.89850036 4.34041656 -15.0625 1.9375 C-9.84761626 -1.36171216 -5.86950154 -1.45987602 0 0 Z " fill="#13A2D6" transform="translate(25,3)"/>
<path d="M0 0 C-0.66 3.3 -1.32 6.6 -2 10 C-1.34 10 -0.68 10 0 10 C0.33 9.34 0.66 8.68 1 8 C1.66386719 8.08378906 2.32773437 8.16757812 3.01171875 8.25390625 C7.65867368 8.78983244 11.40450042 9.00526553 16 8 C16.66 8.66 17.32 9.32 18 10 C18.99 10.33 19.98 10.66 21 11 C20.41712333 14.69373527 19.40083644 17.49881745 17.5625 20.75 C17.13066406 21.52859375 16.69882812 22.3071875 16.25390625 23.109375 C15 25 15 25 13 26 C12.27840576 27.64363134 11.60648579 29.31050386 11 31 C9.33388095 31.042721 7.66617115 31.04063832 6 31 C5 30 5 30 4.9375 27.4375 C4.958125 26.633125 4.97875 25.82875 5 25 C4.401875 24.814375 3.80375 24.62875 3.1875 24.4375 C-0.09981799 22.27726247 -0.64854687 19.64892345 -2 16 C-3.32 16 -4.64 16 -6 16 C-7.66666667 16 -9.33333333 16 -11 16 C-11.061875 15.443125 -11.12375 14.88625 -11.1875 14.3125 C-11.90537975 11.72234371 -11.90537975 11.72234371 -14.5625 9.5 C-17 7 -17 7 -17 3 C-16.38511719 2.87882812 -15.77023437 2.75765625 -15.13671875 2.6328125 C-14.32847656 2.46523438 -13.52023438 2.29765625 -12.6875 2.125 C-11.88699219 1.96257813 -11.08648437 1.80015625 -10.26171875 1.6328125 C-2.58099352 -0.5161987 -2.58099352 -0.5161987 0 0 Z " fill="#EAE2B4" transform="translate(27,14)"/>
<path d="M0 0 C0 0.66 0 1.32 0 2 C1.258125 1.608125 2.51625 1.21625 3.8125 0.8125 C7.73048435 -0.13940465 7.73048435 -0.13940465 9.8125 0.9375 C11.48392169 3.84049557 12.68847078 6.92075749 14 10 C14.66 10.33 15.32 10.66 16 11 C16 11.99 16 12.98 16 14 C15.45730469 14.26554687 14.91460938 14.53109375 14.35546875 14.8046875 C13.64003906 15.15789063 12.92460937 15.51109375 12.1875 15.875 C11.47980469 16.22304688 10.77210937 16.57109375 10.04296875 16.9296875 C7.78753582 18.0656486 7.78753582 18.0656486 5 20 C2.00390625 20.046875 2.00390625 20.046875 -1.4375 19.75 C-2.57058594 19.66234375 -3.70367187 19.5746875 -4.87109375 19.484375 C-7.71191893 19.04459682 -9.56003128 18.46278223 -12 17 C-12.49303103 12.97357995 -12.86992855 9.4579358 -10.734375 5.87890625 C-7.2532224 1.81474508 -5.5740199 0 0 0 Z " fill="#6D3155" transform="translate(16,28)"/>
<path d="M0 0 C2.75569447 2.18159145 4.43588747 3.87177494 6 7 C6.12370115 11.57694247 5.87838473 14.99613174 2.8125 18.5 C-0.3223847 20.17193851 -2.44142059 20.92586293 -6 21 C-9.2053598 19.50913497 -11.74503484 17.7212894 -14 15 C-14.81855773 10.71460952 -14.43434382 6.94765925 -12.625 3 C-9.3665138 -1.01044455 -4.83005412 -0.76746974 0 0 Z " fill="#FEC44D" transform="translate(56,41)"/>
<path d="M0 0 C1.84271484 0.00193359 1.84271484 0.00193359 3.72265625 0.00390625 C6.9375 0.4375 6.9375 0.4375 8.859375 1.703125 C10.80366588 4.83089728 10.11441399 7.84024886 9.9375 11.4375 C8.9475 11.4375 7.9575 11.4375 6.9375 11.4375 C6.9375 10.7775 6.9375 10.1175 6.9375 9.4375 C6.23625 9.7675 5.535 10.0975 4.8125 10.4375 C0.78068715 11.83986969 -2.46147049 12.11161769 -6.4375 10.4375 C-7.241875 9.9425 -7.241875 9.9425 -8.0625 9.4375 C-8.3925 10.4275 -8.7225 11.4175 -9.0625 12.4375 C-10.0525 12.1075 -11.0425 11.7775 -12.0625 11.4375 C-11.57861553 5.14700188 -11.57861553 5.14700188 -9.45703125 2.23046875 C-6.20711871 -0.20298942 -4.02158753 -0.06343198 0 0 Z " fill="#703657" transform="translate(36.0625,12.5625)"/>
<path d="M0 0 C0.66 0.33 1.32 0.66 2 1 C2 2.32 2 3.64 2 5 C3.32 5 4.64 5 6 5 C6 5.66 6 6.32 6 7 C4.35 7 2.7 7 1 7 C1 8.65 1 10.3 1 12 C0.34 12 -0.32 12 -1 12 C-1 10.35 -1 8.7 -1 7 C-2.32 7 -3.64 7 -5 7 C-5 6.34 -5 5.68 -5 5 C-3.68 5 -2.36 5 -1 5 C-0.67 3.35 -0.34 1.7 0 0 Z " fill="#FFF3DD" transform="translate(51,45)"/>
</svg>
