<?xml version="1.0" encoding="UTF-8"?>
<svg version="1.1" xmlns="http://www.w3.org/2000/svg" width="64" height="64">
<path d="M0 0 C11.22711864 -0.48813559 11.22711864 -0.48813559 14.375 1.5 C16.65694633 5.01068666 16.43532089 8.21570672 16.25 12.25 C16.23195313 12.99507812 16.21390625 13.74015625 16.1953125 14.5078125 C16.14835649 16.33909701 16.07661652 18.16971649 16 20 C13.69 20 11.38 20 9 20 C9.33 20.99 9.66 21.98 10 23 C15.61 23.33 21.22 23.66 27 24 C27 23.34 27 22.68 27 22 C27.66 22 28.32 22 29 22 C29 21.34 29 20.68 29 20 C26.69 20 24.38 20 22 20 C22 13.4 22 6.8 22 0 C33.22711864 -0.48813559 33.22711864 -0.48813559 36.375 1.5 C38.65694633 5.01068666 38.43532089 8.21570672 38.25 12.25 C38.23195312 12.99507812 38.21390625 13.74015625 38.1953125 14.5078125 C38.14835649 16.33909701 38.07661652 18.16971649 38 20 C35.69 20 33.38 20 31 20 C31 20.66 31 21.32 31 22 C31.66 22 32.32 22 33 22 C33 22.66 33 23.32 33 24 C41.415 23.505 41.415 23.505 50 23 C50.495 21.515 50.495 21.515 51 20 C48.69 20 46.38 20 44 20 C44 13.4 44 6.8 44 0 C55.22711864 -0.48813559 55.22711864 -0.48813559 58.375 1.5 C60.65694633 5.01068666 60.43532089 8.21570672 60.25 12.25 C60.23195312 12.99507812 60.21390625 13.74015625 60.1953125 14.5078125 C60.14835649 16.33909701 60.07661652 18.16971649 60 20 C57.69 20 55.38 20 53 20 C53 21.98 53 23.96 53 26 C46.4 26 39.8 26 33 26 C33 26.66 33 27.32 33 28 C32.34 28 31.68 28 31 28 C31 31.3 31 34.6 31 38 C35.95 37.67 40.9 37.34 46 37 C41.71 36.67 37.42 36.34 33 36 C33 35.34 33 34.68 33 34 C38.28 34 43.56 34 49 34 C49.495 35.98 49.495 35.98 50 38 C52.64 38 55.28 38 58 38 C57.45040253 44.05244219 56.10267589 49.24936498 54 54.9375 C53.72671875 55.70384766 53.4534375 56.47019531 53.171875 57.25976562 C51.15260922 62.84739078 51.15260922 62.84739078 50 64 C47.12735944 64.10106874 44.27926372 64.13969672 41.40625 64.1328125 C40.54439087 64.13376923 39.68253174 64.13472595 38.79455566 64.13571167 C36.96866788 64.1363935 35.14277769 64.13453904 33.31689453 64.13037109 C30.51198922 64.12502286 27.70724405 64.13031599 24.90234375 64.13671875 C23.13281214 64.13605797 21.36328064 64.13477681 19.59375 64.1328125 C18.74897095 64.13483673 17.90419189 64.13686096 17.03381348 64.13894653 C11.11495031 64.11495031 11.11495031 64.11495031 10 63 C9.8992188 60.63601532 9.86026785 58.30188689 9.8671875 55.9375 C9.86623077 55.23101318 9.86527405 54.52452637 9.86428833 53.79663086 C9.86360667 52.30029207 9.86545995 50.80395033 9.86962891 49.30761719 C9.87497743 47.00969843 9.86968349 44.71197514 9.86328125 42.4140625 C9.86394203 40.96354123 9.8652232 39.51302009 9.8671875 38.0625 C9.86516327 37.3708374 9.86313904 36.6791748 9.86105347 35.96655273 C9.88504776 31.11495224 9.88504776 31.11495224 11 30 C13.49238569 29.87346802 15.94470441 29.81480175 18.4375 29.8125 C19.13166016 29.80025391 19.82582031 29.78800781 20.54101562 29.77539062 C22.36220901 29.77010158 24.1828692 29.87830793 26 30 C26.66 30.66 27.32 31.32 28 32 C28.33 30.68 28.66 29.36 29 28 C28.34 28 27.68 28 27 28 C27 27.34 27 26.68 27 26 C20.4 26 13.8 26 7 26 C7 24.02 7 22.04 7 20 C4.69 20 2.38 20 0 20 C0 13.4 0 6.8 0 0 Z M2 2 C2 7.28 2 12.56 2 18 C5.96 18 9.92 18 14 18 C14 14.37 14 10.74 14 7 C12.35 7 10.7 7 9 7 C9 5.35 9 3.7 9 2 C6.69 2 4.38 2 2 2 Z M24 2 C24 7.28 24 12.56 24 18 C27.96 18 31.92 18 36 18 C36 14.37 36 10.74 36 7 C34.35 7 32.7 7 31 7 C31 5.35 31 3.7 31 2 C28.69 2 26.38 2 24 2 Z M46 2 C46 7.28 46 12.56 46 18 C49.96 18 53.92 18 58 18 C58 14.37 58 10.74 58 7 C56.35 7 54.7 7 53 7 C53 5.35 53 3.7 53 2 C50.69 2 48.38 2 46 2 Z M12 34 C11.72285104 36.13252093 11.72285104 36.13252093 11.8046875 38.5703125 C11.81113281 39.46621094 11.81757813 40.36210938 11.82421875 41.28515625 C11.84097656 42.22230469 11.85773437 43.15945312 11.875 44.125 C11.88402344 45.06988281 11.89304687 46.01476563 11.90234375 46.98828125 C11.92595478 49.32577292 11.95888484 51.66276123 12 54 C14.04650391 50.93024413 14.99704565 48.30915848 16.125 44.8125 C16.65480469 43.18248047 16.65480469 43.18248047 17.1953125 41.51953125 C17.59363281 40.27236328 17.59363281 40.27236328 18 39 C23.445 38.505 23.445 38.505 29 38 C29 37.34 29 36.68 29 36 C27.36368108 34.95107762 25.69514137 33.95093297 24 33 C23.67 32.67 23.34 32.34 23 32 C20.93227266 31.80058132 20.93227266 31.80058132 18.5625 31.8125 C17.75941406 31.79832031 16.95632812 31.78414062 16.12890625 31.76953125 C13.78369367 31.79837644 13.78369367 31.79837644 12 34 Z M19.10351562 42.28125 C17.75219851 45.5981094 17.75219851 45.5981094 16.61328125 48.98828125 C16.39736328 49.69404297 16.18144531 50.39980469 15.95898438 51.12695312 C15.74564453 51.84818359 15.53230469 52.56941406 15.3125 53.3125 C15.08755859 54.05306641 14.86261719 54.79363281 14.63085938 55.55664062 C14.08122049 57.36927951 13.5397733 59.18439889 13 61 C15.64132579 63.64132579 24.29452717 62.32138758 28.00976562 62.35009766 C29.58315822 62.3666631 31.15647537 62.39396155 32.72949219 62.43212891 C34.9945387 62.48682869 37.25782 62.50875774 39.5234375 62.5234375 C40.22665131 62.54610687 40.92986511 62.56877625 41.65438843 62.59213257 C43.88636178 62.63792832 43.88636178 62.63792832 47 62 C50.01635517 58.30855769 51.24316741 53.81131239 52.6875 49.3125 C52.91244141 48.63638672 53.13738281 47.96027344 53.36914062 47.26367188 C54.58625361 43.70631129 54.58625361 43.70631129 55 40 C50.21290532 39.87641546 45.42673819 39.78567229 40.63842773 39.7253418 C39.0096825 39.70019432 37.38105015 39.66607122 35.75268555 39.62280273 C33.41166366 39.5621545 31.07213269 39.53379524 28.73046875 39.51171875 C28.00224411 39.48591232 27.27401947 39.4601059 26.52372742 39.43351746 C22.95025571 39.43153424 21.4453828 39.46425632 19.10351562 42.28125 Z " fill="#000000" transform="translate(2,0)"/>
<path d="M0 0 C2.97 0 5.94 0 9 0 C9 0.66 9 1.32 9 2 C6.03 2 3.06 2 0 2 C0 1.34 0 0.68 0 0 Z " fill="#000000" transform="translate(39,57)"/>
<path d="M0 0 C2.97 0 5.94 0 9 0 C9 0.66 9 1.32 9 2 C6.03 2 3.06 2 0 2 C0 1.34 0 0.68 0 0 Z " fill="#000000" transform="translate(41,53)"/>
<path d="M0 0 C2.31 0 4.62 0 7 0 C7 0.66 7 1.32 7 2 C4.69 2 2.38 2 0 2 C0 1.34 0 0.68 0 0 Z " fill="#000000" transform="translate(50,13)"/>
<path d="M0 0 C2.31 0 4.62 0 7 0 C7 0.66 7 1.32 7 2 C4.69 2 2.38 2 0 2 C0 1.34 0 0.68 0 0 Z " fill="#000000" transform="translate(28,13)"/>
<path d="M0 0 C2.31 0 4.62 0 7 0 C7 0.66 7 1.32 7 2 C4.69 2 2.38 2 0 2 C0 1.34 0 0.68 0 0 Z " fill="#000000" transform="translate(6,13)"/>
<path d="M0 0 C2.31 0 4.62 0 7 0 C7 0.66 7 1.32 7 2 C4.69 2 2.38 2 0 2 C0 1.34 0 0.68 0 0 Z " fill="#000000" transform="translate(50,9)"/>
<path d="M0 0 C2.31 0 4.62 0 7 0 C7 0.66 7 1.32 7 2 C4.69 2 2.38 2 0 2 C0 1.34 0 0.68 0 0 Z " fill="#000000" transform="translate(28,9)"/>
<path d="M0 0 C2.31 0 4.62 0 7 0 C7 0.66 7 1.32 7 2 C4.69 2 2.38 2 0 2 C0 1.34 0 0.68 0 0 Z " fill="#000000" transform="translate(6,9)"/>
</svg>
