<?xml version="1.0" encoding="UTF-8"?>
<svg version="1.1" xmlns="http://www.w3.org/2000/svg" width="64" height="64">
<path d="M0 0 C1.32 0 2.64 0 4 0 C4 9.24 4 18.48 4 28 C7.96 28 11.92 28 16 28 C15.93039063 26.24623047 15.93039063 26.24623047 15.859375 24.45703125 C15.82184406 22.9088798 15.78544531 21.36070061 15.75 19.8125 C15.71648438 19.04357422 15.68296875 18.27464844 15.6484375 17.48242188 C15.57933961 13.45746992 15.68244997 11.50191276 17.890625 8.01171875 C20.40044413 5.61809495 21.36704794 5.07032801 24.8125 4.6875 C28.7307645 5.07164358 30.21293267 6.29256317 33 9 C34.65497356 12.30994713 34.10084335 15.99123 34.0625 19.625 C34.05798828 20.42679688 34.05347656 21.22859375 34.04882812 22.0546875 C34.03703168 24.03649006 34.01909605 26.01825433 34 28 C37.96 28 41.92 28 46 28 C46 18.76 46 9.52 46 0 C47.32 0 48.64 0 50 0 C50 10.56 50 21.12 50 32 C43.4 32 36.8 32 30 32 C28.85345518 29.70691037 28.80270883 28.20090344 28.68359375 25.6484375 C28.64169922 24.79765625 28.59980469 23.946875 28.55664062 23.0703125 C28.51732422 22.18085937 28.47800781 21.29140625 28.4375 20.375 C28.39431641 19.4778125 28.35113281 18.580625 28.30664062 17.65625 C28.20043139 15.43765717 28.09838806 13.2189512 28 11 C24.95086772 9.98888907 24.95086772 9.98888907 22 11 C21.97494385 11.56509277 21.9498877 12.13018555 21.92407227 12.71240234 C21.80820044 15.26683742 21.68543463 17.8208955 21.5625 20.375 C21.52318359 21.26445313 21.48386719 22.15390625 21.44335938 23.0703125 C21.40146484 23.92109375 21.35957031 24.771875 21.31640625 25.6484375 C21.27974854 26.43395996 21.24309082 27.21948242 21.20532227 28.02880859 C21 30 21 30 20 32 C13.4 32 6.8 32 0 32 C0 21.44 0 10.88 0 0 Z " fill="#000000" transform="translate(7,29)"/>
<path d="M0 0 C2.83682669 0.83641863 4.55906689 1.90055047 6.90625 3.68457031 C7.69733154 4.2777002 8.48841309 4.87083008 9.3034668 5.48193359 C10.12758057 6.11341309 10.95169434 6.74489258 11.80078125 7.39550781 C13.49775958 8.67800036 15.19566799 9.95926321 16.89453125 11.23925781 C18.11269531 12.15964844 18.11269531 12.15964844 19.35546875 13.09863281 C22.83252972 15.67334232 26.43370573 18.03380774 30.09375 20.34082031 C30.59519531 20.81261719 31.09664062 21.28441406 31.61328125 21.77050781 C31.61328125 23.09050781 31.61328125 24.41050781 31.61328125 25.77050781 C26.87233538 25.27425927 23.76388962 23.05042484 20.05078125 20.27050781 C19.44669434 19.82852051 18.84260742 19.3865332 18.22021484 18.93115234 C16.34386816 17.5539227 14.47759287 16.1639744 12.61328125 14.77050781 C12.01306152 14.32416992 11.4128418 13.87783203 10.79443359 13.41796875 C7.38865794 10.88462247 3.99560667 8.33512818 0.61328125 5.77050781 C-3.24092724 7.49401136 -6.54808293 9.92929015 -9.94921875 12.39550781 C-10.5632959 12.83556152 -11.17737305 13.27561523 -11.81005859 13.72900391 C-14.76983864 15.85474078 -17.7084209 18.0025935 -20.609375 20.20800781 C-21.56714844 20.92988281 -22.52492188 21.65175781 -23.51171875 22.39550781 C-24.35992187 23.04777344 -25.208125 23.70003906 -26.08203125 24.37207031 C-28.38671875 25.77050781 -28.38671875 25.77050781 -32.38671875 25.77050781 C-32.38671875 21.77050781 -32.38671875 21.77050781 -30.92480469 20.26586914 C-30.24708008 19.79947021 -29.56935547 19.33307129 -28.87109375 18.85253906 C-28.11981201 18.32418457 -27.36853027 17.79583008 -26.59448242 17.25146484 C-25.78342041 16.70087402 -24.9723584 16.1502832 -24.13671875 15.58300781 C-22.48078132 14.43208646 -20.8258359 13.27973654 -19.171875 12.12597656 C-18.35605957 11.56056152 -17.54024414 10.99514648 -16.69970703 10.41259766 C-14.64747049 8.95562668 -12.66243434 7.45274382 -10.6953125 5.88378906 C-9.66535156 5.06265625 -8.63539062 4.24152344 -7.57421875 3.39550781 C-6.68089844 2.66589844 -5.78757812 1.93628906 -4.8671875 1.18457031 C-2.38671875 -0.22949219 -2.38671875 -0.22949219 0 0 Z " fill="#000000" transform="translate(32.38671875,3.2294921875)"/>
</svg>
