<?xml version="1.0" encoding="UTF-8"?>
<svg version="1.1" xmlns="http://www.w3.org/2000/svg" width="64" height="64">
<path d="M0 0 C3.85247583 2.03527025 6.90224752 4.13571911 9 8 C9.81029534 12.05147668 10.0353038 15.88357734 10 20 C10.92683594 20.42410156 11.85367188 20.84820313 12.80859375 21.28515625 C14.01889861 21.87623537 15.22849831 22.46875991 16.4375 23.0625 C17.04916016 23.33771484 17.66082031 23.61292969 18.29101562 23.89648438 C20.05859375 24.78515625 20.05859375 24.78515625 23 27 C23.8515625 30.57421875 23.8515625 30.57421875 24 34 C24.309375 34.9075 24.61875 35.815 24.9375 36.75 C27.19944427 43.66888836 28.32316275 50.72883815 28 58 C23.94819535 57.40544171 21.08194898 55.99616202 17.5 54.0625 C13.48806809 52.30418416 11.78304204 51.76402684 7.5390625 53.04296875 C4.13028613 54.6946382 4.13028613 54.6946382 1.0078125 56.609375 C-2.64525928 58.29832767 -4.18271183 58.14166589 -8 57 C-9.86852127 56.04851187 -11.72258198 55.06818537 -13.5625 54.0625 C-17.58506881 52.2825133 -19.27855376 51.79590666 -23.5625 53.0078125 C-25.84072623 54.10115768 -28.08604055 55.26688599 -30.28515625 56.51171875 C-33 58 -33 58 -36 58 C-36.04241723 55.66705225 -36.04092937 53.33297433 -36 51 C-35.505 50.505 -35.505 50.505 -35 50 C-34.83698495 48.58720294 -34.7211203 47.16891872 -34.625 45.75 C-34.4187349 43.83310965 -34.21019279 41.91646364 -34 40 C-33.92136719 38.90816406 -33.84273437 37.81632812 -33.76171875 36.69140625 C-32.65666556 28.37948444 -32.65666556 28.37948444 -29.48828125 25.74121094 C-25.5505106 23.28330746 -21.35171762 21.58087496 -17 20 C-17.226875 18.824375 -17.45375 17.64875 -17.6875 16.4375 C-18.24316886 11.88745788 -17.31602831 9.01444907 -15 5 C-10.2461344 0.59397823 -6.50190047 -0.88387101 0 0 Z M-6 10 C-6.33 11.98 -6.66 13.96 -7 16 C-3.95086772 17.01111093 -3.95086772 17.01111093 -1 16 C-1 14.35 -1 12.7 -1 11 C-2.65 10.67 -4.3 10.34 -6 10 Z " fill="#0D0D06" transform="translate(36,3)"/>
<path d="M0 0 C0.33 0.66 0.66 1.32 1 2 C1.61875 2.0825 2.2375 2.165 2.875 2.25 C5 3 5 3 6.75 5.3125 C8.25396048 9.74918343 8.187187 13.45185666 8.0078125 18.09765625 C8.00029468 20.89052711 8.35388515 23.29128774 9 26 C-3.59375 13.8125 -3.59375 13.8125 -6 9 C-6 9.66 -6 10.32 -6 11 C-6 15.33333333 -6 19.66666667 -6 24 C-10.455 25.485 -10.455 25.485 -15 27 C-17.69616881 24.77552672 -18.88817707 23.57453849 -19.56640625 20.08984375 C-19.56511719 19.04957031 -19.56382813 18.00929688 -19.5625 16.9375 C-19.58441406 15.89464844 -19.60632812 14.85179687 -19.62890625 13.77734375 C-19 11 -19 11 -16.46484375 9.12890625 C-15.24474609 8.57009766 -15.24474609 8.57009766 -14 8 C-15.65 8.33 -17.3 8.66 -19 9 C-17.62090338 5.59155912 -16.39436506 4.33262465 -13.0625 2.8125 C-12.37285156 2.48894531 -11.68320312 2.16539063 -10.97265625 1.83203125 C-7.125469 0.20935623 -4.15140117 -0.09225336 0 0 Z " fill="#191B0E" transform="translate(52,29)"/>
<path d="M0 0 C4.101939 0.01760489 4.95892934 0.14333151 8.3125 2.8125 C8.951875 3.658125 9.59125 4.50375 10.25 5.375 C10.58 5.705 10.91 6.035 11.25 6.375 C12.13335466 14.32519191 10.02127873 19.03882939 5.25 25.375 C3.94357097 26.73470539 2.61707204 28.07628156 1.25 29.375 C-2.56270344 27.88526819 -4.16914866 25.78836174 -6.4375 22.4375 C-7.03949219 21.56222656 -7.64148438 20.68695312 -8.26171875 19.78515625 C-10.8641986 15.57064163 -11.63399056 11.251206 -10.75 6.375 C-8.3125 3.4375 -8.3125 3.4375 -5.75 1.375 C-4.10843264 -0.26656736 -2.25784199 0.08684008 0 0 Z M-1.75 7.375 C-2.08 9.355 -2.41 11.335 -2.75 13.375 C0.29913228 14.38611093 0.29913228 14.38611093 3.25 13.375 C3.25 11.725 3.25 10.075 3.25 8.375 C1.6 8.045 -0.05 7.715 -1.75 7.375 Z " fill="#F34546" transform="translate(31.75,5.625)"/>
<path d="M0 0 C0.82757813 1.04220703 0.82757813 1.04220703 1.671875 2.10546875 C4.16399329 5.20389099 6.69981093 8.26191045 9.25 11.3125 C9.93835937 12.13717773 9.93835937 12.13717773 10.640625 12.97851562 C11.75996299 14.31938926 12.8799173 15.65974838 14 17 C13.89171875 16.02160156 13.89171875 16.02160156 13.78125 15.0234375 C13.28243834 10.3262944 12.87548754 5.73147344 13 1 C13.66 1 14.32 1 15 1 C15.50812114 3.51943396 16.00664534 6.04016873 16.5 8.5625 C16.64308594 9.26697266 16.78617188 9.97144531 16.93359375 10.69726562 C17.80874925 15.21890238 18.14523405 19.39487028 18 24 C13.94819535 23.40544171 11.08194898 21.99616202 7.5 20.0625 C3.48806809 18.30418416 1.78304204 17.76402684 -2.4609375 19.04296875 C-5.86971387 20.6946382 -5.86971387 20.6946382 -8.9921875 22.609375 C-12.64525928 24.29832767 -14.18271183 24.14166589 -18 23 C-19.86852127 22.04851187 -21.72258198 21.06818537 -23.5625 20.0625 C-27.58506881 18.2825133 -29.27855376 17.79590666 -33.5625 19.0078125 C-35.84072623 20.10115768 -38.08604055 21.26688599 -40.28515625 22.51171875 C-43 24 -43 24 -46 24 C-46 21.69 -46 19.38 -46 17 C-45.34 17 -44.68 17 -44 17 C-44 18.32 -44 19.64 -44 21 C-43.15695313 20.566875 -42.31390625 20.13375 -41.4453125 19.6875 C-40.34960938 19.130625 -39.25390625 18.57375 -38.125 18 C-37.03445312 17.443125 -35.94390625 16.88625 -34.8203125 16.3125 C-32 15 -32 15 -30 15 C-30 13.02 -30 11.04 -30 9 C-29.67 9 -29.34 9 -29 9 C-29.04125 9.9075 -29.0825 10.815 -29.125 11.75 C-28.35624663 15.13339655 -28.35624663 15.13339655 -25.70703125 16.2890625 C-23.15931756 17.28802499 -20.61458648 18.19332178 -18 19 C-19.06541016 17.42798828 -19.06541016 17.42798828 -20.15234375 15.82421875 C-21.08091199 14.44543561 -22.00928738 13.06652257 -22.9375 11.6875 C-23.64036133 10.65206055 -23.64036133 10.65206055 -24.35742188 9.59570312 C-24.80537109 8.92861328 -25.25332031 8.26152344 -25.71484375 7.57421875 C-26.12855225 6.96151123 -26.54226074 6.34880371 -26.96850586 5.7175293 C-28 4 -28 4 -29 1 C-23.83950696 2.67716024 -21.91125393 7.63254229 -19.35546875 12.03320312 C-17.32481699 15.68431596 -17.32481699 15.68431596 -13.86132812 17.69311523 C-13.24708984 17.79438721 -12.63285156 17.89565918 -12 18 C-12.495 19.485 -12.495 19.485 -13 21 C-12.01 21 -11.02 21 -10 21 C-10 20.34 -10 19.68 -10 19 C-3.375 16 -3.375 16 0 16 C-0.14069196 13.87465341 -0.28770921 11.74972471 -0.4375 9.625 C-0.51871094 8.44164062 -0.59992187 7.25828125 -0.68359375 6.0390625 C-0.81084936 3.08481099 -0.81084936 3.08481099 -2 1 C-1.34 0.67 -0.68 0.34 0 0 Z " fill="#030604" transform="translate(46,37)"/>
<path d="M0 0 C1.2065625 0.495 1.2065625 0.495 2.4375 1 C2.4375 1.66 2.4375 2.32 2.4375 3 C-0.2025 2.67 -2.8425 2.34 -5.5625 2 C-3.64887621 5.96393499 -1.85377088 9.58736625 0.6875 13.1875 C2.54016181 16.16499219 2.84064179 17.57329482 2.4375 21 C-1.35006068 16.4141642 -4.5328745 11.53640172 -7.7578125 6.546875 C-9.31264735 3.92858167 -9.31264735 3.92858167 -11.5625 3 C-7.6025 8.94 -3.6425 14.88 0.4375 21 C-0.2225 21.33 -0.8825 21.66 -1.5625 22 C-3.20370231 21.09116216 -4.8257244 20.14755764 -6.4375 19.1875 C-10.24565966 17.33624141 -11.77634761 16.76350763 -15.88671875 18 C-18.86518098 19.55210577 -21.69893338 21.24876584 -24.5625 23 C-25.2225 23 -25.8825 23 -26.5625 23 C-26.5625 21.02 -26.5625 19.04 -26.5625 17 C-25.9025 17 -25.2425 17 -24.5625 17 C-24.624375 16.05125 -24.68625 15.1025 -24.75 14.125 C-24.688125 13.09375 -24.62625 12.0625 -24.5625 11 C-23.5725 10.34 -22.5825 9.68 -21.5625 9 C-22.2225 8.67 -22.8825 8.34 -23.5625 8 C-23.5625 7.01 -23.5625 6.02 -23.5625 5 C-15.27380511 -0.20561025 -9.5709767 -2.68658995 0 0 Z " fill="#222921" transform="translate(28.5625,35)"/>
<path d="M0 0 C3.77378946 3.15945164 5.39561218 4.79056089 6.375 9.6875 C6.62850511 12.57745829 6.71232677 15.35519874 6.6875 18.25 C7.61433594 18.68570312 8.54117188 19.12140625 9.49609375 19.5703125 C10.70630035 20.17072508 11.91590517 20.77235169 13.125 21.375 C13.73666016 21.65859375 14.34832031 21.9421875 14.97851562 22.234375 C16.74609375 23.1328125 16.74609375 23.1328125 19.6875 25.25 C20.59765625 28.4921875 20.59765625 28.4921875 20.6875 31.25 C19.6975 30.92 18.7075 30.59 17.6875 30.25 C17.6875 29.26 17.6875 28.27 17.6875 27.25 C16.0375 27.25 14.3875 27.25 12.6875 27.25 C12.6875 26.59 12.6875 25.93 12.6875 25.25 C10.7075 24.92 8.7275 24.59 6.6875 24.25 C6.3575 25.24 6.0275 26.23 5.6875 27.25 C5.6875 26.59 5.6875 25.93 5.6875 25.25 C4.0375 25.58 2.3875 25.91 0.6875 26.25 C2.0075 25.26 3.3275 24.27 4.6875 23.25 C3.0375 23.25 1.3875 23.25 -0.3125 23.25 C0.1825 22.280625 0.6775 21.31125 1.1875 20.3125 C3.02284296 15.96238425 3.57609924 11.91079014 2.6875 7.25 C1.00116812 3.98022394 1.00116812 3.98022394 -2.3125 2.25 C-5.79038844 1.56012377 -8.83649611 1.54107815 -12.3125 2.25 C-16.55537543 5.2553701 -18.03874932 8.27079279 -19.3125 13.25 C-19.9725 12.92 -20.6325 12.59 -21.3125 12.25 C-19.97937209 6.58420636 -18.40466496 2.56912372 -13.5625 -1.0625 C-8.42060046 -2.63363597 -4.66008497 -2.46193168 0 0 Z " fill="#090403" transform="translate(39.3125,4.75)"/>
<path d="M0 0 C0.99 0.66 1.98 1.32 3 2 C3.29296875 5.0390625 3.29296875 5.0390625 3.1875 8.625 C3.16042969 9.81351563 3.13335937 11.00203125 3.10546875 12.2265625 C3.07066406 13.14179687 3.03585938 14.05703125 3 15 C-1.455 16.485 -1.455 16.485 -6 18 C-8.69616881 15.77552672 -9.88817707 14.57453849 -10.56640625 11.08984375 C-10.56511719 10.04957031 -10.56382813 9.00929688 -10.5625 7.9375 C-10.58441406 6.89464844 -10.60632812 5.85179687 -10.62890625 4.77734375 C-10 2 -10 2 -7.62890625 0.1171875 C-4.50236403 -1.2114768 -3.1792576 -1.08764076 0 0 Z " fill="#4ADC63" transform="translate(43,38)"/>
<path d="M0 0 C-3.53637896 3.04293074 -6.91036181 5.71461395 -11 8 C-10.34 8 -9.68 8 -9 8 C-7.66216607 8.31478446 -6.32796291 8.64587656 -5 9 C-6.98 9.99 -8.96 10.98 -11 12 C-11.08133791 13.91595968 -11.13934367 15.83291932 -11.1875 17.75 C-11.22230469 18.81734375 -11.25710937 19.8846875 -11.29296875 20.984375 C-10.97082786 24.30027855 -10.22851086 25.59016673 -8 28 C-8.33 28.66 -8.66 29.32 -9 30 C-9.99 30 -10.98 30 -12 30 C-12 29.01 -12 28.02 -12 27 C-12.66 26.67 -13.32 26.34 -14 26 C-14.9296875 24.36328125 -14.9296875 24.36328125 -15.875 22.3125 C-17.16631156 19.60365846 -18.51527392 17.13580134 -20.25 14.6875 C-22 12 -22 12 -22 9 C-19.36 9.33 -16.72 9.66 -14 10 C-14.33 9.01 -14.66 8.02 -15 7 C-14.236875 6.5875 -13.47375 6.175 -12.6875 5.75 C-9.94825089 4.19074729 -9.94825089 4.19074729 -8.4375 1.875 C-7 0 -7 0 -5 -0.8125 C-3 -1 -3 -1 0 0 Z " fill="#121708" transform="translate(45,28)"/>
<path d="M0 0 C0 3.96 0 7.92 0 12 C-1.95585325 13.00484204 -3.91476237 14.00373805 -5.875 15 C-6.96554688 15.556875 -8.05609375 16.11375 -9.1796875 16.6875 C-12 18 -12 18 -14 18 C-14 16.02 -14 14.04 -14 12 C-13.34 12 -12.68 12 -12 12 C-12 10.02 -12 8.04 -12 6 C-10.18889433 4.99747693 -8.37607722 3.99804504 -6.5625 3 C-5.55316406 2.443125 -4.54382813 1.88625 -3.50390625 1.3125 C-1 0 -1 0 0 0 Z " fill="#A0E3F1" transform="translate(16,40)"/>
<path d="M0 0 C0.55429687 0.69480469 1.10859375 1.38960937 1.6796875 2.10546875 C4.14852475 5.18528087 6.62408603 8.25871335 9.125 11.3125 C9.56714844 11.86228516 10.00929688 12.41207031 10.46484375 12.97851562 C11.59849471 14.35704889 12.79482122 15.68354165 14 17 C14.66 17 15.32 17 16 17 C16 17.66 16 18.32 16 19 C13.21111637 20.10627925 12.1159261 20.0418121 9.23828125 19.00390625 C8.27277344 18.52824219 7.30726562 18.05257812 6.3125 17.5625 C3.29321339 15.82823054 3.29321339 15.82823054 0 15 C-0.06058594 14.15695313 -0.12117188 13.31390625 -0.18359375 12.4453125 C-0.26738281 11.34960938 -0.35117187 10.25390625 -0.4375 9.125 C-0.51871094 8.03445312 -0.59992187 6.94390625 -0.68359375 5.8203125 C-0.83001703 3.05271029 -0.83001703 3.05271029 -2 1 C-1.34 0.67 -0.68 0.34 0 0 Z " fill="#0A170A" transform="translate(46,37)"/>
<path d="M0 0 C0.66 0 1.32 0 2 0 C2.50812114 2.51943396 3.00664534 5.04016873 3.5 7.5625 C3.64308594 8.26697266 3.78617188 8.97144531 3.93359375 9.69726562 C4.80874925 14.21890238 5.14523405 18.39487028 5 23 C0.98989502 22.34770936 -2.45645051 21.09438637 -6.1875 19.5 C-7.23292969 19.0565625 -8.27835938 18.613125 -9.35546875 18.15625 C-10.91940229 17.47246222 -12.47331631 16.76334184 -14 16 C-13.34 13.69 -12.68 11.38 -12 9 C-11.67 9 -11.34 9 -11 9 C-11.020625 9.7425 -11.04125 10.485 -11.0625 11.25 C-9.7585862 14.62483572 -8.89310067 14.84633182 -5.6875 16.3125 C-2.39027215 17.69134074 -0.69656362 18 3 18 C2.505 17.2575 2.01 16.515 1.5 15.75 C-1.003491 10.88405974 -0.23217124 5.31414164 0 0 Z " fill="#010301" transform="translate(59,38)"/>
<path d="M0 0 C3.63 0.33 7.26 0.66 11 1 C11.33 1.99 11.66 2.98 12 4 C9.36 3.67 6.72 3.34 4 3 C5.91362379 6.96393499 7.70872912 10.58736625 10.25 14.1875 C12.10266181 17.16499219 12.40314179 18.57329482 12 22 C9.08926571 18.43369492 6.36133675 14.7912741 3.75 11 C3.04359375 9.989375 2.3371875 8.97875 1.609375 7.9375 C0 5 0 5 0 0 Z " fill="#E9AB20" transform="translate(19,34)"/>
<path d="M0 0 C3.16727335 5.1468192 3.35050464 9.158256 3 15 C-1.51346392 11.45370692 -5.65732731 7.70581935 -9 3 C-9 2.34 -9 1.68 -9 1 C-5.94152152 0.45627049 -3.11227195 0 0 0 Z " fill="#73D1DC" transform="translate(57,32)"/>
<path d="M0 0 C-1.75 3.875 -1.75 3.875 -4 5 C-4 7.31 -4 9.62 -4 12 C-4.66 12 -5.32 12 -6 12 C-6 12.99 -6 13.98 -6 15 C-5.01 15.33 -4.02 15.66 -3 16 C-3.99 16.66 -4.98 17.32 -6 18 C-6.73343428 21.06556598 -6.73343428 21.06556598 -7 24 C-7.99 24.33 -8.98 24.66 -10 25 C-9.62379998 19.25322039 -8.84257836 13.64356218 -7.6875 8 C-7.46449219 6.906875 -7.24148437 5.81375 -7.01171875 4.6875 C-6 2 -6 2 -4.01953125 0.625 C-2 0 -2 0 0 0 Z " fill="#040502" transform="translate(11,28)"/>
<path d="M0 0 C3.27217135 3.27217135 5.36071055 5.89037858 7.75 9.75 C8.36359375 10.73484375 8.9771875 11.7196875 9.609375 12.734375 C10.29773438 13.85585938 10.29773438 13.85585938 11 15 C10.01 15.495 10.01 15.495 9 16 C5.89253496 14.88378061 2.99044051 13.4097791 0 12 C0 8.04 0 4.08 0 0 Z " fill="#73D2DD" transform="translate(18,41)"/>
<path d="M0 0 C2.31 0 4.62 0 7 0 C7.05607422 1.22976562 7.05607422 1.22976562 7.11328125 2.484375 C7.21189453 4.10085937 7.21189453 4.10085937 7.3125 5.75 C7.37050781 6.81734375 7.42851563 7.8846875 7.48828125 8.984375 C8.03090154 12.1821068 8.85071145 13.62598691 11 16 C10.67 16.66 10.34 17.32 10 18 C9.01 18 8.02 18 7 18 C7 17.01 7 16.02 7 15 C6.34 14.67 5.68 14.34 5 14 C4.50091665 12.33638883 4.00938021 10.66974515 3.57421875 8.98828125 C2.67011176 5.85773392 1.33350209 2.97007285 0 0 Z " fill="#040A04" transform="translate(26,40)"/>
<path d="M0 0 C4.75 0.75 4.75 0.75 7 3 C7.36023622 5.80984248 7.38332602 7.38241919 5.875 9.8125 C3.16554166 11.52849028 1.13704316 11.333728 -2 11 C-4 9 -4 9 -4.125 5.375 C-4.08375 4.26125 -4.0425 3.1475 -4 2 C-3.01 2 -2.02 2 -1 2 C-1.33 3.98 -1.66 5.96 -2 8 C-0.02 8 1.96 8 4 8 C4 6.35 4 4.7 4 3 C2.68 2.67 1.36 2.34 0 2 C0 1.34 0 0.68 0 0 Z " fill="#100404" transform="translate(31,11)"/>
<path d="M0 0 C0 1.65 0 3.3 0 5 C-3.63 6.98 -7.26 8.96 -11 11 C-11 9.35 -11 7.7 -11 6 C-8.84765625 4.19921875 -8.84765625 4.19921875 -6.0625 2.6875 C-4.68771484 1.91986328 -4.68771484 1.91986328 -3.28515625 1.13671875 C-1 0 -1 0 0 0 Z " fill="#46CF5E" transform="translate(17,27)"/>
<path d="M0 0 C4.00379374 2.97424678 6.99702939 6.05323863 10 10 C10 10.66 10 11.32 10 12 C8.51965236 11.52449439 7.04074979 11.04448784 5.5625 10.5625 C4.73878906 10.29566406 3.91507813 10.02882813 3.06640625 9.75390625 C1 9 1 9 0 8 C-0.14115161 5.32941149 -0.04247107 2.67567762 0 0 Z " fill="#3EB75F" transform="translate(48,44)"/>
<path d="M0 0 C1.69682028 1.64208415 3.35312603 3.30810897 5 5 C5.78246094 5.79792969 6.56492187 6.59585938 7.37109375 7.41796875 C8.19738281 8.29066406 9.02367187 9.16335937 9.875 10.0625 C10.67679688 10.89910156 11.47859375 11.73570313 12.3046875 12.59765625 C12.86414062 13.39042969 13.42359375 14.18320312 14 15 C13.60595703 17.15014648 13.60595703 17.15014648 13 19 C11.00885071 16.78060433 9.03235473 14.55066638 7.0625 12.3125 C6.49853516 11.68666016 5.93457031 11.06082031 5.35351562 10.41601562 C0.27297405 4.60533633 0.27297405 4.60533633 0 0 Z " fill="#E2A51F" transform="translate(47,36)"/>
<path d="M0 0 C0 2.31 0 4.62 0 7 C-1.5778125 6.690625 -1.5778125 6.690625 -3.1875 6.375 C-6.99624887 6.00036896 -8.66835752 6.28369933 -12 8 C-10.61482883 4.5659298 -9.34555636 3.29977978 -6 1.75 C-5.29875 1.41484375 -4.5975 1.0796875 -3.875 0.734375 C-2 0 -2 0 0 0 Z " fill="#E2C24C" transform="translate(45,30)"/>
<path d="M0 0 C0.33 0 0.66 0 1 0 C1.76630311 7.9184655 -0.16474937 12.68661575 -5 19 C-5.66 19.33 -6.32 19.66 -7 20 C-6.38315469 17.12562805 -5.47142555 14.82328288 -4.0625 12.25 C-1.98907598 8.23886699 -0.94437845 4.40709945 0 0 Z " fill="#D7313B" transform="translate(42,12)"/>
<path d="M0 0 C4.63183838 1.50853452 6.35430274 5.18419506 8.75 9.125 C9.36681641 10.11306641 9.36681641 10.11306641 9.99609375 11.12109375 C11.00619115 12.74194771 12.00428938 14.37026852 13 16 C12.34 16.66 11.68 17.32 11 18 C9.34990683 15.56528902 7.70481602 13.12744835 6.0625 10.6875 C5.35963867 9.65206055 5.35963867 9.65206055 4.64257812 8.59570312 C4.19462891 7.92861328 3.74667969 7.26152344 3.28515625 6.57421875 C2.87144775 5.96151123 2.45773926 5.34880371 2.03149414 4.7175293 C1 3 1 3 0 0 Z " fill="#11110A" transform="translate(17,38)"/>
<path d="M0 0 C0.33 0.99 0.66 1.98 1 3 C-0.62170379 4.00533667 -2.24747237 5.00411907 -3.875 6 C-5.23238281 6.8353125 -5.23238281 6.8353125 -6.6171875 7.6875 C-9 9 -9 9 -11 9 C-11 8.01 -11 7.02 -11 6 C-7.37 4.02 -3.74 2.04 0 0 Z " fill="#E2C24C" transform="translate(16,34)"/>
<path d="M0 0 C0.66 0 1.32 0 2 0 C3.90322959 2.26232951 5.60340906 4.64196837 7.34375 7.03125 C7.8903125 7.6809375 8.436875 8.330625 9 9 C9.66 9 10.32 9 11 9 C11 9.66 11 10.32 11 11 C9.68 11.33 8.36 11.66 7 12 C6.5875 11.278125 6.175 10.55625 5.75 9.8125 C4.04339991 6.93781225 4.04339991 6.93781225 1.8125 4.3125 C0 2 0 2 0 0 Z " fill="#181C0A" transform="translate(51,45)"/>
<path d="M0 0 C1.98 0 3.96 0 6 0 C6.66 1.32 7.32 2.64 8 4 C5.36 4.33 2.72 4.66 0 5 C-0.33 4.34 -0.66 3.68 -1 3 C-0.67 2.01 -0.34 1.02 0 0 Z " fill="#715818" transform="translate(46,29)"/>
<path d="M0 0 C-5.625 4.875 -5.625 4.875 -9 6 C-9 3 -9 3 -7 0 C-4.02096037 -1.15317663 -3.13440869 -1.0448029 0 0 Z " fill="#20391B" transform="translate(45,28)"/>
<path d="M0 0 C3.25543229 0.34879632 4.01873107 1.02133261 6.25 3.5625 C6.8275 4.366875 7.405 5.17125 8 6 C5.36 5.67 2.72 5.34 0 5 C0 3.35 0 1.7 0 0 Z " fill="#3CB15C" transform="translate(19,27)"/>
<path d="M0 0 C1.32 0.66 2.64 1.32 4 2 C3.01 2.495 3.01 2.495 2 3 C1.34227572 6.02934491 1.34227572 6.02934491 1 9 C0.01 9.33 -0.98 9.66 -2 10 C-1.85950482 8.52031676 -1.71245174 7.04125484 -1.5625 5.5625 C-1.48128906 4.73878906 -1.40007812 3.91507813 -1.31640625 3.06640625 C-1 1 -1 1 0 0 Z " fill="#0C1112" transform="translate(3,43)"/>
<path d="M0 0 C0.66 0.33 1.32 0.66 2 1 C-0.83430453 4.2542015 -2.68607774 5.5206753 -7 6 C-6 3 -6 3 -3.0625 1.25 C-2.051875 0.8375 -1.04125 0.425 0 0 Z " fill="#0D1213" transform="translate(14,52)"/>
<path d="M0 0 C1.65 0 3.3 0 5 0 C5 2.64 5 5.28 5 8 C2.74754119 5.31158141 1.11786042 3.35358125 0 0 Z " fill="#40BE63" transform="translate(26,40)"/>
<path d="M0 0 C0 0.66 0 1.32 0 2 C-6.75 6 -6.75 6 -9 6 C-8 3 -8 3 -5.0625 1.3125 C-2 0 -2 0 0 0 Z " fill="#16200E" transform="translate(16,33)"/>
<path d="M0 0 C2.5 2.3125 2.5 2.3125 5 5 C5 5.99 5 6.98 5 8 C2.5 6.25 2.5 6.25 0 4 C0 2.68 0 1.36 0 0 Z " fill="#CE971D" transform="translate(47,36)"/>
<path d="M0 0 C4.875 1.75 4.875 1.75 6 4 C5.67 4.66 5.34 5.32 5 6 C4.01 6 3.02 6 2 6 C2 5.01 2 4.02 2 3 C1.34 2.67 0.68 2.34 0 2 C0 1.34 0 0.68 0 0 Z " fill="#50481C" transform="translate(31,52)"/>
</svg>
