<?xml version="1.0" encoding="UTF-8"?>
<svg version="1.1" xmlns="http://www.w3.org/2000/svg" width="25" height="24">
<path d="M0 0 C3.5 -0.3125 3.5 -0.3125 7 0 C9 2 9 2 9.125 5.375 C9.08375 6.57125 9.0425 7.7675 9 9 C9 10.32 9 11.64 9 13 C9.66 12.34 10.32 11.68 11 11 C14.5 10.75 14.5 10.75 18 11 C20 13 20 13 20.25 16.5 C20 20 20 20 18 22 C13.94738713 22.34490322 12.45245824 22.30163882 9 20 C8.34 20.66 7.68 21.32 7 22 C3.90228335 22.32954432 1.82668977 22.45334601 -0.9375 20.9375 C-2.61679323 17.87525941 -1.66417675 15.32088376 -1 12 C-0.94037152 9.74564727 -0.94037152 9.74564727 -1.625 6.5625 C-2 3 -2 3 0 0 Z M1 3 C1 4.65 1 6.3 1 8 C2.65 8 4.3 8 6 8 C6 6.35 6 4.7 6 3 C4.35 3 2.7 3 1 3 Z M1 14 C1 15.65 1 17.3 1 19 C2.65 19 4.3 19 6 19 C6 17.35 6 15.7 6 14 C4.35 14 2.7 14 1 14 Z M12 14 C12 15.65 12 17.3 12 19 C13.65 19 15.3 19 17 19 C17 17.35 17 15.7 17 14 C15.35 14 13.7 14 12 14 Z " fill="#6B7280" transform="translate(3,1)"/>
<path d="M0 0 C0.66 0.33 1.32 0.66 2 1 C2 1.66 2 2.32 2 3 C2.99 3.33 3.98 3.66 5 4 C4.67 4.66 4.34 5.32 4 6 C3.34 6 2.68 6 2 6 C1.67 6.99 1.34 7.98 1 9 C0.34 8.67 -0.32 8.34 -1 8 C-1 7.34 -1 6.68 -1 6 C-1.99 5.67 -2.98 5.34 -4 5 C-3.67 4.34 -3.34 3.68 -3 3 C-2.34 3 -1.68 3 -1 3 C-0.67 2.01 -0.34 1.02 0 0 Z " fill="#6A7280" transform="translate(17,2)"/>
</svg>
