<?xml version="1.0" encoding="UTF-8"?>
<svg version="1.1" xmlns="http://www.w3.org/2000/svg" width="512" height="512">
<path d="M0 0 C1.36284486 -0.00461807 2.72568473 -0.01097703 4.08851433 -0.01890898 C7.8050819 -0.03550139 11.52123502 -0.02740247 15.23780346 -0.0149641 C19.25697223 -0.00587423 23.27607217 -0.01990276 27.29522705 -0.03088379 C35.15752406 -0.04863177 43.01966797 -0.04484567 50.88197088 -0.03323323 C57.2741709 -0.02418449 63.66632813 -0.02298112 70.05853271 -0.02732849 C70.96973558 -0.02794142 71.88093845 -0.02855436 72.81975353 -0.02918586 C74.67108362 -0.03046482 76.5224137 -0.03176167 78.37374377 -0.03307623 C95.71684953 -0.04447112 113.05987058 -0.03138545 130.40296245 -0.00987476 C145.27079991 0.00799523 160.13851244 0.00489081 175.00634766 -0.0135498 C192.28914254 -0.03497579 209.57186326 -0.04337259 226.85466957 -0.03110075 C228.69903182 -0.02982661 230.54339408 -0.02856912 232.38775635 -0.02732849 C233.74880188 -0.02640284 233.74880188 -0.02640284 235.13734329 -0.02545848 C241.51880611 -0.02201077 247.90022173 -0.02782144 254.28167725 -0.0372467 C262.06294662 -0.04848729 269.84405467 -0.04538345 277.62530565 -0.02412373 C281.59230708 -0.01364094 285.55903993 -0.00944385 289.52603912 -0.02272034 C293.16306093 -0.03470802 296.7995672 -0.02797806 300.43654275 -0.00681013 C302.36349767 -0.00028054 304.29048886 -0.01322298 306.21740532 -0.02703905 C318.13525656 0.07970222 327.52647663 3.2058225 336.22314453 11.50793457 C347.46077455 23.27963017 347.87283589 35.84956238 347.74462891 51.34411621 C347.72302528 54.46264918 347.74458462 57.57892125 347.77001953 60.6973877 C347.76737907 62.68502297 347.76225995 64.67265685 347.75439453 66.66027832 C347.76249146 67.58944565 347.77058838 68.51861298 347.77893066 69.47593689 C347.7600177 70.77362755 347.7600177 70.77362755 347.74072266 72.09753418 C347.73754028 72.85489365 347.73435791 73.61225311 347.7310791 74.39256287 C347.22314453 76.50793457 347.22314453 76.50793457 343.22314453 80.50793457 C323.42314453 80.50793457 303.62314453 80.50793457 283.22314453 80.50793457 C283.22314453 162.34793457 283.22314453 244.18793457 283.22314453 328.50793457 C280.58314453 328.50793457 277.94314453 328.50793457 275.22314453 328.50793457 C275.22314453 333.78793457 275.22314453 339.06793457 275.22314453 344.50793457 C277.86314453 344.50793457 280.50314453 344.50793457 283.22314453 344.50793457 C283.22314453 349.78793457 283.22314453 355.06793457 283.22314453 360.50793457 C280.58314453 360.50793457 277.94314453 360.50793457 275.22314453 360.50793457 C275.22314453 365.78793457 275.22314453 371.06793457 275.22314453 376.50793457 C277.86314453 376.50793457 280.50314453 376.50793457 283.22314453 376.50793457 C283.31622743 385.8359072 283.38710227 395.16371753 283.43039322 404.49205494 C283.45118104 408.82458327 283.47933545 413.15679155 283.52490234 417.48913574 C283.56867728 421.67778818 283.59234768 425.86613468 283.6026535 430.0549984 C283.60998857 431.64524838 283.62431078 433.23548348 283.64606476 434.82560158 C283.82490138 448.45184121 281.96033953 459.30798179 272.22314453 469.50793457 C262.38466905 478.900052 251.94708084 481.11284498 238.6630249 481.01586914 C237.3236547 481.02048753 235.98428958 481.0268467 234.64493489 481.03477812 C230.99309515 481.0513671 227.34167734 481.04327313 223.68983674 481.03083324 C219.74012131 481.02174158 215.79047584 481.03577302 211.84077454 481.04675293 C204.11349403 481.06450099 196.38636931 481.0607142 188.6590828 481.04910237 C182.37418241 481.04005105 176.08932552 481.03885139 169.80442047 481.04319763 C168.9082493 481.04381056 168.01207813 481.0444235 167.08875026 481.045055 C165.26786809 481.04633398 163.44698593 481.04763083 161.62610379 481.04894537 C144.56662763 481.06034097 127.50723755 481.04725484 110.44777551 481.0257439 C95.8336301 481.0078861 81.21961185 481.01096814 66.60546875 481.02941895 C49.61122746 481.05086484 32.61706163 481.05922957 15.62280869 481.04696989 C13.80758303 481.04569578 11.99235735 481.0444383 10.17713165 481.04319763 C9.28415136 481.04258053 8.39117107 481.04196343 7.47113077 481.04132763 C1.20125279 481.03788495 -5.06857705 481.0436799 -11.33844757 481.05311584 C-18.99041327 481.06437916 -26.64221501 481.0612058 -34.29416212 481.03999287 C-38.1928015 481.02953847 -42.09116836 481.02526349 -45.98980522 481.03858948 C-49.56905839 481.05063787 -53.14779026 481.04374992 -56.72699711 481.02267927 C-58.61321785 481.0161976 -60.49947571 481.0290375 -62.3856566 481.04290819 C-81.44406007 480.87081636 -98.65733757 473.73633322 -112.12841797 460.28137207 C-125.05386732 446.74587202 -132.8059877 430.9403774 -133.21435547 412.00793457 C-133.2368335 411.32481201 -133.25931152 410.64168945 -133.2824707 409.93786621 C-133.2674853 406.85125701 -133.03319198 404.87682663 -131.25616455 402.31951904 C-127.80961109 399.80118731 -124.71642245 399.97727974 -120.61181641 400.05383301 C-119.79193237 400.0532489 -118.97204834 400.05266479 -118.12731934 400.05206299 C-115.42152336 400.05484627 -112.71683361 400.08594908 -110.01123047 400.11730957 C-108.13365277 400.12477111 -106.25606728 400.13046445 -104.378479 400.13446045 C-99.43976289 400.14972366 -94.50151827 400.18901144 -89.56298828 400.23327637 C-83.63593286 400.28141344 -77.70871967 400.29975981 -71.78152466 400.3230896 C-62.77964046 400.36186201 -53.77879056 400.43851091 -44.77685547 400.50793457 C-44.77685547 384.66793457 -44.77685547 368.82793457 -44.77685547 352.50793457 C-42.13685547 352.50793457 -39.49685547 352.50793457 -36.77685547 352.50793457 C-36.77685547 347.22793457 -36.77685547 341.94793457 -36.77685547 336.50793457 C-38.73623047 336.59043457 -40.69560547 336.67293457 -42.71435547 336.75793457 C-69.39084582 336.67734094 -91.47294688 322.78042907 -109.80419922 304.48449707 C-128.28606458 284.61963498 -133.81973436 259.40522286 -133.15576172 233.21105957 C-131.98083498 206.85439582 -118.9270486 184.77389408 -100.02685547 166.88293457 C-82.35865894 151.42326261 -60.05010279 143.52800837 -36.77685547 144.50793457 C-36.77685547 139.22793457 -36.77685547 133.94793457 -36.77685547 128.50793457 C-39.41685547 128.50793457 -42.05685547 128.50793457 -44.77685547 128.50793457 C-44.8697767 116.05074752 -44.94073266 103.59364374 -44.98410416 91.13617992 C-45.0049265 85.35087477 -45.03314625 79.56580777 -45.07861328 73.78063965 C-45.12226199 68.19148244 -45.14603279 62.60255348 -45.15636444 57.01323891 C-45.16372173 54.88711266 -45.17808839 52.76099807 -45.1997757 50.63496971 C-45.34946915 35.34409704 -44.87756076 23.13619813 -33.77685547 11.50793457 C-23.86532072 2.04607247 -13.37441547 -0.09589508 0 0 Z " fill="#D0D2D3" transform="translate(148.77685546875,15.4920654296875)"/>
<path d="M0 0 C5.28 0 10.56 0 16 0 C16 15.84 16 31.68 16 48 C23.30471436 47.98428955 30.60942871 47.9685791 38.13549805 47.95239258 C61.50124854 47.90425432 84.86699614 47.87087763 108.23278276 47.84680401 C111.86148746 47.84305184 115.49019201 47.83916888 119.11889648 47.83520508 C120.20252232 47.83402468 120.20252232 47.83402468 121.30803958 47.83282044 C133.0090981 47.81976245 144.71011245 47.79610646 156.41114476 47.76854161 C168.41528787 47.74049832 180.41940784 47.72382602 192.42358238 47.71773452 C199.16707546 47.71398563 205.91047641 47.70496035 212.65393639 47.68280983 C218.99776578 47.66248675 225.34145342 47.65615778 231.68531227 47.66067696 C234.01659032 47.65984989 236.34787298 47.65385953 238.67912292 47.64238358 C241.85674798 47.62750512 245.0338346 47.63102968 248.21147156 47.63923645 C249.60203948 47.62612866 249.60203948 47.62612866 251.02069968 47.61275607 C255.81935738 47.64636123 259.13037571 47.82122607 263 51 C264.65233572 54.30467144 264.15768762 57.99479872 264.17578125 61.62890625 C264.19899866 63.40430848 264.22311675 65.17969912 264.24804688 66.95507812 C264.28301084 69.75048357 264.31241769 72.54546804 264.32592773 75.34106445 C264.34153002 78.04169933 264.38183564 80.74110226 264.42578125 83.44140625 C264.42291862 84.67474449 264.42291862 84.67474449 264.41999817 85.93299866 C264.56473309 92.8989687 266.43657382 98.94733145 270.96484375 104.33984375 C277.99000874 110.02953183 282.90106191 111.81483028 292 111 C299.0371581 109.93165256 302.78387744 106.75926914 307.37109375 101.44921875 C310.6460343 96.52502756 311.2548397 91.80958741 311.31884766 85.98486328 C311.32889328 85.31099075 311.3389389 84.63711823 311.34928894 83.94282532 C311.37995844 81.73532902 311.39711023 79.52795307 311.4140625 77.3203125 C311.43278727 75.78188045 311.45236165 74.24345853 311.4727478 72.70504761 C311.5239369 68.67083728 311.56363304 64.63659371 311.60089111 60.60223389 C311.641014 56.4795315 311.69206842 52.35696584 311.7421875 48.234375 C311.83879016 40.1563368 311.92223341 32.07824152 312 24 C317.28 24 322.56 24 328 24 C328.09072257 33.32802499 328.1639576 42.65575227 328.20724869 51.98412037 C328.22803651 56.3166487 328.25619092 60.64885698 328.30175781 64.98120117 C328.34553275 69.16985361 328.36920315 73.35820011 328.37950897 77.54706383 C328.38684404 79.13731381 328.40116625 80.72754891 328.42292023 82.31766701 C328.60175685 95.94390664 326.737195 106.80004722 317 117 C307.16152452 126.39211743 296.72393631 128.60491041 283.43988037 128.50793457 C282.10051017 128.51255296 280.76114504 128.51891213 279.42179036 128.52684355 C275.76995062 128.54343253 272.11853281 128.53533856 268.46669221 128.52289867 C264.51697678 128.513807 260.5673313 128.52783845 256.61763 128.53881836 C248.8903495 128.55656642 241.16322477 128.55277963 233.43593827 128.5411678 C227.15103787 128.53211648 220.86618099 128.53091682 214.58127594 128.53526306 C213.68510477 128.53587599 212.7889336 128.53648893 211.86560573 128.53712043 C210.04472356 128.53839941 208.2238414 128.53969626 206.40295926 128.5410108 C189.34348309 128.5524064 172.28409302 128.53932027 155.22463098 128.51780933 C140.61048557 128.49995153 125.99646732 128.50303357 111.38232422 128.52148438 C94.38808293 128.54293027 77.3939171 128.551295 60.39966416 128.53903532 C58.58443849 128.53776121 56.76921281 128.53650373 54.95398712 128.53526306 C54.06100683 128.53464596 53.16802654 128.53402886 52.24798624 128.53339306 C45.97810826 128.52995038 39.70827842 128.53574533 33.4384079 128.54518127 C25.7864422 128.55644459 18.13464046 128.55327123 10.48269334 128.5320583 C6.58405397 128.5216039 2.68568711 128.51732892 -1.21294975 128.53065491 C-4.79220292 128.5427033 -8.37093479 128.53581534 -11.95014164 128.5147447 C-13.83636238 128.50826303 -15.72262025 128.52110293 -17.60880113 128.53497362 C-36.6672046 128.36288179 -53.88048211 121.22839865 -67.3515625 107.7734375 C-80.27701185 94.23793745 -88.02913223 78.43244283 -88.4375 59.5 C-88.45997803 58.81687744 -88.48245605 58.13375488 -88.50561523 57.42993164 C-88.49062983 54.34332244 -88.25633651 52.36889206 -86.47930908 49.81158447 C-83.03275562 47.29325274 -79.93956698 47.46934517 -75.83496094 47.54589844 C-75.0150769 47.54531433 -74.19519287 47.54473022 -73.35046387 47.54412842 C-70.64466789 47.5469117 -67.93997815 47.57801451 -65.234375 47.609375 C-63.3567973 47.61683654 -61.47921181 47.62252988 -59.60162354 47.62652588 C-54.66290742 47.64178909 -49.7246628 47.68107687 -44.78613281 47.7253418 C-38.85907739 47.77347887 -32.9318642 47.79182524 -27.00466919 47.81515503 C-18.00278499 47.85392744 -9.00193509 47.93057634 0 48 C0 32.16 0 16.32 0 0 Z " fill="#000000" transform="translate(104,368)"/>
<path d="M0 0 C20.39375289 16.05465653 33.76829302 37.6092466 38.4296875 63.12890625 C41.2229596 89.55098008 35.22620649 116.44842195 18.4375 137.5 C16.91591962 139.26749236 15.37471787 141.01832121 13.8125 142.75 C13.11382812 143.53117188 12.41515625 144.31234375 11.6953125 145.1171875 C-4.18172095 161.92474306 -28.08497384 173.22648009 -51.25390625 174.0859375 C-80.40542199 174.49372892 -104.13820397 166.92112964 -125.50390625 146.3984375 C-144.42692101 127.7233225 -153.49400381 104.03410423 -153.6875 77.75 C-153.45936811 49.29196072 -142.99297012 26.58524515 -122.8515625 6.41015625 C-89.50408078 -25.1566347 -36.784143 -26.54525784 0 0 Z " fill="#F59E18" transform="translate(169.1875,178.25)"/>
<path d="M0 0 C1.36284486 -0.00461807 2.72568473 -0.01097703 4.08851433 -0.01890898 C7.8050819 -0.03550139 11.52123502 -0.02740247 15.23780346 -0.0149641 C19.25697223 -0.00587423 23.27607217 -0.01990276 27.29522705 -0.03088379 C35.15752406 -0.04863177 43.01966797 -0.04484567 50.88197088 -0.03323323 C57.2741709 -0.02418449 63.66632813 -0.02298112 70.05853271 -0.02732849 C70.96973558 -0.02794142 71.88093845 -0.02855436 72.81975353 -0.02918586 C74.67108362 -0.03046482 76.5224137 -0.03176167 78.37374377 -0.03307623 C95.71684953 -0.04447112 113.05987058 -0.03138545 130.40296245 -0.00987476 C145.27079991 0.00799523 160.13851244 0.00489081 175.00634766 -0.0135498 C192.28914254 -0.03497579 209.57186326 -0.04337259 226.85466957 -0.03110075 C228.69903182 -0.02982661 230.54339408 -0.02856912 232.38775635 -0.02732849 C233.74880188 -0.02640284 233.74880188 -0.02640284 235.13734329 -0.02545848 C241.51880611 -0.02201077 247.90022173 -0.02782144 254.28167725 -0.0372467 C262.06294662 -0.04848729 269.84405467 -0.04538345 277.62530565 -0.02412373 C281.59230708 -0.01364094 285.55903993 -0.00944385 289.52603912 -0.02272034 C293.16306093 -0.03470802 296.7995672 -0.02797806 300.43654275 -0.00681013 C302.36349767 -0.00028054 304.29048886 -0.01322298 306.21740532 -0.02703905 C318.13525656 0.07970222 327.52647663 3.2058225 336.22314453 11.50793457 C347.46077455 23.27963017 347.87283589 35.84956238 347.74462891 51.34411621 C347.72302528 54.46264918 347.74458462 57.57892125 347.77001953 60.6973877 C347.76737907 62.68502297 347.76225995 64.67265685 347.75439453 66.66027832 C347.76249146 67.58944565 347.77058838 68.51861298 347.77893066 69.47593689 C347.7600177 70.77362755 347.7600177 70.77362755 347.74072266 72.09753418 C347.73754028 72.85489365 347.73435791 73.61225311 347.7310791 74.39256287 C347.22314453 76.50793457 347.22314453 76.50793457 343.22314453 80.50793457 C323.42314453 80.50793457 303.62314453 80.50793457 283.22314453 80.50793457 C283.22314453 162.34793457 283.22314453 244.18793457 283.22314453 328.50793457 C277.94314453 328.50793457 272.66314453 328.50793457 267.22314453 328.50793457 C267.13184784 290.98654641 267.06108194 253.46517805 267.01888321 215.94370119 C267.01388053 211.51158023 267.00870323 207.0794595 267.00341797 202.64733887 C267.00236873 201.76500231 267.00131949 200.88266575 267.00023845 199.97359172 C266.98284439 185.69643171 266.95131222 171.41933629 266.91453335 157.14221456 C266.8770961 142.48703465 266.85490279 127.83188851 266.84679055 113.17666274 C266.84130855 104.13728398 266.82400886 95.09808777 266.79147866 86.05876521 C266.77029639 79.85588714 266.76395287 73.65310312 266.76913902 67.45019152 C266.77169505 63.87410811 266.76784223 60.29834318 266.74632263 56.72231674 C266.72311632 52.83744126 266.73122652 48.95297598 266.74212646 45.06803894 C266.7304751 43.9483595 266.71882373 42.82868006 266.7068193 41.67507094 C266.77873049 32.16732613 269.19302208 24.56175066 274.22314453 16.50793457 C238.28973439 16.58969886 202.356366 16.6818648 166.42301935 16.78798618 C162.18102028 16.80050509 157.93902096 16.81293786 153.69702148 16.82531738 C152.43025977 16.82901637 152.43025977 16.82901637 151.13790692 16.83279009 C137.46270993 16.87251673 123.78750467 16.90526449 110.11228364 16.93543439 C96.08086102 16.96654542 82.04947349 17.00515334 68.01809031 17.05072463 C59.35957927 17.07860943 50.70109391 17.10064252 42.04255003 17.11519708 C36.10553873 17.12573698 30.16857712 17.14355712 24.23160326 17.16710161 C20.80599626 17.1804717 17.38045894 17.19063233 13.95482445 17.19214821 C10.2393527 17.19546704 6.52412307 17.21093487 2.80870056 17.22946167 C1.72795208 17.22752694 0.64720361 17.2255922 -0.46629483 17.22359884 C-7.78652741 17.27826229 -14.23788942 17.55586158 -19.96435547 22.63293457 C-20.59728516 23.1717627 -21.23021484 23.71059082 -21.88232422 24.26574707 C-27.04052366 30.3705027 -28.36916122 36.20151098 -28.32275391 44.04504395 C-28.33309158 44.96304779 -28.34342926 45.88105164 -28.3540802 46.82687378 C-28.38337626 49.8353259 -28.38500459 52.84310138 -28.38623047 55.85168457 C-28.40122101 57.94776686 -28.41794999 60.04383737 -28.43634033 62.13989258 C-28.47992771 67.6372941 -28.49999394 73.1345363 -28.51507568 78.63208008 C-28.53467776 84.2496479 -28.57664433 89.86704444 -28.61669922 95.48449707 C-28.69190812 106.49225663 -28.74225608 117.49997768 -28.77685547 128.50793457 C-34.05685547 128.50793457 -39.33685547 128.50793457 -44.77685547 128.50793457 C-44.8697767 116.05074752 -44.94073266 103.59364374 -44.98410416 91.13617992 C-45.0049265 85.35087477 -45.03314625 79.56580777 -45.07861328 73.78063965 C-45.12226199 68.19148244 -45.14603279 62.60255348 -45.15636444 57.01323891 C-45.16372173 54.88711266 -45.17808839 52.76099807 -45.1997757 50.63496971 C-45.34946915 35.34409704 -44.87756076 23.13619813 -33.77685547 11.50793457 C-23.86532072 2.04607247 -13.37441547 -0.09589508 0 0 Z " fill="#000000" transform="translate(148.77685546875,15.4920654296875)"/>
<path d="M0 0 C105.27 0 210.54 0 319 0 C319.33 9.9 319.66 19.8 320 30 C322.0448647 36.81621566 323.73708961 41.92423583 327 48 C291.53392983 48.06872009 256.06787136 48.12155617 220.60174827 48.15319599 C216.41125655 48.15694795 212.22076496 48.16083093 208.03027344 48.16479492 C207.19604903 48.16558185 206.36182462 48.16636878 205.50232068 48.16717956 C192.00829979 48.18022079 178.51431739 48.20386754 165.02031931 48.23145839 C151.16631174 48.25954834 137.31232427 48.27618384 123.45828938 48.28226548 C114.91490355 48.28637449 106.3716265 48.29933572 97.82827416 48.3237494 C91.96366244 48.33965093 86.09910668 48.34439039 80.23447499 48.34050413 C76.854727 48.33858941 73.47532093 48.34310917 70.09558105 48.35761642 C66.42121684 48.37261158 62.74731257 48.3689276 59.07293701 48.36076355 C57.49116987 48.37387134 57.49116987 48.37387134 55.87744784 48.38724393 C40.93337224 48.2979132 26.81631884 43.39734106 15.8359375 32.99609375 C6.82549692 23.19963601 1.65295237 13.22361894 0 0 Z " fill="#A6A8AB" transform="translate(33,432)"/>
<path d="M0 0 C20.39375289 16.05465653 33.76829302 37.6092466 38.4296875 63.12890625 C41.2229596 89.55098008 35.22620649 116.44842195 18.4375 137.5 C16.91591962 139.26749236 15.37471787 141.01832121 13.8125 142.75 C13.11382812 143.53117188 12.41515625 144.31234375 11.6953125 145.1171875 C-4.18172095 161.92474306 -28.08497384 173.22648009 -51.25390625 174.0859375 C-80.40542199 174.49372892 -104.13820397 166.92112964 -125.50390625 146.3984375 C-144.42692101 127.7233225 -153.49400381 104.03410423 -153.6875 77.75 C-153.45936811 49.29196072 -142.99297012 26.58524515 -122.8515625 6.41015625 C-89.50408078 -25.1566347 -36.784143 -26.54525784 0 0 Z M-109.1875 16.75 C-109.83589844 17.245 -110.48429687 17.74 -111.15234375 18.25 C-125.29750783 29.45409036 -135.04173868 48.99524923 -137.1875 66.75 C-139.03014365 88.83828054 -134.23272285 110.56251434 -119.79296875 127.87109375 C-119.26316406 128.49113281 -118.73335937 129.11117187 -118.1875 129.75 C-117.424375 130.760625 -116.66125 131.77125 -115.875 132.8125 C-103.08902118 146.7878722 -83.3058046 157.09876685 -64.17578125 157.98828125 C-42.6215884 158.50318826 -23.18672809 153.52803678 -6.1875 139.75 C-5.48109375 139.20730469 -4.7746875 138.66460937 -4.046875 138.10546875 C11.17855124 125.78725972 20.45458744 106.02026217 22.625 86.79003906 C24.53158729 66.04597211 19.95865871 46.42309823 7.1875 29.6875 C6.0717779 28.36710405 4.94755401 27.05381504 3.8125 25.75 C3.14541016 24.87021484 3.14541016 24.87021484 2.46484375 23.97265625 C-8.82789244 9.45342401 -28.28751008 0.62678409 -46.1875 -2.25 C-69.3448931 -4.67977193 -91.52956697 1.33944027 -109.1875 16.75 Z " fill="#020100" transform="translate(169.1875,178.25)"/>
<path d="M0 0 C5.28 0 10.56 0 16 0 C16 5.28 16 10.56 16 16 C23.92 16 31.84 16 40 16 C40 21.28 40 26.56 40 32 C38.22955322 32.00616333 38.22955322 32.00616333 36.42333984 32.01245117 C32.02836933 32.03428528 27.63428865 32.0886191 23.23974609 32.15258789 C21.34074455 32.17573066 19.44161534 32.19015486 17.54248047 32.19555664 C14.8061603 32.2048736 12.07183785 32.24592231 9.3359375 32.29296875 C8.06996231 32.28706978 8.06996231 32.28706978 6.77841187 32.28105164 C0.82419842 32.42718178 -1.85585303 33.68566302 -6 38 C-7.53214888 41.06429776 -7.22938548 43.6165642 -7 47 C-5.31845028 50.69940937 -3.52728746 52.99172182 0 55 C2.8766339 55.22150081 5.6254062 55.31309565 8.5 55.3125 C17.67118415 55.57637914 24.82327913 57.57757179 31.95703125 63.671875 C38.55207958 70.66808199 39.56648432 78.20076903 39.35546875 87.5859375 C38.85952126 92.34921336 37.48932724 95.9439633 35 100 C34.46375 100.886875 33.9275 101.77375 33.375 102.6875 C28.26867166 107.65945128 23.18494983 111 16 111 C16 116.61 16 122.22 16 128 C10.72 128 5.44 128 0 128 C0 122.72 0 117.44 0 112 C-7.92 112 -15.84 112 -24 112 C-24 106.72 -24 101.44 -24 96 C-22.8447583 95.98541748 -21.6895166 95.97083496 -20.49926758 95.95581055 C-16.20322088 95.89773178 -11.90769306 95.8204995 -7.61206055 95.73754883 C-5.7547245 95.70434451 -3.89728863 95.67629859 -2.03979492 95.65356445 C0.63405798 95.61993558 3.30699993 95.56761626 5.98046875 95.51171875 C7.2213752 95.50213387 7.2213752 95.50213387 8.48735046 95.49235535 C13.12152043 95.37481848 16.24941106 95.01228753 20 92 C22.81725233 87.7741215 22.79958384 83.96375312 22 79 C19.80977082 76.17575712 18.16982793 74.58491397 15 73 C13.07933809 72.90615658 11.15822473 72.81712051 9.23608398 72.76123047 C-1.65546937 72.41186784 -9.0850097 70.50608665 -17.2734375 62.9375 C-22.91505459 56.60663557 -24.37299001 49.39567072 -24.2734375 41.1328125 C-23.55902349 32.94766916 -19.02982133 26.39510329 -13 21 C-8.71960665 18.18438004 -5.05690512 17.01138102 0 16 C0 10.72 0 5.44 0 0 Z " fill="#020100" transform="translate(104,192)"/>
<path d="M0 0 C60.72 0 121.44 0 184 0 C184 5.28 184 10.56 184 16 C123.28 16 62.56 16 0 16 C0 10.72 0 5.44 0 0 Z " fill="#000000" transform="translate(176,376)"/>
<path d="M0 0 C60.72 0 121.44 0 184 0 C184 5.28 184 10.56 184 16 C123.28 16 62.56 16 0 16 C0 10.72 0 5.44 0 0 Z " fill="#000000" transform="translate(176,120)"/>
<path d="M0 0 C60.72 0 121.44 0 184 0 C184 5.28 184 10.56 184 16 C123.28 16 62.56 16 0 16 C0 10.72 0 5.44 0 0 Z " fill="#000000" transform="translate(176,88)"/>
<path d="M0 0 C44.88 0 89.76 0 136 0 C136 5.28 136 10.56 136 16 C91.12 16 46.24 16 0 16 C0 10.72 0 5.44 0 0 Z " fill="#000000" transform="translate(224,344)"/>
<path d="M0 0 C-3.37200691 2.74508144 -6.81936461 5.31132955 -10.375 7.8125 C-27.85276415 20.57033319 -38.71526257 39.94489242 -43 61 C-46.63401999 85.22679994 -41.81633444 109.4353275 -27.25048828 129.35498047 C-20.73816518 137.92195295 -13.67572077 144.39959151 -4.65234375 150.2578125 C-2 152 -2 152 0 154 C-6.07955061 153.52556461 -10.55515762 152.1935406 -15.9375 149.375 C-16.63407715 149.01817139 -17.3306543 148.66134277 -18.04833984 148.29370117 C-23.5291722 145.41157235 -28.32167422 142.06195889 -33 138 C-34.5159375 136.8553125 -34.5159375 136.8553125 -36.0625 135.6875 C-50.6702419 122.32297018 -60.41626203 101.96537796 -61.3359375 82.08984375 C-61.74797093 58.84354482 -55.09370535 38.24408156 -39 21 C-30.02136768 12.23336316 -13.53023319 -1.26845936 0 0 Z " fill="#CE7500" transform="translate(93,179)"/>
<path d="M0 0 C-0.639375 0.20625 -1.27875 0.4125 -1.9375 0.625 C-4.23097321 1.82445125 -4.23097321 1.82445125 -4.61607361 4.34341431 C-5.16012942 9.52510206 -5.17854496 14.67320404 -5.20532227 19.88037109 C-5.22017166 21.66658875 -5.22017166 21.66658875 -5.23532104 23.4888916 C-5.26142603 26.74048623 -5.28332198 29.99207605 -5.30332303 33.2437129 C-5.32526003 36.64700875 -5.35261081 40.05026107 -5.37937927 43.45352173 C-5.42920223 49.89192089 -5.47417942 56.33034435 -5.51740164 62.76879084 C-5.56686314 70.1013464 -5.62174808 77.43385825 -5.67708123 84.76637149 C-5.79074157 99.8442083 -5.89689919 114.92208659 -6 130 C-13.92 129.01 -21.84 128.02 -30 127 C-30 121.72 -30 116.44 -30 111 C-27.36 111 -24.72 111 -22 111 C-22.00888245 109.84012573 -22.01776489 108.68025146 -22.0269165 107.48522949 C-22.10810577 96.53896463 -22.16801514 85.5927611 -22.20724869 74.64626312 C-22.22809737 69.01893027 -22.25636568 63.39184108 -22.30175781 57.76464844 C-22.34531202 52.33111689 -22.36915756 46.89781927 -22.37950897 41.46412659 C-22.38688312 39.39413268 -22.40128312 37.32415116 -22.42292023 35.2542572 C-22.45208117 32.34826277 -22.45595066 29.44322727 -22.45410156 26.53710938 C-22.47567322 25.26179855 -22.47567322 25.26179855 -22.49768066 23.96072388 C-22.44978378 16.97541063 -20.44354459 11.84553252 -15.88671875 6.5390625 C-5.31821128 -2.65910564 -5.31821128 -2.65910564 0 0 Z " fill="#A6A8AB" transform="translate(142,33)"/>
<path d="M0 0 C6.24611954 4.07932409 10.00086921 8.77579705 12 16 C12.46140025 21.03722037 12.37848165 26.00993058 12.25 31.0625 C12.1675 35.661875 12.085 40.26125 12 45 C-3.84 45 -19.68 45 -36 45 C-36.103125 40.42125 -36.20625 35.8425 -36.3125 31.125 C-36.35802002 29.70203613 -36.40354004 28.27907227 -36.45043945 26.81298828 C-36.54694932 17.90543882 -35.43564991 10.8345974 -29.25732422 4.10058594 C-20.69741689 -3.96513589 -10.3669999 -5.08399122 0 0 Z " fill="#A6A8AB" transform="translate(468,35)"/>
<path d="M0 0 C34.32 0 68.64 0 104 0 C104 5.28 104 10.56 104 16 C69.68 16 35.36 16 0 16 C0 10.72 0 5.44 0 0 Z " fill="#000000" transform="translate(256,312)"/>
<path d="M0 0 C34.32 0 68.64 0 104 0 C104 5.28 104 10.56 104 16 C69.68 16 35.36 16 0 16 C0 10.72 0 5.44 0 0 Z " fill="#000000" transform="translate(256,280)"/>
<path d="M0 0 C34.32 0 68.64 0 104 0 C104 5.28 104 10.56 104 16 C69.68 16 35.36 16 0 16 C0 10.72 0 5.44 0 0 Z " fill="#000000" transform="translate(256,248)"/>
<path d="M0 0 C34.32 0 68.64 0 104 0 C104 5.28 104 10.56 104 16 C69.68 16 35.36 16 0 16 C0 10.72 0 5.44 0 0 Z " fill="#000000" transform="translate(256,216)"/>
<path d="M0 0 C34.32 0 68.64 0 104 0 C104 5.28 104 10.56 104 16 C69.68 16 35.36 16 0 16 C0 10.72 0 5.44 0 0 Z " fill="#000000" transform="translate(256,184)"/>
<path d="M0 0 C34.32 0 68.64 0 104 0 C104 5.28 104 10.56 104 16 C69.68 16 35.36 16 0 16 C0 10.72 0 5.44 0 0 Z " fill="#000000" transform="translate(256,152)"/>
<path d="M0 0 C0 22.11 0 44.22 0 67 C-5.28 67 -10.56 67 -16 67 C-16 51.16 -16 35.32 -16 19 C-18.64 19 -21.28 19 -24 19 C-24 13.72 -24 8.44 -24 3 C-21.339375 2.814375 -21.339375 2.814375 -18.625 2.625 C-13.63463933 2.21702028 -8.84615721 1.48531317 -3.9609375 0.40234375 C-2 0 -2 0 0 0 Z " fill="#A6A8AB" transform="translate(136,349)"/>
<path d="M0 0 C5.28 0 10.56 0 16 0 C16 5.28 16 10.56 16 16 C10.72 16 5.44 16 0 16 C0 10.72 0 5.44 0 0 Z " fill="#000000" transform="translate(416,360)"/>
</svg>
