<?xml version="1.0" encoding="UTF-8"?>
<svg version="1.1" xmlns="http://www.w3.org/2000/svg" width="64" height="64">
<path d="M0 0 C1.21042969 -0.00128906 2.42085937 -0.00257812 3.66796875 -0.00390625 C4.94285156 -0.00003906 6.21773437 0.00382813 7.53125 0.0078125 C8.80613281 0.00394531 10.08101562 0.00007812 11.39453125 -0.00390625 C12.60496094 -0.00261719 13.81539062 -0.00132813 15.0625 0 C16.18205078 0.00112793 17.30160156 0.00225586 18.45507812 0.00341797 C21.03125 0.1328125 21.03125 0.1328125 22.03125 1.1328125 C22.07205783 3.13239614 22.07379356 5.13326504 22.03125 7.1328125 C23.05798828 7.30103516 23.05798828 7.30103516 24.10546875 7.47265625 C27.50863305 8.24052643 30.59868098 9.41695198 33.84375 10.6953125 C35.00519531 11.15035156 36.16664062 11.60539063 37.36328125 12.07421875 C38.24371094 12.42355469 39.12414063 12.77289063 40.03125 13.1328125 C39.59922518 19.32516827 37.41199356 24.45598164 34.9921875 30.14453125 C34.00557662 33.21265046 33.82265543 34.23340635 35.03125 37.1328125 C35.37414063 37.77476563 35.71703125 38.41671875 36.0703125 39.078125 C37.86658934 42.91894458 37.56062445 46.99584923 37.03125 51.1328125 C34.80303882 55.67176119 32.53521995 57.93286009 28.03125 60.1328125 C24.75732422 60.50512695 24.75732422 60.50512695 21.0859375 60.49609375 C20.10840012 60.49684151 20.10840012 60.49684151 19.1111145 60.49760437 C17.74120007 60.49527483 16.37128046 60.48561263 15.00146484 60.46899414 C12.90553608 60.44530443 10.81087332 60.44845289 8.71484375 60.45507812 C-1.54965961 60.41220609 -1.54965961 60.41220609 -4.96875 58.1328125 C-5.65678711 57.99383545 -6.34482422 57.8548584 -7.05371094 57.71166992 C-7.68567383 57.52064697 -8.31763672 57.32962402 -8.96875 57.1328125 C-10.26729075 54.55118982 -11.26519786 52.15480647 -12.21875 49.4453125 C-12.50886963 48.65817871 -12.79898926 47.87104492 -13.09790039 47.06005859 C-13.72779367 45.34508028 -14.35060645 43.62748911 -14.96728516 41.90771484 C-16.02024386 38.99013107 -17.10675944 36.08660279 -18.19921875 33.18359375 C-18.93580041 31.20867048 -19.67149315 29.23341541 -20.40625 27.2578125 C-20.76041992 26.31333252 -21.11458984 25.36885254 -21.47949219 24.39575195 C-21.96724121 23.06290161 -21.96724121 23.06290161 -22.46484375 21.703125 C-22.75544678 20.91695801 -23.0460498 20.13079102 -23.34545898 19.32080078 C-23.96875 17.1328125 -23.96875 17.1328125 -23.96875 13.1328125 C-21.5120553 12.12861613 -19.05356647 11.12930749 -16.59375 10.1328125 C-15.89507812 9.84664062 -15.19640625 9.56046875 -14.4765625 9.265625 C-9.1953125 7.1328125 -9.1953125 7.1328125 -6.96875 7.1328125 C-6.989375 6.1634375 -7.01 5.1940625 -7.03125 4.1953125 C-6.92339521 -1.08957209 -4.72352426 0.00475888 0 0 Z " fill="#050905" transform="translate(23.96875,1.8671875)"/>
<path d="M0 0 C8.25 0 16.5 0 25 0 C25 7.26 25 14.52 25 22 C25.66 22 26.32 22 27 22 C27 18.37 27 14.74 27 11 C32.41258741 11.6013986 32.41258741 11.6013986 34.75 13.1875 C36.43706568 15.63374523 37.17974888 18.16066921 38 21 C38.33 19.35 38.66 17.7 39 16 C38.34 16 37.68 16 37 16 C37 14.68 37 13.36 37 12 C33.7 11.01 30.4 10.02 27 9 C27 8.34 27 7.68 27 7 C37.55808656 10.07517084 37.55808656 10.07517084 42 12 C41.677076 17.48970796 40.41490295 21.51294252 38.1875 26.5625 C36.3056553 30.75880511 36.3056553 30.75880511 36.5625 35.14453125 C37.64336491 36.80711165 38.82040329 38.40595039 40 40 C40.60949024 45.05006198 40.05063903 47.93248129 37 52 C34.93532144 54.40879165 34.11005341 54.96331553 31 56 C26.75325612 56.23164058 23.64397537 56.33214424 20 54 C20 54.66 20 55.32 20 56 C14.72 56 9.44 56 4 56 C3.12049735 52.4819894 3 50.52089836 3 47 C4.81242052 46.97312721 6.62495233 46.95366285 8.4375 46.9375 C9.44683594 46.92589844 10.45617187 46.91429687 11.49609375 46.90234375 C14 47 14 47 15 48 C15.03867187 47.11248047 15.03867187 47.11248047 15.078125 46.20703125 C15.45402753 40.97002551 15.96613617 37.70679379 20 34 C23.25 32.1875 23.25 32.1875 26 31 C25.34 30.67 24.68 30.34 24 30 C24 21.75 24 13.5 24 5 C22.68 4.67 21.36 4.34 20 4 C20 3.01 20 2.02 20 1 C15.38 1 10.76 1 6 1 C6 1.66 6 2.32 6 3 C4.02 3.33 2.04 3.66 0 4 C0 2.68 0 1.36 0 0 Z " fill="#E38100" transform="translate(19,4)"/>
<path d="M0 0 C1.5675 -0.061875 3.135 -0.12375 4.75 -0.1875 C6.07257812 -0.23970703 6.07257812 -0.23970703 7.421875 -0.29296875 C10.59001415 0.06704706 11.73976965 0.76583101 14 3 C14.45410156 5.63549805 14.45410156 5.63549805 14.390625 8.76171875 C14.37773438 9.87998047 14.36484375 10.99824219 14.3515625 12.15039062 C14.31804688 13.31763672 14.28453125 14.48488281 14.25 15.6875 C14.23195312 16.86634766 14.21390625 18.04519531 14.1953125 19.25976562 C14.14811859 22.17398926 14.08229077 25.08659031 14 28 C12.35 27.67 10.7 27.34 9 27 C9.495 26.071875 9.495 26.071875 10 25.125 C11.14193235 23.08981656 11.14193235 23.08981656 11 21 C10.34 21.99 9.68 22.98 9 24 C8.34 24 7.68 24 7 24 C7.26676204 25.98491642 7.26676204 25.98491642 8 28 C8.99 28.33 9.98 28.66 11 29 C10.34 30.32 9.68 31.64 9 33 C4.38 33 -0.24 33 -5 33 C-5.33 32.34 -5.66 31.68 -6 31 C-6.804375 30.855625 -7.60875 30.71125 -8.4375 30.5625 C-11 30 -11 30 -13 27 C-12.875 24 -12.875 24 -12 21 C-9.9375 19.125 -9.9375 19.125 -8 18 C-10.6905528 19.22007944 -10.6905528 19.22007944 -13 21 C-13.23075082 22.34747084 -13.41153063 23.70377565 -13.5625 25.0625 C-13.706875 26.361875 -13.85125 27.66125 -14 29 C-17.06405726 25.93594274 -18.01108497 22.16499249 -19 18 C-18.75 15.125 -18.75 15.125 -18 13 C-17.67 12.01 -17.34 11.02 -17 10 C-13.58795472 8.16274485 -11.16239584 6.89432765 -7.25 7.25 C-2 9 -2 9 -0.61328125 11.72265625 C-0.18402344 12.82480469 0.24523437 13.92695313 0.6875 15.0625 C1.12449219 16.16722656 1.56148437 17.27195312 2.01171875 18.41015625 C2.50091797 19.69212891 2.50091797 19.69212891 3 21 C2.71125 20.15695313 2.4225 19.31390625 2.125 18.4453125 C1.75375 17.34960938 1.3825 16.25390625 1 15.125 C0.62875 14.03445312 0.2575 12.94390625 -0.125 11.8203125 C-1 9 -1 9 -1 7 C-7.79707213 5.61541123 -12.52086573 6.64998614 -19 9 C-19 10.32 -19 11.64 -19 13 C-19.66 13 -20.32 13 -21 13 C-18.56192576 21.24642759 -15.87179302 29.35794642 -12.93115234 37.43725586 C-11 42.79294363 -11 42.79294363 -11 45 C-9.35 45.33 -7.7 45.66 -6 46 C-6.33 47.32 -6.66 48.64 -7 50 C-8.87719727 49.76025391 -8.87719727 49.76025391 -11 49 C-12.10913086 47.19677734 -12.10913086 47.19677734 -12.96484375 44.8359375 C-13.44920898 43.53354126 -13.44920898 43.53354126 -13.94335938 42.20483398 C-14.27142578 41.27098877 -14.59949219 40.33714355 -14.9375 39.375 C-15.28232422 38.42890869 -15.62714844 37.48281738 -15.98242188 36.50805664 C-17.0066746 33.67819952 -18.00646588 30.84076787 -19 28 C-19.28117676 27.20867676 -19.56235352 26.41735352 -19.85205078 25.60205078 C-24 13.89862901 -24 13.89862901 -24 9 C-20.92064034 7.8226504 -17.83592484 6.66002109 -14.75 5.5 C-13.87730469 5.16613281 -13.00460937 4.83226562 -12.10546875 4.48828125 C-11.26113281 4.17246094 -10.41679687 3.85664063 -9.546875 3.53125 C-8.77182617 3.23798828 -7.99677734 2.94472656 -7.19824219 2.64257812 C-5 2 -5 2 -1 2 C-0.34 4.64 0.32 7.28 1 10 C1.66 10 2.32 10 3 10 C1.515 5.05 1.515 5.05 0 0 Z " fill="#25361C" transform="translate(27,7)"/>
<path d="M0 0 C0.68578125 0.03996094 1.3715625 0.07992188 2.078125 0.12109375 C4 1 4 1 5.484375 4.16015625 C5.92278489 5.4554582 6.34407684 6.75665286 6.75 8.0625 C6.97042969 8.72572266 7.19085937 9.38894531 7.41796875 10.07226562 C7.95997407 11.71006432 8.48192502 13.35447496 9 15 C8.34 15.33 7.68 15.66 7 16 C6.32942113 14.2097939 5.6636531 12.41778511 5 10.625 C4.62875 9.62726562 4.2575 8.62953125 3.875 7.6015625 C3 5 3 5 3 3 C-2.79141983 1.98396143 -6.4584498 2.03736764 -12 4 C-13.31281522 10.56407612 -12.52653315 14.83354621 -10 21 C-9.5978125 19.3603125 -9.5978125 19.3603125 -9.1875 17.6875 C-7.5282167 12.53498871 -7.5282167 12.53498871 -5 11 C-1.8125 10.8125 -1.8125 10.8125 1 11 C0.4225 11.2475 -0.155 11.495 -0.75 11.75 C-3.44195992 13.24553329 -5.14385446 14.52513927 -7 17 C-7.25329784 20.14710302 -7.25329784 20.14710302 -6 23 C-3.53744315 24.45291273 -3.53744315 24.45291273 -1 25 C-0.67 24.34 -0.34 23.68 0 23 C0 24.32 0 25.64 0 27 C2.29199177 26.85936865 4.58359186 26.71234057 6.875 26.5625 C8.15117187 26.48128906 9.42734375 26.40007813 10.7421875 26.31640625 C13.88300152 26.20793973 13.88300152 26.20793973 16 25 C15.5359375 25.928125 15.5359375 25.928125 15.0625 26.875 C13.5960722 31.18802294 13.33380974 35.4759996 13 40 C12.34 39.67 11.68 39.34 11 39 C9.12943209 38.7724985 7.25314042 38.59037189 5.375 38.4375 C4.37210938 38.35371094 3.36921875 38.26992188 2.3359375 38.18359375 C1.56507812 38.12300781 0.79421875 38.06242187 0 38 C0.33 39.32 0.66 40.64 1 42 C0.34 42 -0.32 42 -1 42 C-1.33 41.34 -1.66 40.68 -2 40 C-2.94117676 39.87093262 -2.94117676 39.87093262 -3.90136719 39.73925781 C-6 39 -6 39 -7.37207031 36.48730469 C-7.96906738 34.84616699 -7.96906738 34.84616699 -8.578125 33.171875 C-9.01640625 31.97949219 -9.4546875 30.78710938 -9.90625 29.55859375 C-10.23689453 28.62055908 -10.23689453 28.62055908 -10.57421875 27.66357422 C-11.24482292 25.76465968 -11.94039247 23.87644347 -12.640625 21.98828125 C-16.29687555 11.87918373 -16.29687555 11.87918373 -16 7 C-15.34 7 -14.68 7 -14 7 C-14 5.68 -14 4.36 -14 3 C-12.42274653 2.29866401 -10.83788667 1.614417 -9.25 0.9375 C-7.92742188 0.36322266 -7.92742188 0.36322266 -6.578125 -0.22265625 C-3.76019387 -1.07230518 -2.71547731 -0.96587099 0 0 Z " fill="#0A100A" transform="translate(22,13)"/>
<path d="M0 0 C8.25 0 16.5 0 25 0 C25 7.26 25 14.52 25 22 C25.66 22 26.32 22 27 22 C27 18.37 27 14.74 27 11 C32.41258741 11.6013986 32.41258741 11.6013986 34.75 13.1875 C36.43706568 15.63374523 37.17974888 18.16066921 38 21 C38.33 19.35 38.66 17.7 39 16 C38.34 16 37.68 16 37 16 C37 14.68 37 13.36 37 12 C33.7 11.01 30.4 10.02 27 9 C27 8.34 27 7.68 27 7 C37.55808656 10.07517084 37.55808656 10.07517084 42 12 C41.55919457 19.49369227 39.19502624 26.22176676 36 33 C33.49078542 34.25460729 32.61169775 33.86211613 29.9375 33.1875 C29.22464844 33.01605469 28.51179688 32.84460937 27.77734375 32.66796875 C26 32 26 32 25 30 C24.67 30 24.34 30 24 30 C24 21.75 24 13.5 24 5 C22.68 4.67 21.36 4.34 20 4 C20 3.01 20 2.02 20 1 C15.38 1 10.76 1 6 1 C6 1.66 6 2.32 6 3 C4.02 3.33 2.04 3.66 0 4 C0 2.68 0 1.36 0 0 Z " fill="#534D19" transform="translate(19,4)"/>
<path d="M0 0 C4.11289267 0.85685264 5.59686932 2.20235933 8 5.625 C8.1526226 9.9747442 7.71471806 11.8507221 4.75 15.0625 C1.68825146 16.80212985 0.43375729 17.39759539 -3 16.625 C-6.26600019 14.15735541 -7.78253791 12.66881805 -8.625 8.625 C-7.58039389 3.61089068 -5.01410932 1.04460611 0 0 Z " fill="#E7AF3A" transform="translate(47,39.375)"/>
<path d="M0 0 C1.203125 2.1796875 1.203125 2.1796875 2.25 4.875 C2.78367187 6.20144531 2.78367187 6.20144531 3.328125 7.5546875 C4 10 4 10 3 13 C2.484375 12.34 1.96875 11.68 1.4375 11 C-0.94087916 8.68459896 -0.94087916 8.68459896 -4.5625 8.5625 C-7.84174008 8.77293239 -7.84174008 8.77293239 -9.875 10 C-11.67243534 13.1954406 -11.70202714 16.36473107 -12 20 C-15.06405726 16.93594274 -16.01108497 13.16499249 -17 9 C-16.75 6.125 -16.75 6.125 -16 4 C-15.67 3.01 -15.34 2.02 -15 1 C-9.02491971 -2.21735092 -6.16664193 -2.05554731 0 0 Z " fill="#3A9375" transform="translate(25,16)"/>
<path d="M0 0 C1.58246707 -0.08153933 3.16616273 -0.13943557 4.75 -0.1875 C6.07257812 -0.23970703 6.07257812 -0.23970703 7.421875 -0.29296875 C10.59001415 0.06704706 11.73976965 0.76583101 14 3 C14.45410156 5.63549805 14.45410156 5.63549805 14.390625 8.76171875 C14.37773438 9.87998047 14.36484375 10.99824219 14.3515625 12.15039062 C14.31804688 13.31763672 14.28453125 14.48488281 14.25 15.6875 C14.23195313 16.86634766 14.21390625 18.04519531 14.1953125 19.25976562 C14.14811859 22.17398926 14.08229077 25.08659031 14 28 C12.35 27.67 10.7 27.34 9 27 C9.309375 26.484375 9.61875 25.96875 9.9375 25.4375 C11.36826939 22.1551467 11.93695764 19.59341426 12 16 C9.18971112 12.23137957 9.18971112 12.23137957 4.93359375 10.68359375 C4.29550781 10.45800781 3.65742188 10.23242188 3 10 C1.953125 7.71484375 1.953125 7.71484375 1.25 4.9375 C1.00765625 4.01839844 0.7653125 3.09929688 0.515625 2.15234375 C0.34546875 1.44207031 0.1753125 0.73179687 0 0 Z " fill="#3C9778" transform="translate(27,7)"/>
<path d="M0 0 C1.03444249 2.57861025 2.05272284 5.16174635 3.0625 7.75 C3.35705078 8.47960938 3.65160156 9.20921875 3.95507812 9.9609375 C4.22900391 10.66992188 4.50292969 11.37890625 4.78515625 12.109375 C5.17006226 13.08342285 5.17006226 13.08342285 5.56274414 14.07714844 C6.08330284 16.36632786 5.72364304 17.79256664 5 20 C4.16260219 17.8765984 3.33019717 15.7512272 2.5 13.625 C2.0359375 12.44164062 1.571875 11.25828125 1.09375 10.0390625 C0 7 0 7 0 5 C-6.79707213 3.61541123 -11.52086573 4.64998614 -18 7 C-18 8.32 -18 9.64 -18 11 C-18.66 11 -19.32 11 -20 11 C-17.56192576 19.24642759 -14.87179302 27.35794642 -11.93115234 35.43725586 C-10 40.79294363 -10 40.79294363 -10 43 C-8.35 43.33 -6.7 43.66 -5 44 C-5.33 45.32 -5.66 46.64 -6 48 C-7.87719727 47.76025391 -7.87719727 47.76025391 -10 47 C-11.10913086 45.19677734 -11.10913086 45.19677734 -11.96484375 42.8359375 C-12.44920898 41.53354126 -12.44920898 41.53354126 -12.94335938 40.20483398 C-13.27142578 39.27098877 -13.59949219 38.33714355 -13.9375 37.375 C-14.28232422 36.42890869 -14.62714844 35.48281738 -14.98242188 34.50805664 C-16.0066746 31.67819952 -17.00646588 28.84076787 -18 26 C-18.28117676 25.20867676 -18.56235352 24.41735352 -18.85205078 23.60205078 C-23 11.89862901 -23 11.89862901 -23 7 C-19.92064034 5.8226504 -16.83592484 4.66002109 -13.75 3.5 C-12.87730469 3.16613281 -12.00460937 2.83226562 -11.10546875 2.48828125 C-10.26113281 2.17246094 -9.41679687 1.85664063 -8.546875 1.53125 C-7.77182617 1.23798828 -6.99677734 0.94472656 -6.19824219 0.64257812 C-4 0 -4 0 0 0 Z " fill="#5BAD5F" transform="translate(26,9)"/>
<path d="M0 0 C5.38732394 0.59859155 5.38732394 0.59859155 7.8125 2.1875 C9.63408549 4.96781469 9.93877864 6.63282517 10 10 C8.89839939 13.44378884 7.51141475 16.71770015 6 20 C5.67 20 5.34 20 5 20 C4.731875 19.071875 4.46375 18.14375 4.1875 17.1875 C3.30992011 14.04779064 3.30992011 14.04779064 1.4375 12.65625 C-0.64940858 10.25176837 -0.29769659 8.43473673 -0.1875 5.3125 C-0.16042969 4.31863281 -0.13335937 3.32476563 -0.10546875 2.30078125 C-0.07066406 1.54152344 -0.03585938 0.78226563 0 0 Z " fill="#3B9577" transform="translate(46,15)"/>
<path d="M0 0 C1.77074917 -0.02705729 3.54161711 -0.04642195 5.3125 -0.0625 C6.29863281 -0.07410156 7.28476562 -0.08570313 8.30078125 -0.09765625 C11 0 11 0 14 1 C16.07530387 3.92079805 17 5.37546731 17 9 C11.72 9 6.44 9 1 9 C0.12049735 5.4819894 0 3.52089836 0 0 Z " fill="#44320F" transform="translate(22,51)"/>
<path d="M0 0 C1.875 1.125 1.875 1.125 3 3 C3.1875 6.1875 3.1875 6.1875 3 9 C1.02 9 -0.96 9 -3 9 C-3 9.99 -3 10.98 -3 12 C-5.375 11.6875 -5.375 11.6875 -8 11 C-10 8 -10 8 -9.8125 4.9375 C-8.34378834 -0.37245753 -4.92850383 -0.51338582 0 0 Z " fill="#E2C639" transform="translate(24,26)"/>
<path d="M0 0 C2.3125 1.75 2.3125 1.75 3.3125 3.75 C3.352492 5.74960012 3.35596799 7.75047242 3.3125 9.75 C2.6525 9.75 1.9925 9.75 1.3125 9.75 C1.10625 8.63625 0.9 7.5225 0.6875 6.375 C-0.30378301 2.48400805 -0.30378301 2.48400805 -3.8125 1.3125 C-4.76125 1.126875 -5.71 0.94125 -6.6875 0.75 C-3.88080644 -1.22508065 -3.21066414 -1.49333216 0 0 Z M-4.6875 9.75 C0.9225 10.08 6.5325 10.41 12.3125 10.75 C11.6525 12.07 10.9925 13.39 10.3125 14.75 C5.6925 14.75 1.0725 14.75 -3.6875 14.75 C-4.0175 13.1 -4.3475 11.45 -4.6875 9.75 Z " fill="#827023" transform="translate(25.6875,25.25)"/>
<path d="M0 0 C0.33 0 0.66 0 1 0 C1.33 5.94 1.66 11.88 2 18 C2.33 18 2.66 18 3 18 C3 20.31 3 22.62 3 25 C4.32 25.33 5.64 25.66 7 26 C5.72942818 26.47985967 4.45853152 26.9588593 3.1875 27.4375 C2.47980469 27.70433594 1.77210937 27.97117187 1.04296875 28.24609375 C-0.62672396 28.86225186 -2.31157704 29.43719235 -4 30 C-4 29.01 -4 28.02 -4 27 C-7.63 27 -11.26 27 -15 27 C-15 26.67 -15 26.34 -15 26 C-9.25 24.875 -9.25 24.875 -7 26 C-7.3403125 25.1028125 -7.3403125 25.1028125 -7.6875 24.1875 C-7.790625 23.465625 -7.89375 22.74375 -8 22 C-7 21 -6 20 -5 19 C-4.2730774 15.89160979 -4.2730774 15.89160979 -4 13 C-3.34 13.33 -2.68 13.66 -2 14 C-2.46800711 18.05606165 -2.87953208 21.46588679 -5 25 C-3.68 25 -2.36 25 -1 25 C-0.67 16.75 -0.34 8.5 0 0 Z " fill="#182311" transform="translate(42,9)"/>
<path d="M0 0 C2.58861097 2.13560405 3.71069819 3.63614862 4.41015625 6.93359375 C4.7003485 10.86979124 4.23258873 12.65111691 2 16 C-1.35243241 18.23495494 -3.12916275 18.67920629 -7.06640625 18.43359375 C-10.10618646 17.75194607 -11.86696044 16.19767713 -14 14 C-15.45147903 11.09704195 -15.37239025 9.22738221 -15 6 C-11.07832952 -0.33613178 -7.21221224 -2.03823389 0 0 Z M-13 6 C-13.83333333 9 -13.83333333 9 -13 12 C-11.08333333 15.08333333 -11.08333333 15.08333333 -8 17 C-3.6502558 17.1526226 -1.7742779 16.71471806 1.4375 13.75 C3.17712985 10.68825146 3.77259539 9.43375729 3 6 C0.53235541 2.73399981 -0.95618195 1.21746209 -5 0.375 C-9.0743356 1.22381992 -10.54405875 2.67725596 -13 6 Z " fill="#1F1704" transform="translate(52,39)"/>
<path d="M0 0 C4.62 0 9.24 0 14 0 C14.33 0.99 14.66 1.98 15 3 C15.66 3.33 16.32 3.66 17 4 C17 12.25 17 20.5 17 29 C16.67 29 16.34 29 16 29 C16 21.08 16 13.16 16 5 C12.3750203 3.18751015 10.62740416 2.68111085 6.75 2.375 C4.39875 2.189375 4.39875 2.189375 2 2 C2.99 5.3 3.98 8.6 5 12 C4.34 12 3.68 12 3 12 C1.74335022 9.09399739 1 7.20395416 1 4 C0.21625 4.20625 -0.5675 4.4125 -1.375 4.625 C-2.24125 4.74875 -3.1075 4.8725 -4 5 C-4.66 4.34 -5.32 3.68 -6 3 C-4.02 2.67 -2.04 2.34 0 2 C0 1.34 0 0.68 0 0 Z " fill="#08130C" transform="translate(25,5)"/>
<path d="M0 0 C4.01349645 0.28001138 5.72035142 0.75763789 8.8125 3.4375 C12.22829819 7.43886359 12.3564117 9.74292739 12 15 C10.50367272 18.13516193 8.81004637 20.91848417 6 23 C2.8125 23.6875 2.8125 23.6875 0 24 C0 23.34 0 22.68 0 22 C1.79036458 21.0234375 3.58072917 20.046875 5.37109375 19.0703125 C7.16618315 18.08589976 7.16618315 18.08589976 8 16 C8.43035319 10.60979734 8.43035319 10.60979734 6.8125 5.625 C4.68400006 3.71668971 2.70502403 2.87730509 0 2 C0 1.34 0 0.68 0 0 Z " fill="#E4AC00" transform="translate(47,36)"/>
<path d="M0 0 C8.25 0 16.5 0 25 0 C25 9.9 25 19.8 25 30 C24.67 30 24.34 30 24 30 C24 21.75 24 13.5 24 5 C22.68 4.67 21.36 4.34 20 4 C20 3.01 20 2.02 20 1 C15.38 1 10.76 1 6 1 C6 1.66 6 2.32 6 3 C4.02 3.33 2.04 3.66 0 4 C0 2.68 0 1.36 0 0 Z " fill="#66C36A" transform="translate(19,4)"/>
<path d="M0 0 C2.375 0.3125 2.375 0.3125 5 1 C7 4 7 4 6.8125 7.5 C5.71578947 12.2242915 5.71578947 12.2242915 3 14 C2.01 14 1.02 14 0 14 C0 13.01 0 12.02 0 11 C0.66 11 1.32 11 2 11 C1.73323796 9.01508358 1.73323796 9.01508358 1 7 C0.01 6.67 -0.98 6.34 -2 6 C-2 5.34 -2 4.68 -2 4 C-1.01 3.67 -0.02 3.34 1 3 C0.67 2.01 0.34 1.02 0 0 Z " fill="#EECF3B" transform="translate(48,41)"/>
<path d="M0 0 C2.79658591 5.29788014 4.60645738 10.99831243 6.625 16.625 C7.25535156 18.36136719 7.25535156 18.36136719 7.8984375 20.1328125 C8.29546875 21.23625 8.6925 22.3396875 9.1015625 23.4765625 C9.46588379 24.48799316 9.83020508 25.49942383 10.20556641 26.54150391 C11 29 11 29 11 31 C12.65 31.33 14.3 31.66 16 32 C15.67 33.32 15.34 34.64 15 36 C13.125 35.76904297 13.125 35.76904297 11 35 C9.875 33.13330078 9.875 33.13330078 9 30.6953125 C8.67185303 29.80634277 8.34370605 28.91737305 8.00561523 28.00146484 C7.67376221 27.05223145 7.34190918 26.10299805 7 25.125 C6.47998413 23.69148193 6.47998413 23.69148193 5.94946289 22.22900391 C5.26499982 20.33913337 4.58653519 18.44707787 3.91455078 16.55273438 C3.15881786 14.44329939 2.37620413 12.35157205 1.55859375 10.265625 C1.18863281 9.31171875 0.81867187 8.3578125 0.4375 7.375 C0.12683594 6.57835937 -0.18382812 5.78171875 -0.50390625 4.9609375 C-1 3 -1 3 0 0 Z " fill="#70AF56" transform="translate(5,21)"/>
<path d="M0 0 C3.96 1.98 3.96 1.98 8 4 C8 7.63 8 11.26 8 15 C6.68 14.67 5.36 14.34 4 14 C2.734375 11.6015625 2.734375 11.6015625 1.75 8.625 C1.41484375 7.64789063 1.0796875 6.67078125 0.734375 5.6640625 C0 3 0 3 0 0 Z " fill="#398B6D" transform="translate(13,36)"/>
<path d="M0 0 C10.55808656 3.07517084 10.55808656 3.07517084 15 5 C14.28571429 13.57142857 14.28571429 13.57142857 11 17 C11.33 14.36 11.66 11.72 12 9 C11.34 9 10.68 9 10 9 C10 7.68 10 6.36 10 5 C6.7 4.01 3.4 3.02 0 2 C0 1.34 0 0.68 0 0 Z " fill="#55AB5F" transform="translate(46,11)"/>
<path d="M0 0 C3.96 0 7.92 0 12 0 C11.67 1.32 11.34 2.64 11 4 C7.37 4 3.74 4 0 4 C0 2.68 0 1.36 0 0 Z " fill="#BEA02F" transform="translate(22,41)"/>
<path d="M0 0 C0.33 0 0.66 0 1 0 C0.58675744 5.2688427 -0.22944438 8.22944438 -4 12 C-6 13.375 -6 13.375 -8 14 C-9.34313401 13.70865843 -10.67913658 13.37974823 -12 13 C-11.46890625 12.64808594 -10.9378125 12.29617187 -10.390625 11.93359375 C-5.39983172 8.44550283 -2.63633237 5.4923591 0 0 Z " fill="#100C00" transform="translate(60,48)"/>
<path d="M0 0 C2.24452405 0.3869869 3.87054181 0.91964664 5.8125 2.125 C7 4 7 4 6.8125 7.625 C6.544375 8.73875 6.27625 9.8525 6 11 C5.01 11.495 5.01 11.495 4 12 C3.3291288 10.3767313 2.66342971 8.75132422 2 7.125 C1.62875 6.22007813 1.2575 5.31515625 0.875 4.3828125 C0 2 0 2 0 0 Z " fill="#E7CA3A" transform="translate(31,19)"/>
<path d="M0 0 C2.29109597 -0.08075665 4.58299267 -0.13907731 6.875 -0.1875 C8.78925781 -0.23970703 8.78925781 -0.23970703 10.7421875 -0.29296875 C11.81726563 -0.19628906 12.89234375 -0.09960938 14 0 C14.66 0.99 15.32 1.98 16 3 C10.72 3 5.44 3 0 3 C0 2.01 0 1.02 0 0 Z " fill="#E4C139" transform="translate(22,56)"/>
<path d="M0 0 C3.63 0 7.26 0 11 0 C11 1.32 11 2.64 11 4 C7.37 4 3.74 4 0 4 C0 2.68 0 1.36 0 0 Z " fill="#C2A330" transform="translate(22,46)"/>
<path d="M0 0 C0.33 0 0.66 0 1 0 C1 8.25 1 16.5 1 25 C-0.65 24.67 -2.3 24.34 -4 24 C-3.690625 23.484375 -3.38125 22.96875 -3.0625 22.4375 C-0.10250981 15.64693427 -0.51463129 7.28148524 0 0 Z " fill="#338166" transform="translate(40,10)"/>
<path d="M0 0 C1.32 0.66 2.64 1.32 4 2 C2.68 2.33 1.36 2.66 0 3 C0 3.66 0 4.32 0 5 C1.32 5.33 2.64 5.66 4 6 C4 7.32 4 8.64 4 10 C3.34 10 2.68 10 2 10 C2 10.66 2 11.32 2 12 C0.68 11.34 -0.64 10.68 -2 10 C-2 9.34 -2 8.68 -2 8 C-0.68 8.33 0.64 8.66 2 9 C2 8.34 2 7.68 2 7 C0.68 6.34 -0.64 5.68 -2 5 C-1.125 1.125 -1.125 1.125 0 0 Z " fill="#251E09" transform="translate(46,42)"/>
<path d="M0 0 C-0.5775 0.2475 -1.155 0.495 -1.75 0.75 C-4.44195992 2.24553329 -6.14385446 3.52513927 -8 6 C-8.25329784 9.14710302 -8.25329784 9.14710302 -7 12 C-4.53744315 13.45291273 -4.53744315 13.45291273 -2 14 C-2.99 14.66 -3.98 15.32 -5 16 C-7.5 14.5 -7.5 14.5 -10 12 C-10.69200025 9.20912297 -10.61421321 6.80127146 -10 4 C-7.25492723 -0.22318887 -4.85423095 -0.44129372 0 0 Z " fill="#0D120A" transform="translate(23,24)"/>
<path d="M0 0 C3.63 0 7.26 0 11 0 C11.33 0.99 11.66 1.98 12 3 C8.04 3 4.08 3 0 3 C0 2.01 0 1.02 0 0 Z " fill="#DEBD37" transform="translate(22,51)"/>
<path d="M0 0 C1.33333333 0.33333333 2.66666667 0.66666667 4 1 C4.70640625 1.17660156 5.4128125 1.35320313 6.140625 1.53515625 C8.09375 2.0234375 10.046875 2.51171875 12 3 C11.01 3.495 11.01 3.495 10 4 C10 4.66 10 5.32 10 6 C5.8333396 5.52651586 3.07115285 4.95303159 0 2 C0 1.34 0 0.68 0 0 Z " fill="#D77C01" transform="translate(37,54)"/>
<path d="M0 0 C-1 3 -1 3 -2.75 4.25 C-5.52724898 5.17574966 -7.21571665 4.77341204 -10 4 C-9.67 2.68 -9.34 1.36 -9 0 C-5.67465243 -1.10844919 -3.37817425 -0.84454356 0 0 Z " fill="#1E1A07" transform="translate(26,30)"/>
<path d="M0 0 C0.66 0.33 1.32 0.66 2 1 C1.88637738 2.4800841 1.75877092 3.95910074 1.625 5.4375 C1.52058594 6.67306641 1.52058594 6.67306641 1.4140625 7.93359375 C1.27742188 8.61550781 1.14078125 9.29742187 1 10 C0.01 10.495 0.01 10.495 -1 11 C-2.0257259 6.58937864 -2.03684712 4.07369424 0 0 Z " fill="#3C6233" transform="translate(55,25)"/>
<path d="M0 0 C0 1.65 0 3.3 0 5 C-1.98 5.99 -1.98 5.99 -4 7 C-4.33 5.02 -4.66 3.04 -5 1 C-3 0 -3 0 0 0 Z " fill="#64C76E" transform="translate(8,15)"/>
<path d="M0 0 C1.98 0.66 3.96 1.32 6 2 C5.67 3.32 5.34 4.64 5 6 C3.68 5.67 2.36 5.34 1 5 C0.67 3.35 0.34 1.7 0 0 Z " fill="#87D167" transform="translate(15,51)"/>
<path d="M0 0 C0.598125 0.639375 1.19625 1.27875 1.8125 1.9375 C3.90810337 4.20310389 3.90810337 4.20310389 7 5 C7 5.99 7 6.98 7 8 C4.625 7.6875 4.625 7.6875 2 7 C0 4 0 4 0 0 Z " fill="#B7A02E" transform="translate(14,30)"/>
<path d="M0 0 C0.33 0 0.66 0 1 0 C1.66 3.3 2.32 6.6 3 10 C2.01 10 1.02 10 0 10 C-1.49106457 7.01787087 -1.11941467 4.28390342 -1 1 C-0.67 0.67 -0.34 0.34 0 0 Z " fill="#F88D00" transform="translate(36,44)"/>
<path d="M0 0 C0.66 0.33 1.32 0.66 2 1 C2.625 3.5625 2.625 3.5625 3 6 C1.68 6.33 0.36 6.66 -1 7 C-1.04254356 5.00045254 -1.04080783 2.99958364 -1 1 C-0.67 0.67 -0.34 0.34 0 0 Z " fill="#204B39" transform="translate(30,28)"/>
<path d="M0 0 C1.65 0 3.3 0 5 0 C4.67 1.32 4.34 2.64 4 4 C2.68 4 1.36 4 0 4 C0 2.68 0 1.36 0 0 Z " fill="#54BA6C" transform="translate(19,4)"/>
</svg>
