<?xml version="1.0" encoding="UTF-8"?>
<svg version="1.1" xmlns="http://www.w3.org/2000/svg" width="64" height="64">
<path d="M0 0 C4.71372937 2.63856166 6.99572627 6.2996788 8.6875 11.375 C9.51954515 21.19313276 5.19091124 27.05892363 -0.75 34.375 C-1.21639893 34.96369873 -1.68279785 35.55239746 -2.16333008 36.15893555 C-4.34272828 38.74179889 -5.65540064 40.25766083 -9.046875 40.86328125 C-11.3125 40.375 -11.3125 40.375 -13.125 38.5625 C-14.3125 36.375 -14.3125 36.375 -14.3125 33.375 C-15.3025 33.045 -16.2925 32.715 -17.3125 32.375 C-17.3125 31.385 -17.3125 30.395 -17.3125 29.375 C-18.3025 29.375 -19.2925 29.375 -20.3125 29.375 C-24.57263374 23.07608798 -26.48469742 18.00730762 -25.3125 10.375 C-23.51896165 5.09402596 -20.70250798 2.57604749 -16.3125 -0.625 C-10.76364437 -2.47461854 -5.3709676 -2.42397602 0 0 Z " fill="#EFAD4E" transform="translate(25.3125,23.625)"/>
<path d="M0 0 C3.23551706 2.11011982 4.85394116 3.78091174 7 7 C8.06065036 12.14676241 7.86837688 16.42040029 5.31640625 21.0625 C3.31368901 23.82588232 1.25913407 26.44281574 -1 29 C-1.47824219 29.61875 -1.95648438 30.2375 -2.44921875 30.875 C-4 32 -4 32 -6.42578125 32.015625 C-9.89749413 30.6459052 -11.07864854 28.80110424 -13.1875 25.75 C-13.86167969 24.79609375 -14.53585938 23.8421875 -15.23046875 22.859375 C-18.09836121 18.22516467 -19.67323235 14.49806422 -19 9 C-14.54116244 0.87854587 -9.22655034 -2.3606994 0 0 Z " fill="#EC5656" transform="translate(57,10)"/>
<path d="M0 0 C4.71372937 2.63856166 6.99572627 6.2996788 8.6875 11.375 C9.51954515 21.19313276 5.19091124 27.05892363 -0.75 34.375 C-1.21639893 34.96369873 -1.68279785 35.55239746 -2.16333008 36.15893555 C-4.34272828 38.74179889 -5.65540064 40.25766083 -9.046875 40.86328125 C-11.3125 40.375 -11.3125 40.375 -13.125 38.5625 C-14.3125 36.375 -14.3125 36.375 -14.3125 33.375 C-13.714375 33.684375 -13.11625 33.99375 -12.5 34.3125 C-10.22293228 35.47709704 -10.22293228 35.47709704 -7.3125 36.375 C-5.4951979 33.94095287 -3.6835511 31.50303551 -1.875 29.0625 C-1.35873047 28.37220703 -0.84246094 27.68191406 -0.31054688 26.97070312 C0.18251953 26.30361328 0.67558594 25.63652344 1.18359375 24.94921875 C1.63919678 24.33651123 2.0947998 23.72380371 2.56420898 23.0925293 C5.05046026 19.29101273 5.1290498 15.79049803 4.6875 11.375 C2.9225354 7.73521822 0.81609985 5.07656207 -2.625 2.9375 C-8.10762325 1.7899742 -11.73864966 1.55892946 -16.6875 4.125 C-19.8062665 6.79822843 -21.07055581 8.67013743 -21.6484375 12.7421875 C-21.74262722 18.78916778 -20.93139786 21.58871573 -17.3125 26.375 C-17.6425 27.365 -17.9725 28.355 -18.3125 29.375 C-18.9725 29.375 -19.6325 29.375 -20.3125 29.375 C-24.57263374 23.07608798 -26.48469742 18.00730762 -25.3125 10.375 C-23.51896165 5.09402596 -20.70250798 2.57604749 -16.3125 -0.625 C-10.76364437 -2.47461854 -5.3709676 -2.42397602 0 0 Z " fill="#080502" transform="translate(25.3125,23.625)"/>
<path d="M0 0 C3.23551706 2.11011982 4.85394116 3.78091174 7 7 C8.06065036 12.14676241 7.86837688 16.42040029 5.31640625 21.0625 C3.31368901 23.82588232 1.25913407 26.44281574 -1 29 C-1.47824219 29.61875 -1.95648438 30.2375 -2.44921875 30.875 C-4 32 -4 32 -6.42578125 32.015625 C-9.89749413 30.6459052 -11.07864854 28.80110424 -13.1875 25.75 C-13.86167969 24.79609375 -14.53585938 23.8421875 -15.23046875 22.859375 C-18.09836121 18.22516467 -19.67323235 14.49806422 -19 9 C-14.54116244 0.87854587 -9.22655034 -2.3606994 0 0 Z M-13 5 C-14.89015098 7.83522647 -16.26138883 10.15318047 -16.5390625 13.59765625 C-15.30092229 19.11545502 -10.87320147 24.0477536 -7 28 C-6.01 28 -5.02 28 -4 28 C-1.87603125 25.76201703 -1.87603125 25.76201703 0.125 22.875 C0.82882813 21.92367188 1.53265625 20.97234375 2.2578125 19.9921875 C4.09688505 16.83360101 4.76998043 14.63030888 5 11 C3.47126129 7.02527937 2.57219503 5.38146335 -1 3 C-5.67212286 2.16881709 -9.01999255 2.3466617 -13 5 Z " fill="#090303" transform="translate(57,10)"/>
<path d="M0 0 C1.91015625 0.4453125 1.91015625 0.4453125 4.47265625 2.5078125 C6.37793314 6.4012044 6.07448125 8.29740468 4.91015625 12.4453125 C1.97467238 18.10660282 1.97467238 18.10660282 -1.83984375 19.3203125 C-2.58234375 19.3615625 -3.32484375 19.4028125 -4.08984375 19.4453125 C-7.40214752 15.64996443 -9.8722422 12.7509218 -10.71484375 7.6953125 C-10.08984375 4.4453125 -10.08984375 4.4453125 -8.58984375 2.0078125 C-5.55947306 0.11383082 -3.53153441 -0.19802997 0 0 Z " fill="#060708" transform="translate(31.08984375,-0.4453125)"/>
<path d="M0 0 C1.9375 1.0625 1.9375 1.0625 3 3 C3.63636364 8.93939394 3.63636364 8.93939394 1.875 11.875 C-0.88622381 13.53173428 -2.76578825 14 -6 14 C-9.08863075 11.71709901 -10.72891863 10.23492622 -11.5625 6.4375 C-10.09828976 0.09258896 -5.95457584 -0.75785511 0 0 Z " fill="#090606" transform="translate(55,16)"/>
<path d="M0 0 C2.4375 1.5625 2.4375 1.5625 4 4 C4 7.82389746 3.85254277 10.05611336 1.25 12.9375 C-1.49491218 14.23370853 -3.00074212 14.52487013 -6 14 C-8.3125 12.375 -8.3125 12.375 -10 10 C-10.61195145 6.3282913 -10.48706506 4.71186432 -8.375 1.625 C-5.28813568 -0.48706506 -3.6717087 -0.61195145 0 0 Z " fill="#F4F4F4" transform="translate(20,32)"/>
<path d="M0 0 C2.9838283 1.98921886 4.60276841 3.38502568 5.4765625 6.9375 C5.75608948 10.82145378 5.2079849 12.67795887 3.0625 16 C-0.49540974 18.32353289 -2.65265527 18.79544168 -6.83984375 18.55078125 C-9.30095619 17.92326434 -10.34709173 17.22724996 -12.0625 15.375 C-14.17027232 11.70339661 -14.79149224 10.13334836 -14 6 C-10.24483925 0.36725887 -6.74599262 -1.10928368 0 0 Z M-9.375 3.625 C-11.48706506 6.71186432 -11.61195145 8.3282913 -11 12 C-9.58333333 14.58333333 -9.58333333 14.58333333 -7 16 C-3.17610254 16 -0.94388664 15.85254277 1.9375 13.25 C3.23370853 10.50508782 3.52487013 8.99925788 3 6 C1.47981752 3.56304526 1.47981752 3.56304526 -1 2 C-4.6717087 1.38804855 -6.28813568 1.51293494 -9.375 3.625 Z " fill="#16120D" transform="translate(21,30)"/>
<path d="M0 0 C3 0.25 3 0.25 5 2.25 C5.58654327 5.8670168 5.15792086 7.02792378 3 10.0625 C2.34 10.784375 1.68 11.50625 1 12.25 C-2.16115776 10.88016497 -2.9927092 10.2609362 -5 7.25 C-5.25 4.6875 -5.25 4.6875 -5 2.25 C-3 0.25 -3 0.25 0 0 Z " fill="#BFE7F2" transform="translate(29,2.75)"/>
<path d="M0 0 C2.5 0.25 2.5 0.25 4.5 2.25 C4.75 4.75 4.75 4.75 4.5 7.25 C2.5 9.25 2.5 9.25 0 9.5 C-2.5 9.25 -2.5 9.25 -4.5 7.25 C-4.75 4.75 -4.75 4.75 -4.5 2.25 C-2.5 0.25 -2.5 0.25 0 0 Z " fill="#F4F4F4" transform="translate(51.5,17.75)"/>
<path d="M0 0 C3 2.125 3 2.125 5 5 C5.3125 8.3125 5.3125 8.3125 5 11 C4.34 11 3.68 11 3 11 C2.71125 10.05125 2.4225 9.1025 2.125 8.125 C1.23174891 4.94788422 1.23174891 4.94788422 -1 3 C-4.39597063 2.78323592 -6.75778445 2.91926148 -10 4 C-11.22969878 7.51190809 -11.22969878 7.51190809 -12 11 C-12.33 11 -12.66 11 -13 11 C-13.60247445 4.73426573 -13.60247445 4.73426573 -11 1.5625 C-7.17187947 -0.43131278 -4.22850379 -0.98039906 0 0 Z " fill="#100C07" transform="translate(21,30)"/>
<path d="M0 0 C3 2 3 2 3.9375 4 C5.24187242 6.45528927 6.46627297 6.98650919 9 8 C9 8.66 9 9.32 9 10 C3.55263158 9.51578947 3.55263158 9.51578947 1.125 7.25 C-0.18152386 4.63695229 -0.24038873 2.88466476 0 0 Z " fill="#331919" transform="translate(44,20)"/>
<path d="M0 0 C3 2 3 2 3.6875 5.125 C3.8421875 6.548125 3.8421875 6.548125 4 8 C4.99 8.33 5.98 8.66 7 9 C6.67 9.99 6.34 10.98 6 12 C1.125 8.25 1.125 8.25 0 6 C-0.039992 4.00039988 -0.04346799 1.99952758 0 0 Z " fill="#322819" transform="translate(7,36)"/>
<path d="M0 0 C3.1875 0.875 3.1875 0.875 6 2 C6 2.33 6 2.66 6 3 C3.69 3.33 1.38 3.66 -1 4 C-1.33 4.99 -1.66 5.98 -2 7 C-2.99 7 -3.98 7 -5 7 C-3.75023244 3.34683329 -3.32901247 2.21934164 0 0 Z " fill="#DA4F4F" transform="translate(47,13)"/>
<path d="M0 0 C0.99 0.33 1.98 0.66 3 1 C2.67 1.66 2.34 2.32 2 3 C1.34 3 0.68 3 0 3 C-0.66 5.31 -1.32 7.62 -2 10 C-2.33 10 -2.66 10 -3 10 C-3.36923077 3.47692308 -3.36923077 3.47692308 -1.5 1.0625 C-1.005 0.711875 -0.51 0.36125 0 0 Z " fill="#15120E" transform="translate(11,31)"/>
<path d="M0 0 C2.64 0 5.28 0 8 0 C8.33 0.99 8.66 1.98 9 3 C6.03 2.67 3.06 2.34 0 2 C0 1.34 0 0.68 0 0 Z " fill="#050402" transform="translate(13,30)"/>
<path d="M0 0 C0.99 0.33 1.98 0.66 3 1 C3 1.99 3 2.98 3 4 C1.68 4 0.36 4 -1 4 C-0.67 2.68 -0.34 1.36 0 0 Z " fill="#000000" transform="translate(39,46)"/>
<path d="M0 0 C0.99 0.33 1.98 0.66 3 1 C2.67 1.99 2.34 2.98 2 4 C1.01 4 0.02 4 -1 4 C-0.67 2.68 -0.34 1.36 0 0 Z " fill="#000000" transform="translate(30,52)"/>
<path d="M0 0 C0.99 0.33 1.98 0.66 3 1 C2.67 1.99 2.34 2.98 2 4 C1.01 4 0.02 4 -1 4 C-0.67 2.68 -0.34 1.36 0 0 Z " fill="#000000" transform="translate(44,43)"/>
<path d="M0 0 C0.99 0.33 1.98 0.66 3 1 C3 1.99 3 2.98 3 4 C1.68 3.67 0.36 3.34 -1 3 C-0.67 2.01 -0.34 1.02 0 0 Z " fill="#000000" transform="translate(32,20)"/>
<path d="M0 0 C0.66 0 1.32 0 2 0 C2 1.32 2 2.64 2 4 C0.68 3.67 -0.64 3.34 -2 3 C-1.34 2.01 -0.68 1.02 0 0 Z " fill="#000000" transform="translate(35,49)"/>
<path d="M0 0 C0.66 0.33 1.32 0.66 2 1 C2 1.99 2 2.98 2 4 C1.01 4 0.02 4 -1 4 C-0.67 2.68 -0.34 1.36 0 0 Z " fill="#000000" transform="translate(36,24)"/>
</svg>
