<?xml version="1.0" encoding="UTF-8"?>
<svg version="1.1" xmlns="http://www.w3.org/2000/svg" width="64" height="64">
<path d="M0 0 C1.74506615 1.74506615 1.23282784 4.19039143 1.31640625 6.56640625 C1.35830078 7.69111328 1.40019531 8.81582031 1.44335938 9.97460938 C1.48267578 11.15861328 1.52199219 12.34261719 1.5625 13.5625 C1.60568359 14.75037109 1.64886719 15.93824219 1.69335938 17.16210938 C1.79983546 20.10794784 1.90184841 23.0538743 2 26 C2.63808594 26.13277344 3.27617188 26.26554687 3.93359375 26.40234375 C4.75988281 26.57894531 5.58617187 26.75554688 6.4375 26.9375 C7.26121094 27.11152344 8.08492187 27.28554688 8.93359375 27.46484375 C11 28 11 28 12 29 C12.08748207 30.92667507 12.10697334 32.85651861 12.09765625 34.78515625 C12.09282227 36.53989258 12.09282227 36.53989258 12.08789062 38.33007812 C12.07532227 40.17762695 12.07532227 40.17762695 12.0625 42.0625 C12.05798828 43.29806641 12.05347656 44.53363281 12.04882812 45.80664062 C12.03699608 48.87114117 12.02051173 51.93554721 12 55 C3.28077471 58.33947243 3.28077471 58.33947243 -0.4375 59.1875 C-1.09621094 59.34605469 -1.75492188 59.50460938 -2.43359375 59.66796875 C-9.55932644 60.5898672 -16.01585332 59.83136193 -22.9375 58.06640625 C-23.74364746 57.86901352 -24.54979492 57.67162079 -25.38037109 57.46824646 C-27.06549524 57.05360291 -28.7494155 56.63403773 -30.43212891 56.2097168 C-33.01855282 55.55782387 -35.60839178 54.9212535 -38.19921875 54.28710938 C-39.84136229 53.88108279 -41.48329754 53.47421261 -43.125 53.06640625 C-43.90093506 52.87470352 -44.67687012 52.68300079 -45.47631836 52.48548889 C-50.88286545 51.11713455 -50.88286545 51.11713455 -52 50 C-52.08748207 48.07332493 -52.10697334 46.14348139 -52.09765625 44.21484375 C-52.09443359 43.04501953 -52.09121094 41.87519531 -52.08789062 40.66992188 C-52.07951172 39.43822266 -52.07113281 38.20652344 -52.0625 36.9375 C-52.05798828 35.70193359 -52.05347656 34.46636719 -52.04882812 33.19335938 C-52.03699608 30.12885883 -52.02051173 27.06445279 -52 24 C-49.03 23.01 -46.06 22.02 -43 21 C-42.67 14.4 -42.34 7.8 -42 1 C-25.81290325 -4.39569892 -16.15857201 -4.78986242 0 0 Z " fill="#DB7928" transform="translate(52,4)"/>
<path d="M0 0 C0.495 12.375 0.495 12.375 1 25 C5.455 25.99 5.455 25.99 10 27 C11 28 11 28 11.11352539 30.50024414 C11.10828857 31.58426514 11.10305176 32.66828613 11.09765625 33.78515625 C11.09443359 34.95498047 11.09121094 36.12480469 11.08789062 37.33007812 C11.07532227 39.17762695 11.07532227 39.17762695 11.0625 41.0625 C11.05798828 42.29806641 11.05347656 43.53363281 11.04882812 44.80664062 C11.03699608 47.87114117 11.02051173 50.93554721 11 54 C2.28077471 57.33947243 2.28077471 57.33947243 -1.4375 58.1875 C-2.09621094 58.34605469 -2.75492188 58.50460938 -3.43359375 58.66796875 C-10.58288926 59.59291566 -17.03364911 58.8218906 -23.97265625 57.03125 C-24.78117538 56.8314856 -25.58969452 56.63172119 -26.42271423 56.42590332 C-28.97186698 55.79371134 -31.51710734 55.147146 -34.0625 54.5 C-35.80379695 54.06544539 -37.54533176 53.63184276 -39.28710938 53.19921875 C-43.52756621 52.14378685 -47.76458049 51.07546031 -52 50 C-52 49.34 -52 48.68 -52 48 C-48.7 48 -45.4 48 -42 48 C-42 46.35 -42 44.7 -42 43 C-41.67 43 -41.34 43 -41 43 C-40.34 45.31 -39.68 47.62 -39 50 C-37.79601562 50.20496094 -36.59203125 50.40992188 -35.3515625 50.62109375 C-33.77601308 50.89306359 -32.20049379 51.16520807 -30.625 51.4375 C-29.8309375 51.57220703 -29.036875 51.70691406 -28.21875 51.84570312 C-22.2265625 52.88671875 -22.2265625 52.88671875 -20 54 C-20 52.02 -20 50.04 -20 48 C-20.62648438 47.86722656 -21.25296875 47.73445313 -21.8984375 47.59765625 C-22.71570313 47.42105469 -23.53296875 47.24445312 -24.375 47.0625 C-25.18710937 46.88847656 -25.99921875 46.71445312 -26.8359375 46.53515625 C-29 46 -29 46 -31 45 C-31.37890625 43.14453125 -31.37890625 43.14453125 -31.5625 40.8125 C-31.68818359 39.59433594 -31.68818359 39.59433594 -31.81640625 38.3515625 C-32 36 -32 36 -32 32.6875 C-32.73190584 29.87037104 -32.73190584 29.87037104 -35.06640625 28.74609375 C-37.35154675 27.71974739 -39.63149785 26.81342498 -42 26 C-42 25.67 -42 25.34 -42 25 C-40.27119018 24.94550162 -38.54187288 24.90698312 -36.8125 24.875 C-35.36810547 24.84019531 -35.36810547 24.84019531 -33.89453125 24.8046875 C-30.87187222 25.0086456 -28.73230015 25.73125368 -26 27 C-23.9754262 25.06745228 -22.57894208 23.36841312 -21 21 C-20.67 22.65 -20.34 24.3 -20 26 C-19.505 24.515 -19.505 24.515 -19 23 C-15.04 22.505 -15.04 22.505 -11 22 C-11.33 22.66 -11.66 23.32 -12 24 C-12.66 24 -13.32 24 -14 24 C-14 24.66 -14 25.32 -14 26 C-12.51800098 25.55090939 -11.03944764 25.09043436 -9.5625 24.625 C-8.73878906 24.36976562 -7.91507813 24.11453125 -7.06640625 23.8515625 C-4.82201984 23.19117773 -4.82201984 23.19117773 -4 21 C-4.08858803 19.22538167 -4.24390561 17.45375006 -4.4375 15.6875 C-4.74311649 12.85184316 -5.00122967 10.12279159 -4.97265625 7.26953125 C-4.83531662 4.96569535 -4.83531662 4.96569535 -6 3 C-4.60722783 0.21445565 -3.01148006 0 0 0 Z " fill="#D6722C" transform="translate(53,5)"/>
<path d="M0 0 C0.33 1.32 0.66 2.64 1 4 C3.96893342 6.13665513 3.96893342 6.13665513 7.5625 7.375 C11 9 11 9 12.20703125 10.7109375 C13.22650133 13.65384128 13.19255377 16.1425265 13.125 19.25 C13.10695313 20.32765625 13.08890625 21.4053125 13.0703125 22.515625 C13.04710938 23.33546875 13.02390625 24.1553125 13 25 C18.445 26.485 18.445 26.485 24 28 C24 29.98 24 31.96 24 34 C20.89274981 33.5828084 17.79011516 33.13777123 14.6875 32.6875 C13.80642578 32.56955078 12.92535156 32.45160156 12.01757812 32.33007812 C11.17001953 32.20439453 10.32246094 32.07871094 9.44921875 31.94921875 C8.66893311 31.83924561 7.88864746 31.72927246 7.0847168 31.6159668 C5 31 5 31 2 28 C-1.63 28.33 -5.26 28.66 -9 29 C-9 20.42 -9 11.84 -9 3 C-6.03 2.01 -3.06 1.02 0 0 Z " fill="#DD7E25" transform="translate(9,25)"/>
<path d="M0 0 C7.8246759 0.67454103 15.34556614 2.26876958 23 4 C22.01 4.495 22.01 4.495 21 5 C21.33 5.66 21.66 6.32 22 7 C22.35323811 19.97766083 22.35323811 19.97766083 19.59375 24.1015625 C17.9375 25.4375 17.9375 25.4375 15 27 C13.5 25.8125 13.5 25.8125 12 24 C11.8125 21.3125 11.8125 21.3125 12 19 C11.37351562 18.86722656 10.74703125 18.73445313 10.1015625 18.59765625 C9.28429688 18.42105469 8.46703125 18.24445312 7.625 18.0625 C6.40683594 17.80146484 6.40683594 17.80146484 5.1640625 17.53515625 C3 17 3 17 1 16 C-0.18205463 10.80342022 -0.11286 5.30441982 0 0 Z " fill="#D57529" transform="translate(21,34)"/>
<path d="M0 0 C0 8.58 0 17.16 0 26 C-9.19402985 29.44776119 -9.19402985 29.44776119 -12.4375 30.1875 C-13.09621094 30.34605469 -13.75492188 30.50460938 -14.43359375 30.66796875 C-21.58288926 31.59291566 -28.03364911 30.8218906 -34.97265625 29.03125 C-35.78117538 28.8314856 -36.58969452 28.63172119 -37.42271423 28.42590332 C-39.97186698 27.79371134 -42.51710734 27.147146 -45.0625 26.5 C-46.80379695 26.06544539 -48.54533176 25.63184276 -50.28710938 25.19921875 C-54.52756621 24.14378685 -58.76458049 23.07546031 -63 22 C-63 21.34 -63 20.68 -63 20 C-59.7 20 -56.4 20 -53 20 C-53 18.35 -53 16.7 -53 15 C-52.67 15 -52.34 15 -52 15 C-51.34 17.31 -50.68 19.62 -50 22 C-49.44538086 22.08040527 -48.89076172 22.16081055 -48.31933594 22.24365234 C-45.79512602 22.61367977 -43.27261061 22.99422859 -40.75 23.375 C-39.44095703 23.56449219 -39.44095703 23.56449219 -38.10546875 23.7578125 C-36.83896484 23.95117188 -36.83896484 23.95117188 -35.546875 24.1484375 C-34.77182617 24.26364746 -33.99677734 24.37885742 -33.19824219 24.49755859 C-30.89091581 25.02493284 -29.06586626 25.86006981 -27 27 C-23.7457985 24.16569547 -22.4793247 22.31392226 -22 18 C-21.67 18 -21.34 18 -21 18 C-21 20.97 -21 23.94 -21 27 C-20.01 27 -19.02 27 -18 27 C-17.67 25.68 -17.34 24.36 -17 23 C-15.02 22.67 -13.04 22.34 -11 22 C-11 22.66 -11 23.32 -11 24 C-8.69 23.67 -6.38 23.34 -4 23 C-4.01160156 22.24976562 -4.02320313 21.49953125 -4.03515625 20.7265625 C-4.16293156 6.233192 -4.16293156 6.233192 -3 1 C-1 0 -1 0 0 0 Z " fill="#B55834" transform="translate(64,33)"/>
<path d="M0 0 C0.08676908 4.12486838 0.14031295 8.24950384 0.1875 12.375 C0.21263672 13.550625 0.23777344 14.72625 0.26367188 15.9375 C0.27333984 17.05898438 0.28300781 18.18046875 0.29296875 19.3359375 C0.3086792 20.37282715 0.32438965 21.4097168 0.34057617 22.47802734 C0.17199097 23.72640381 0.17199097 23.72640381 0 25 C-8.21169761 30.47446507 -20.51478993 31.77496221 -30.10546875 30.62890625 C-34.39263791 29.69741606 -38.17368965 28.12572797 -42 26 C-42 25.67 -42 25.34 -42 25 C-40.27119018 24.94550162 -38.54187288 24.90698312 -36.8125 24.875 C-35.36810547 24.84019531 -35.36810547 24.84019531 -33.89453125 24.8046875 C-30.87187222 25.0086456 -28.73230015 25.73125368 -26 27 C-23.9754262 25.06745228 -22.57894208 23.36841312 -21 21 C-20.67 22.65 -20.34 24.3 -20 26 C-19.67 25.01 -19.34 24.02 -19 23 C-15.04 22.505 -15.04 22.505 -11 22 C-11.33 22.66 -11.66 23.32 -12 24 C-12.66 24 -13.32 24 -14 24 C-14 24.66 -14 25.32 -14 26 C-12.51800098 25.55090939 -11.03944764 25.09043436 -9.5625 24.625 C-8.73878906 24.36976562 -7.91507813 24.11453125 -7.06640625 23.8515625 C-4.82201984 23.19117773 -4.82201984 23.19117773 -4 21 C-4.08858803 19.22538167 -4.24390561 17.45375006 -4.4375 15.6875 C-4.74311649 12.85184316 -5.00122967 10.12279159 -4.97265625 7.26953125 C-4.83531662 4.96569535 -4.83531662 4.96569535 -6 3 C-4.60722783 0.21445565 -3.01148006 0 0 0 Z " fill="#B45532" transform="translate(53,5)"/>
<path d="M0 0 C-2.72039409 2.72039409 -5.06490287 2.84801128 -8.8125 3.625 C-10.03582031 3.88539063 -11.25914063 4.14578125 -12.51953125 4.4140625 C-15.4477228 4.90702404 -18.04514312 5.12382257 -21 5 C-21 6.65 -21 8.3 -21 10 C-21.99 10 -22.98 10 -24 10 C-24 8.35 -24 6.7 -24 5 C-22.02 4.34 -20.04 3.68 -18 3 C-20.97 3.66 -23.94 4.32 -27 5 C-27 4.34 -27 3.68 -27 3 C-27.66 2.67 -28.32 2.34 -29 2 C-19.15253297 -1.44661346 -10.04131628 -4.11951437 0 0 Z " fill="#F69E17" transform="translate(42,2)"/>
<path d="M0 0 C0.33 0 0.66 0 1 0 C1.66 2.31 2.32 4.62 3 7 C3.84763916 7.12060791 3.84763916 7.12060791 4.71240234 7.24365234 C7.26792602 7.61218188 9.82139284 7.99342652 12.375 8.375 C13.70917969 8.56449219 13.70917969 8.56449219 15.0703125 8.7578125 C15.92109375 8.88671875 16.771875 9.015625 17.6484375 9.1484375 C18.82672119 9.32125244 18.82672119 9.32125244 20.02880859 9.49755859 C22 10 22 10 24 12 C16.01671729 13.48152118 9.72117261 12.11508995 1.9375 10.0625 C0.78572266 9.77181641 -0.36605469 9.48113281 -1.55273438 9.18164062 C-4.37226224 8.46798419 -7.18743929 7.74055058 -10 7 C-10 6.34 -10 5.68 -10 5 C-6.7 5 -3.4 5 0 5 C0 3.35 0 1.7 0 0 Z " fill="#BC5E30" transform="translate(11,48)"/>
<path d="M0 0 C0.33 0 0.66 0 1 0 C1 8.58 1 17.16 1 26 C-2.76687864 27.88343932 -4.02958963 28.22057835 -8 28 C-5.8614515 25.8614515 -4.86724686 25.57344937 -2 25 C-1.96241577 23.91730835 -1.96241577 23.91730835 -1.92407227 22.81274414 C-1.80848698 19.562465 -1.68559226 16.31250312 -1.5625 13.0625 C-1.52318359 11.92619141 -1.48386719 10.78988281 -1.44335938 9.61914062 C-1.40146484 8.53955078 -1.35957031 7.45996094 -1.31640625 6.34765625 C-1.27974854 5.34742432 -1.24309082 4.34719238 -1.20532227 3.31665039 C-1 1 -1 1 0 0 Z " fill="#A74D31" transform="translate(63,33)"/>
<path d="M0 0 C1.47968324 0.14049518 2.95874516 0.28754826 4.4375 0.4375 C5.67306641 0.55931641 5.67306641 0.55931641 6.93359375 0.68359375 C9 1 9 1 10 2 C10 3.65 10 5.3 10 7 C6.7 6.67 3.4 6.34 0 6 C0 4.02 0 2.04 0 0 Z " fill="#E9E6EF" transform="translate(12,23)"/>
<path d="M0 0 C4.95 0.99 4.95 0.99 10 2 C10 3.98 10 5.96 10 8 C6.7 7.34 3.4 6.68 0 6 C0 4.02 0 2.04 0 0 Z " fill="#DFD1DE" transform="translate(23,51)"/>
<path d="M0 0 C7.875 0.875 7.875 0.875 9 2 C9.04063832 3.66617115 9.042721 5.33388095 9 7 C6.03 6.67 3.06 6.34 0 6 C0 4.02 0 2.04 0 0 Z " fill="#E2D9E7" transform="translate(2,46)"/>
<path d="M0 0 C0.66 0 1.32 0 2 0 C2 8.25 2 16.5 2 25 C1.01 25.33 0.02 25.66 -1 26 C-0.67 17.42 -0.34 8.84 0 0 Z " fill="#A74D31" transform="translate(51,5)"/>
<path d="M0 0 C0.33 0 0.66 0 1 0 C1.33 1.65 1.66 3.3 2 5 C2.33 4.01 2.66 3.02 3 2 C5.64 1.67 8.28 1.34 11 1 C10.67 1.66 10.34 2.32 10 3 C9.34 3 8.68 3 8 3 C8 3.66 8 4.32 8 5 C9.98 4.67 11.96 4.34 14 4 C9.52281208 6.98479194 5.36175907 8 0 8 C0 5.36 0 2.72 0 0 Z " fill="#C35F32" transform="translate(31,26)"/>
<path d="M0 0 C6.54382022 -0.1258427 6.54382022 -0.1258427 8.8125 0.5 C11.81722279 1.18679378 14.67251719 1.09327483 17.75 1.0625 C18.92046875 1.05347656 20.0909375 1.04445312 21.296875 1.03515625 C22.18890625 1.02355469 23.0809375 1.01195312 24 1 C21.00510285 3.99489715 17.93536688 4.15988269 13.8125 4.25 C8.82562662 4.21686463 4.59970028 2.82683132 0 1 C0 0.67 0 0.34 0 0 Z " fill="#A44D30" transform="translate(29,60)"/>
<path d="M0 0 C1.63001953 0.01353516 1.63001953 0.01353516 3.29296875 0.02734375 C4.12441406 0.03894531 4.95585938 0.05054688 5.8125 0.0625 C5.1525 1.3825 4.4925 2.7025 3.8125 4.0625 C-0.70367599 4.13904536 -4.77835217 4.16478696 -9.1875 3.0625 C-9.1875 2.4025 -9.1875 1.7425 -9.1875 1.0625 C-5.90230525 -0.03256492 -3.45086585 -0.03710608 0 0 Z " fill="#C96A31" transform="translate(42.1875,33.9375)"/>
<path d="M0 0 C0.99 0.66 1.98 1.32 3 2 C0.43923903 2.67404284 -2.12326583 3.339414 -4.6875 4 C-5.40873047 4.19078125 -6.12996094 4.3815625 -6.87304688 4.578125 C-10.66850961 5.54865428 -14.04615439 6.24955239 -18 6 C-18 7.65 -18 9.3 -18 11 C-18.99 11 -19.98 11 -21 11 C-21 9.35 -21 7.7 -21 6 C-19.98679687 5.73445312 -18.97359375 5.46890625 -17.9296875 5.1953125 C-16.57809823 4.83864311 -15.22653722 4.48186657 -13.875 4.125 C-13.20984375 3.95097656 -12.5446875 3.77695313 -11.859375 3.59765625 C-11.20195312 3.42363281 -10.54453125 3.24960938 -9.8671875 3.0703125 C-9.21459961 2.89790039 -8.56201172 2.72548828 -7.88964844 2.54785156 C-6.12907117 2.03742063 -4.40849307 1.39424914 -2.6953125 0.7421875 C-1.80585937 0.49726563 -0.91640625 0.25234375 0 0 Z " fill="#F9D251" transform="translate(39,1)"/>
<path d="M0 0 C0 0.33 0 0.66 0 1 C-17.85649203 3.29612756 -17.85649203 3.29612756 -26 3 C-17.48941907 -1.59813377 -9.24265354 -2.84232045 0 0 Z " fill="#EE9520" transform="translate(52,4)"/>
<path d="M0 0 C0.33 0 0.66 0 1 0 C1.33 2.31 1.66 4.62 2 7 C-6.57142857 8.28571429 -6.57142857 8.28571429 -10 7 C-10 6.34 -10 5.68 -10 5 C-6.7 5 -3.4 5 0 5 C0 3.35 0 1.7 0 0 Z " fill="#BA6545" transform="translate(11,48)"/>
<path d="M0 0 C4.29 0.33 8.58 0.66 13 1 C13 1.99 13 2.98 13 4 C8.28596212 3.52060632 4.33420699 3.03165952 0 1 C0 0.67 0 0.34 0 0 Z " fill="#A34D30" transform="translate(8,55)"/>
<path d="M0 0 C1.32 0 2.64 0 4 0 C4 2.31 4 4.62 4 7 C2.68 7 1.36 7 0 7 C0 4.69 0 2.38 0 0 Z " fill="#F9C438" transform="translate(29,36)"/>
<path d="M0 0 C1.32 0.33 2.64 0.66 4 1 C4 2.98 4 4.96 4 7 C2.68 7 1.36 7 0 7 C0 4.69 0 2.38 0 0 Z " fill="#F9C83C" transform="translate(7,30)"/>
<path d="M0 0 C1.79133978 -0.05391993 3.58313899 -0.09275571 5.375 -0.125 C6.37273438 -0.14820312 7.37046875 -0.17140625 8.3984375 -0.1953125 C11 0 11 0 13 2 C8.77749945 3.60455021 6.84517642 4.33807057 2.5625 2.625 C1.716875 2.08875 0.87125 1.5525 0 1 C0 0.67 0 0.34 0 0 Z " fill="#B95B32" transform="translate(11,30)"/>
<path d="M0 0 C0.33 0 0.66 0 1 0 C1 1.65 1 3.3 1 5 C1.99 5 2.98 5 4 5 C4 3.35 4 1.7 4 0 C4.66 0 5.32 0 6 0 C5.67 2.64 5.34 5.28 5 8 C3.35 7.67 1.7 7.34 0 7 C0 4.69 0 2.38 0 0 Z " fill="#F7AD25" transform="translate(17,7)"/>
<path d="M0 0 C0.99 0.33 1.98 0.66 3 1 C3 2.65 3 4.3 3 6 C-0.3 5.67 -3.6 5.34 -7 5 C-7 4.67 -7 4.34 -7 4 C-3.535 3.505 -3.535 3.505 0 3 C0 2.01 0 1.02 0 0 Z " fill="#CFB0C2" transform="translate(19,24)"/>
<path d="M0 0 C0.33 1.32 0.66 2.64 1 4 C-0.98 4.33 -2.96 4.66 -5 5 C-5.33 4.01 -5.66 3.02 -6 2 C-4.02 1.34 -2.04 0.68 0 0 Z " fill="#FBA113" transform="translate(9,25)"/>
<path d="M0 0 C-0.99 0.33 -1.98 0.66 -3 1 C-3 1.66 -3 2.32 -3 3 C-4.32 3 -5.64 3 -7 3 C-7 2.01 -7 1.02 -7 0 C-3.86650268 -1.04449911 -3.01031744 -0.93423645 0 0 Z " fill="#925B3D" transform="translate(42,28)"/>
</svg>
