<?xml version="1.0" encoding="UTF-8"?>
<svg version="1.1" xmlns="http://www.w3.org/2000/svg" width="512" height="512">
<path d="M0 0 C3.15264567 -0.00217824 6.3049358 -0.02036851 9.45751953 -0.03930664 C53.99810311 -0.16463039 53.99810311 -0.16463039 71.24267578 15.31030273 C84.01647186 28.88431341 84.00709148 47.98042555 83.89575195 65.42138672 C83.89490371 67.30534858 83.89538467 69.18931142 83.89707947 71.07327271 C83.89793314 76.14049367 83.8804102 81.20749753 83.8593576 86.27466846 C83.84048499 91.58772831 83.83883207 96.90079424 83.83528137 102.21388245 C83.8259918 112.25385714 83.80142019 122.29373275 83.7712329 132.333664 C83.73759229 143.77271613 83.72117868 155.21177322 83.7061466 166.65086257 C83.6748676 190.16239736 83.62216773 213.67384447 83.55517578 237.18530273 C84.79449765 236.86081839 86.03381952 236.53633404 87.3106966 236.20201683 C91.41200402 235.12819566 95.37400437 234.8892936 99.60083008 234.89477539 C100.36140213 234.88805817 101.12197418 234.88134094 101.90559387 234.87442017 C104.39692897 234.85556808 106.88799272 234.85152214 109.37939453 234.84936523 C111.13043829 234.84292714 112.881481 234.83619805 114.63252258 234.82919312 C118.29646291 234.81725132 121.96030918 234.81350896 125.62426758 234.81469727 C130.28638121 234.81489998 134.94788204 234.78763326 139.60985088 234.75315285 C143.2261677 234.7307547 146.84234022 234.72686369 150.45871925 234.72791672 C152.17567869 234.72557878 153.89264322 234.71685896 155.60953331 234.70125198 C171.68860145 234.56879818 185.30905976 237.11378555 197.77001953 248.14624023 C206.29462052 256.94899519 211.68550263 268.31687625 211.6754303 280.595047 C211.67749229 282.53640533 211.67749229 282.53640533 211.67959595 284.51698303 C211.67605724 285.94393944 211.67242244 287.37089562 211.66870117 288.79785156 C211.66841899 290.30595905 211.66857764 291.81406667 211.66914368 293.32217407 C211.66943043 297.41060263 211.66355334 301.49900182 211.65656972 305.58742356 C211.65031595 309.8622105 211.64973078 314.13699813 211.64854431 318.41178894 C211.64543697 326.50417744 211.63723161 334.59655243 211.62719482 342.68893498 C211.61601517 351.90290037 211.61051856 361.11686641 211.60549939 370.33083689 C211.59504851 389.28233317 211.57746061 408.23381686 211.55517578 427.18530273 C212.5705542 427.15702393 212.5705542 427.15702393 213.60644531 427.12817383 C214.49960449 427.11351074 215.39276367 427.09884766 216.31298828 427.08374023 C217.6377417 427.05546143 217.6377417 427.05546143 218.98925781 427.02661133 C224.30013797 427.35506728 227.43635529 429.91926902 230.93017578 433.87280273 C233.66340485 439.44438507 234.21965468 443.97037306 232.43017578 449.93530273 C229.41500016 455.16160715 226.33448822 458.3679099 220.55517578 460.18530273 C217.1658293 460.43715173 217.1658293 460.43715173 213.19716835 460.43977833 C212.4624305 460.44298481 211.72769265 460.44619128 210.97069001 460.44949493 C208.50126517 460.45781618 206.03208153 460.45186325 203.56265259 460.44599915 C201.77728597 460.44901886 199.99192065 460.45290744 198.20655763 460.45759171 C193.29446501 460.46790367 188.38244512 460.46568176 183.47034645 460.46141112 C178.17508271 460.45894968 172.87983675 460.46795081 167.58457947 460.47544861 C157.20821254 460.48821394 146.83187146 460.48998701 136.455498 460.48764835 C128.02317915 460.48586705 119.59086817 460.48761078 111.15855026 460.49187279 C109.3600009 460.49276557 109.3600009 460.49276557 107.52511721 460.49367639 C105.089464 460.49488811 102.65381079 460.49610225 100.21815757 460.49731877 C77.36377531 460.50820141 54.50940779 460.50602841 31.65502469 460.49993392 C10.73760658 460.4947643 -10.17976496 460.50602014 -31.09717385 460.52503214 C-52.56421594 460.54439445 -74.03123597 460.55266935 -95.49828684 460.54890889 C-107.55477532 460.54699438 -119.61122417 460.54950868 -131.66770554 460.56362343 C-141.93162481 460.57551774 -152.19548004 460.57696406 -162.45940016 460.56483326 C-167.69768301 460.55893083 -172.93584862 460.55788277 -178.17412376 460.56983566 C-182.96819484 460.58064796 -187.76205015 460.57764675 -192.55611093 460.56357398 C-194.29160605 460.56091418 -196.02711783 460.56333361 -197.76259665 460.57130984 C-200.12037038 460.58139505 -202.47739106 460.5730122 -204.83513451 460.56003284 C-206.14511732 460.56008786 -207.45510014 460.56014288 -208.80477941 460.56019956 C-215.44943012 459.87585127 -220.11061124 457.38635831 -224.44482422 452.18530273 C-226.66686173 448.16447295 -226.907449 444.73444639 -226.44482422 440.18530273 C-224.61805285 434.91235188 -222.21961598 431.24606668 -217.44482422 428.18530273 C-214.42991865 427.18033421 -212.4030073 427.08194971 -209.25732422 427.12280273 C-208.35626953 427.13182617 -207.45521484 427.14084961 -206.52685547 427.15014648 C-205.49625 427.16754883 -205.49625 427.16754883 -204.44482422 427.18530273 C-204.4463431 426.63970727 -204.44786198 426.0941118 -204.44942689 425.53198314 C-204.53902222 393.16490842 -204.60761233 360.79786664 -204.64908554 328.43069641 C-204.65408811 324.54063008 -204.65926542 320.650564 -204.66455078 316.76049805 C-204.66560002 315.98608593 -204.66664926 315.21167382 -204.6677303 314.41379467 C-204.6851153 301.88973403 -204.71664244 289.36574715 -204.7534354 276.84173021 C-204.79089794 263.98213575 -204.81307128 251.1225798 -204.8211782 238.26293302 C-204.82665498 230.333693 -204.84392604 222.40466151 -204.87649009 214.47548571 C-204.90021861 208.38593846 -204.9026307 202.29656897 -204.89725494 196.20697021 C-204.89835257 193.71575897 -204.90627159 191.2245396 -204.92164612 188.73337555 C-205.02161102 171.69572181 -204.67487815 158.86976021 -193.44482422 145.18530273 C-192.87119141 144.4750293 -192.29755859 143.76475586 -191.70654297 143.03295898 C-183.88169904 134.30331512 -172.89592142 129.69235197 -161.44482422 128.18530273 C-155.83942441 127.90091533 -150.24372569 127.90308982 -144.63232422 127.91967773 C-143.01147402 127.91832732 -141.39062422 127.91638366 -139.76977539 127.91387939 C-136.38765573 127.91094584 -133.00564237 127.91516842 -129.62353516 127.92456055 C-125.31334469 127.93595402 -121.0034034 127.92938501 -116.69322205 127.91741562 C-113.35068931 127.91014898 -110.00821453 127.91250688 -106.66567993 127.9176712 C-105.07744313 127.91899445 -103.48920087 127.91740708 -101.90097046 127.9127121 C-93.56836295 127.89347875 -85.55876284 128.00915656 -77.44482422 130.18530273 C-77.43895798 129.16625351 -77.43309174 128.14720428 -77.42704773 127.09727478 C-77.36951514 117.43329098 -77.29659792 107.76952564 -77.20910931 98.10576534 C-77.16462545 93.13904928 -77.12532261 88.17241111 -77.09838867 83.20556641 C-77.07213417 78.40079648 -77.03158032 73.59632994 -76.98163795 68.79174995 C-76.96511745 66.97044244 -76.95351194 65.14908264 -76.94721031 63.32771111 C-76.8800681 45.68439942 -75.91996464 28.00610754 -63.31982422 14.31030273 C-46.19641205 -1.49592388 -21.72998043 -0.00167489 0 0 Z M-40.44482422 38.18530273 C-49.50843347 53.28068012 -44.58233095 81.51122125 -44.56088984 98.79450321 C-44.55652907 103.21140597 -44.55803572 107.62830748 -44.55879211 112.04521179 C-44.55931382 119.67820209 -44.55620418 127.31118377 -44.55055428 134.94417191 C-44.54239105 145.97988587 -44.53981913 157.01559571 -44.53856628 168.05131237 C-44.53638331 185.96056151 -44.52974376 203.86980608 -44.52026367 221.77905273 C-44.51106998 239.16544573 -44.50399874 256.55183748 -44.49975586 273.93823242 C-44.49949314 275.0118088 -44.49923041 276.08538518 -44.49895973 277.19149418 C-44.49765459 282.57787248 -44.49639091 287.96425078 -44.49514782 293.35062909 C-44.48479872 337.96219104 -44.46637313 382.57374451 -44.44482422 427.18530273 C-12.76482422 427.18530273 18.91517578 427.18530273 51.55517578 427.18530273 C51.57724218 381.50242777 51.59569829 335.81955786 51.60624111 290.13667909 C51.60749174 284.73719686 51.60878607 279.33771464 51.61010742 273.93823242 C51.61036973 272.86334208 51.61063204 271.78845173 51.6109023 270.68098895 C51.6152476 253.30142446 51.62312888 235.9218633 51.63232858 218.54230078 C51.64169683 200.69479821 51.6472381 182.84729738 51.64926428 164.99979246 C51.65063292 153.9966392 51.65494776 142.99349535 51.66309225 131.99034499 C51.66839886 124.43390659 51.66997121 116.87747302 51.66867716 109.3210329 C51.66803988 104.96852383 51.66898167 100.61603113 51.67438126 96.26352501 C54.00511346 66.18061764 54.00511346 66.18061764 47.55517578 38.18530273 C36.50820653 30.59681809 19.83994992 32.87813083 7.07177734 32.92456055 C3.56346348 32.93527742 0.05566156 32.92462268 -3.45263672 32.91186523 C-22.7674326 32.0124455 -22.7674326 32.0124455 -40.44482422 38.18530273 Z M-169.88232422 168.18530273 C-171.93093923 172.11864356 -172.57006244 175.20599621 -172.56787205 179.61307144 C-172.5698631 180.49885132 -172.57185414 181.3846312 -172.57390553 182.29725289 C-172.57099269 183.2661205 -172.56807984 184.2349881 -172.56507874 185.23321533 C-172.56593316 186.26568823 -172.56678759 187.29816112 -172.5676679 188.36192107 C-172.56931899 191.83203713 -172.56380734 195.30210517 -172.55834961 198.7722168 C-172.55806763 201.25553384 -172.55822568 203.73885097 -172.55879211 206.22216797 C-172.55902006 211.57398347 -172.55617805 216.92578394 -172.55055428 222.27759552 C-172.54242853 230.01542287 -172.53982295 237.75324433 -172.53856628 245.49107549 C-172.53637746 258.04507906 -172.52972195 270.59907613 -172.52026367 283.15307617 C-172.51108518 295.34838834 -172.50400648 307.54369875 -172.49975586 319.73901367 C-172.49949314 320.49068566 -172.49923041 321.24235766 -172.49895973 322.01680759 C-172.49765469 325.78771099 -172.49639098 329.55861441 -172.49514782 333.32951784 C-172.48478048 364.61478523 -172.466345 395.90004054 -172.44482422 427.18530273 C-140.76482422 427.18530273 -109.08482422 427.18530273 -76.44482422 427.18530273 C-76.40072993 395.32853579 -76.36380288 363.47179848 -76.34269356 331.6150102 C-76.34019216 327.85369164 -76.33760351 324.09237315 -76.33496094 320.33105469 C-76.33417401 319.20784249 -76.33417401 319.20784249 -76.33337118 318.06193913 C-76.3246695 305.93868764 -76.30890082 293.81545513 -76.29051863 281.6922149 C-76.271813 269.25187576 -76.26070609 256.81154657 -76.25664723 244.37119395 C-76.25390355 236.69536003 -76.245239 229.01957975 -76.22899128 221.34376235 C-76.21716579 215.45710941 -76.21591456 209.57048398 -76.21860886 203.68381882 C-76.2180582 201.26953234 -76.21407426 198.85524385 -76.20641327 196.44096947 C-76.19646939 193.14590979 -76.19885347 189.85107997 -76.20431519 186.55601501 C-76.1984895 185.59977688 -76.19266382 184.64353875 -76.1866616 183.65832371 C-76.21530619 177.26869666 -76.7177158 171.99984979 -80.13232422 166.43530273 C-84.91538459 161.78151427 -90.04828678 160.81037744 -96.53833008 160.78125 C-97.20925186 160.77438675 -97.88017365 160.7675235 -98.57142639 160.76045227 C-100.76772821 160.74229712 -102.96330794 160.7460052 -105.15966797 160.75170898 C-106.6999179 160.74714171 -108.24016579 160.74183451 -109.78041077 160.73582458 C-113.00058294 160.72691564 -116.22050681 160.72929109 -119.44067383 160.73925781 C-123.55072616 160.75074437 -127.65991888 160.73053033 -131.76985836 160.70134068 C-134.94850535 160.68292279 -138.12694845 160.68328218 -141.30563545 160.6889782 C-142.8201779 160.68913073 -144.33473477 160.6831428 -145.849226 160.67068672 C-159.37427907 160.44219292 -159.37427907 160.44219292 -169.88232422 168.18530273 Z M87.30517578 273.49780273 C84.17612177 278.30313568 83.30482638 282.73369882 83.31466675 288.41159058 C83.31191742 289.6398909 83.30916809 290.86819122 83.30633545 292.13371277 C83.31341225 293.48147682 83.32068185 294.82923987 83.328125 296.17700195 C83.32868958 297.60644015 83.32837164 299.03587892 83.32723999 300.46531677 C83.32666731 304.33472392 83.33840787 308.2040065 83.35238791 312.07338476 C83.36490939 316.12127389 83.36606688 320.16916603 83.36843872 324.21707153 C83.37464932 331.87737292 83.39105446 339.53761706 83.4111377 347.19789326 C83.43769482 357.55274107 83.44847274 367.90760459 83.46014214 378.26247787 C83.47893535 394.57012902 83.51878382 410.87765938 83.55517578 427.18530273 C115.23517578 427.18530273 146.91517578 427.18530273 179.55517578 427.18530273 C179.64259182 401.60914472 179.64259182 401.60914472 179.70166016 376.03295898 C179.71945501 365.60176159 179.74036474 355.17063694 179.78149414 344.73950195 C179.81143531 337.1422638 179.83075999 329.54508471 179.83744127 321.94778919 C179.84134555 317.92663573 179.85049464 313.90565122 179.87236595 309.884552 C179.89280574 306.09576322 179.89899454 302.30721217 179.89449883 298.51837349 C179.89532069 297.13169625 179.90124171 295.74501064 179.91279221 294.35838127 C180.29171496 282.68988568 180.29171496 282.68988568 175.10313702 272.63952637 C170.4385345 268.60848394 167.77794334 268.05661824 161.72216797 268.02416992 C161.01950302 268.01920502 160.31683807 268.01424011 159.59288025 268.00912476 C157.26259386 267.99449172 154.93237562 267.9876982 152.60205078 267.98217773 C150.98260496 267.97642588 149.36315916 267.97066815 147.74371338 267.96490479 C144.34411298 267.95439064 140.94453625 267.94855113 137.54492188 267.94506836 C133.19594164 267.93959195 128.84727582 267.91558414 124.49839401 267.88709641 C121.15086974 267.86843705 117.80342057 267.86326261 114.45584869 267.86173248 C112.85312436 267.85871133 111.25040117 267.85070094 109.64772797 267.8375473 C107.40016585 267.82042231 105.15336326 267.82238271 102.90576172 267.82885742 C101.62828064 267.82521179 100.35079956 267.82156616 99.03460693 267.81781006 C94.06024541 268.3431952 90.78300228 269.92336994 87.30517578 273.49780273 Z " fill="#1B264B" transform="translate(252.44482421875,25.814697265625)"/>
</svg>
