<?xml version="1.0" encoding="UTF-8"?>
<svg version="1.1" xmlns="http://www.w3.org/2000/svg" width="64" height="64">
<path d="M0 0 C1.85758514 2.66523085 2 3.70947183 2 7 C2.66 6.67 3.32 6.34 4 6 C8.11823618 5.60401575 10.54458065 5.78517955 14.3125 7.5625 C18.10807094 11.00499458 18.861416 14.17387639 19.109375 19.23046875 C19.12299252 21.15394318 19.06745051 23.07766035 19 25 C18.01 25.33 17.02 25.66 16 26 C16 26.99 16 27.98 16 29 C14.5625 30.5625 14.5625 30.5625 13 32 C12.505 32.99 12.505 32.99 12 34 C12.598125 34.2475 13.19625 34.495 13.8125 34.75 C16.41320743 36.23611853 17.54416577 37.37949839 19 40 C19 41.98 19 43.96 19 46 C13.72 46 8.44 46 3 46 C2.67 47.65 2.34 49.3 2 51 C-7.9 51 -17.8 51 -28 51 C-28.495 48.525 -28.495 48.525 -29 46 C-34.28 46 -39.56 46 -45 46 C-45 39.21965318 -45 39.21965318 -42.625 36.625 C-41.75875 35.75875 -40.8925 34.8925 -40 34 C-39.34 34 -38.68 34 -38 34 C-38 33.34 -38 32.68 -38 32 C-39.65 32 -41.3 32 -43 32 C-46.16384375 26.81129625 -45.60450878 20.86300681 -45 15 C-43.5668997 11.18075242 -41.4013199 9.2675466 -38 7 C-35.51953125 6.8046875 -35.51953125 6.8046875 -32.8125 6.875 C-31.91144531 6.89304687 -31.01039062 6.91109375 -30.08203125 6.9296875 C-29.39496094 6.95289063 -28.70789063 6.97609375 -28 7 C-27.9071875 5.63875 -27.9071875 5.63875 -27.8125 4.25 C-27 1 -27 1 -24.9375 -1.25 C-16.28957609 -6.40195467 -8.22154918 -5.64223963 0 0 Z M-8 32 C-8 32.66 -8 33.32 -8 34 C-5.53606281 35.55136786 -4.31910854 36.03039129 -1.375 35.75 C1.15600229 35.1515662 1.15600229 35.1515662 3 33 C1.71937515 31.2925002 0.38232443 29.62626404 -1 28 C-4.18040834 28 -5.7084232 29.94964181 -8 32 Z M-23 29 C-23.433125 29.474375 -23.86625 29.94875 -24.3125 30.4375 C-26 32 -26 32 -29 33 C-27.30504044 34.66846734 -27.30504044 34.66846734 -25 36 C-22.30190224 35.74303831 -20.41649307 35.20824654 -18 34 C-18 33.34 -18 32.68 -18 32 C-20.46326712 30.3553326 -20.46326712 30.3553326 -23 29 Z " fill="#0B0804" transform="translate(45,9)"/>
<path d="M0 0 C2.0234375 0.75 2.0234375 0.75 3.171875 2.75 C3.45289062 3.41 3.73390625 4.07 4.0234375 4.75 C4.6834375 5.08 5.3434375 5.41 6.0234375 5.75 C6.6215625 5.13125 7.2196875 4.5125 7.8359375 3.875 C12.29445569 0.90265454 16.78059802 0.44782102 22.0234375 -0.25 C25.0234375 3.5 25.0234375 3.5 25.0234375 5.75 C25.6834375 5.75 26.3434375 5.75 27.0234375 5.75 C27.80992782 14.75094473 27.80992782 14.75094473 24.7109375 18.6875 C23.8240625 19.368125 22.9371875 20.04875 22.0234375 20.75 C21.5078125 21.348125 20.9921875 21.94625 20.4609375 22.5625 C19.0234375 23.75 19.0234375 23.75 15.0234375 23.75 C15.0234375 24.41 15.0234375 25.07 15.0234375 25.75 C16.3434375 25.75 17.6634375 25.75 19.0234375 25.75 C19.0234375 26.41 19.0234375 27.07 19.0234375 27.75 C18.0334375 28.08 17.0434375 28.41 16.0234375 28.75 C16.0234375 30.73 16.0234375 32.71 16.0234375 34.75 C16.6834375 35.08 17.3434375 35.41 18.0234375 35.75 C16.7034375 36.41 15.3834375 37.07 14.0234375 37.75 C14.0234375 38.41 14.0234375 39.07 14.0234375 39.75 C10.3934375 39.75 6.7634375 39.75 3.0234375 39.75 C3.0234375 37.44 3.0234375 35.13 3.0234375 32.75 C2.6934375 33.41 2.3634375 34.07 2.0234375 34.75 C1.0334375 34.75 0.0434375 34.75 -0.9765625 34.75 C-1.3065625 33.43 -1.6365625 32.11 -1.9765625 30.75 C-2.6365625 30.75 -3.2965625 30.75 -3.9765625 30.75 C-4.6365625 32.07 -5.2965625 33.39 -5.9765625 34.75 C-8.2865625 34.75 -10.5965625 34.75 -12.9765625 34.75 C-12.52394892 33.31068883 -12.06423271 31.87361001 -11.6015625 30.4375 C-11.34632812 29.63699219 -11.09109375 28.83648437 -10.828125 28.01171875 C-9.9765625 25.75 -9.9765625 25.75 -7.9765625 22.75 C-9.6265625 22.75 -11.2765625 22.75 -12.9765625 22.75 C-14.56883907 20.31475348 -14.99390666 18.99859963 -14.7890625 16.0625 C-13.49394275 10.78239642 -12.23316663 5.77989897 -9.3515625 1.125 C-6.08426177 -0.76659516 -3.6771133 -0.39092234 0 0 Z M7.0234375 19.75 C6.5903125 20.224375 6.1571875 20.69875 5.7109375 21.1875 C4.0234375 22.75 4.0234375 22.75 1.0234375 23.75 C2.71839706 25.41846734 2.71839706 25.41846734 5.0234375 26.75 C7.72153526 26.49303831 9.60694443 25.95824654 12.0234375 24.75 C12.0234375 24.09 12.0234375 23.43 12.0234375 22.75 C9.56017038 21.1053326 9.56017038 21.1053326 7.0234375 19.75 Z " fill="#180F0F" transform="translate(14.9765625,18.25)"/>
<path d="M0 0 C4.00358362 1.92479982 5.63179697 3.12970193 7.375 7.25 C8.05074169 11.30445014 8.1438639 14.89987889 8 19 C7.01 19.33 6.02 19.66 5 20 C5 20.99 5 21.98 5 23 C0.88357426 24.99584278 -2.44275172 25.42196743 -7 25 C-9.68168885 23.39098669 -9.96054846 22.1296265 -10.875 19.125 C-11 16 -11 16 -9.5 13.625 C-7.8105504 10.6684632 -7.93894722 10.0776763 -8.5 6.875 C-9 3 -9 3 -7.9375 1 C-5.04964732 -0.49050461 -3.21776056 -0.44165341 0 0 Z " fill="#110C07" transform="translate(56,15)"/>
<path d="M0 0 C-0.33 1.32 -0.66 2.64 -1 4 C-0.401875 4.2475 0.19625 4.495 0.8125 4.75 C3.41320743 6.23611853 4.54416577 7.37949839 6 10 C6 11.98 6 13.96 6 16 C0.72 16 -4.56 16 -10 16 C-10.495 18.475 -10.495 18.475 -11 21 C-20.9 21 -30.8 21 -41 21 C-41.495 18.525 -41.495 18.525 -42 16 C-47.28 16 -52.56 16 -58 16 C-58 10 -58 10 -56 7.625 C-55.34 7.08875 -54.68 6.5525 -54 6 C-54.875 11.75 -54.875 11.75 -56 14 C-53.69 14 -51.38 14 -49 14 C-48.67 11.69 -48.34 9.38 -48 7 C-47.67 7.99 -47.34 8.98 -47 10 C-46.34 10 -45.68 10 -45 10 C-44.67 11.32 -44.34 12.64 -44 14 C-43.01 14 -42.02 14 -41 14 C-40.67 13.01 -40.34 12.02 -40 11 C-39 14 -39 14 -40 19 C-36.37 19 -32.74 19 -29 19 C-29 18.34 -29 17.68 -29 17 C-28.01 16.34 -27.02 15.68 -26 15 C-24.80767387 12.94996045 -24.80767387 12.94996045 -24 11 C-24 12.65 -24 14.3 -24 16 C-21.24616077 14.62308038 -20.48516899 12.63279958 -19 10 C-18.505 11.485 -18.505 11.485 -18 13 C-18.66 13 -19.32 13 -20 13 C-20.33 14.32 -20.66 15.64 -21 17 C-21.66 17 -22.32 17 -23 17 C-23 17.66 -23 18.32 -23 19 C-19.37 19 -15.74 19 -12 19 C-12 17.35 -12 15.7 -12 14 C-11.01 13.67 -10.02 13.34 -9 13 C-9.66 12.34 -10.32 11.68 -11 11 C-10.67 10.01 -10.34 9.02 -10 8 C-9.34 8.66 -8.68 9.32 -8 10 C-7.01 10 -6.02 10 -5 10 C-5 8.68 -5 7.36 -5 6 C-5.66 5.67 -6.32 5.34 -7 5 C-6.34 5 -5.68 5 -5 5 C-5 4.34 -5 3.68 -5 3 C-5.66 2.67 -6.32 2.34 -7 2 C-2.25 0 -2.25 0 0 0 Z " fill="#020203" transform="translate(58,39)"/>
<path d="M0 0 C1.375 2.25 1.375 2.25 1.375 4.25 C2.035 4.25 2.695 4.25 3.375 4.25 C4.16234859 13.26076716 4.16234859 13.26076716 0.9375 17.3125 C0.091875 17.951875 -0.75375 18.59125 -1.625 19.25 C-1.955 19.58 -2.285 19.91 -2.625 20.25 C-5.55728663 20.54322866 -7.76991883 20.75004247 -10.625 20.25 C-13.5625 17.8125 -13.5625 17.8125 -15.625 15.25 C-15.955 14.92 -16.285 14.59 -16.625 14.25 C-17.11577297 9.83304327 -17.42399983 5.70272696 -15.25 1.75 C-10.48082946 -0.97524031 -4.84194687 -3.22796458 0 0 Z " fill="#D79D7B" transform="translate(38.625,19.75)"/>
<path d="M0 0 C0.66 0.33 1.32 0.66 2 1 C2.75 3.4375 2.75 3.4375 3 6 C2.34 6.66 1.68 7.32 1 8 C0.97624074 9.9931567 0.97624074 9.9931567 1.375 12.125 C1.58125 13.40375 1.7875 14.6825 2 16 C4.31 16.33 6.62 16.66 9 17 C8.835 17.7425 8.67 18.485 8.5 19.25 C7.88074304 22.19006578 7.88074304 22.19006578 8 26 C6.68 26.33 5.36 26.66 4 27 C4.33 27.99 4.66 28.98 5 30 C3.68 30 2.36 30 1 30 C1 31.65 1 33.3 1 35 C-2.63 35 -6.26 35 -10 35 C-10 34.34 -10 33.68 -10 33 C-9.01 32.505 -9.01 32.505 -8 32 C-7.67 31.01 -7.34 30.02 -7 29 C-6.34 29 -5.68 29 -5 29 C-5.33 28.34 -5.66 27.68 -6 27 C-6.45375 27.825 -6.9075 28.65 -7.375 29.5 C-8.179375 30.7375 -8.179375 30.7375 -9 32 C-9.66 32 -10.32 32 -11 32 C-11.33 31.34 -11.66 30.68 -12 30 C-12.66 30 -13.32 30 -14 30 C-14.33 27.69 -14.66 25.38 -15 23 C-13.68 23 -12.36 23 -11 23 C-11 22.34 -11 21.68 -11 21 C-12.32 21 -13.64 21 -15 21 C-15 20.34 -15 19.68 -15 19 C-14.278125 18.7525 -13.55625 18.505 -12.8125 18.25 C-9.13602647 16.61601177 -5.83898291 14.67796581 -4 11 C-3.76825521 8.69971838 -3.61890517 6.40119953 -3.4765625 4.09375 C-3 2 -3 2 0 0 Z M-8 18 C-8 18.66 -8 19.32 -8 20 C-5.53606281 21.55136786 -4.31910854 22.03039129 -1.375 21.75 C1.15600229 21.1515662 1.15600229 21.1515662 3 19 C1.71937515 17.2925002 0.38232443 15.62626404 -1 14 C-4.18040834 14 -5.7084232 15.94964181 -8 18 Z " fill="#312F27" transform="translate(45,23)"/>
<path d="M0 0 C3.57007309 0.8221304 5.79198739 2.08708052 8.4765625 4.5703125 C10.06092514 7.8079231 10.54513366 9.79888697 10.2265625 13.3828125 C9.4765625 15.5703125 9.4765625 15.5703125 7.4765625 16.5703125 C3.4765625 10.8203125 3.4765625 10.8203125 3.4765625 8.5703125 C2.64125 9.27994141 2.64125 9.27994141 1.7890625 10.00390625 C-0.75433407 11.72671372 -2.5117529 12.15994129 -5.5234375 12.6328125 C-8.90073648 13.17338627 -11.52768108 13.89906876 -14.5234375 15.5703125 C-15.5234375 14.5703125 -15.5234375 14.5703125 -15.8359375 11.3203125 C-15.40989927 6.20785371 -13.39330835 4.24523937 -9.6875 0.92578125 C-6.346184 -1.16706469 -3.78130704 -0.52425201 0 0 Z " fill="#854634" transform="translate(34.5234375,6.4296875)"/>
<path d="M0 0 C0.80824219 0.11085938 1.61648438 0.22171875 2.44921875 0.3359375 C3.37154297 0.47902344 3.37154297 0.47902344 4.3125 0.625 C3.9825 2.275 3.6525 3.925 3.3125 5.625 C1.0025 5.955 -1.3075 6.285 -3.6875 6.625 C-3.6875 7.285 -3.6875 7.945 -3.6875 8.625 C-2.6975 7.965 -1.7075 7.305 -0.6875 6.625 C0.3025 6.625 1.2925 6.625 2.3125 6.625 C4.72927686 10.49184298 5.09898606 14.14120723 5.3125 18.625 C4.3125 20.625 4.3125 20.625 2.3125 21.625 C-1.25 21.9375 -1.25 21.9375 -4.6875 21.625 C-6.6875 19.625 -6.6875 19.625 -6.9375 16.75 C-6.69902253 13.76903168 -6.23257335 12.1357442 -4.6875 9.625 C-5.3475 9.625 -6.0075 9.625 -6.6875 9.625 C-7.3475 12.265 -8.0075 14.905 -8.6875 17.625 C-9.3475 17.295 -10.0075 16.965 -10.6875 16.625 C-11.03399648 10.85005861 -10.98476646 6.63196018 -7.6875 1.625 C-4.33422361 -0.61051759 -3.78006343 -0.54783528 0 0 Z " fill="#E3A682" transform="translate(12.6875,18.375)"/>
<path d="M0 0 C2.13586678 3.20380017 2.23132175 4.01939967 2.125 7.6875 C2.10695313 8.49574219 2.08890625 9.30398437 2.0703125 10.13671875 C2.03550781 11.05904297 2.03550781 11.05904297 2 12 C-1.55353929 13.1845131 -4.27013478 13.26641894 -8 13 C-10.70884123 11.37469526 -10.96799067 10.1074599 -11.875 7.0625 C-12 4 -12 4 -10.9375 1.6875 C-7.50926497 -1.29838212 -4.19715156 -1.39905052 0 0 Z " fill="#E6A985" transform="translate(57,27)"/>
<path d="M0 0 C0.66 0 1.32 0 2 0 C1.88140625 0.67546875 1.7628125 1.3509375 1.640625 2.046875 C1.2515089 4.73955843 0.95292222 7.27804848 1 10 C2.77154652 12.52590848 2.77154652 12.52590848 5 14 C5 14.66 5 15.32 5 16 C5.66 16.33 6.32 16.66 7 17 C6.34 17.33 5.68 17.66 5 18 C4.26924352 20.3140622 3.59861742 22.64828869 3 25 C0.69 25 -1.62 25 -4 25 C-3.54738642 23.56068883 -3.08767021 22.12361001 -2.625 20.6875 C-2.36976562 19.88699219 -2.11453125 19.08648437 -1.8515625 18.26171875 C-1 16 -1 16 1 13 C-0.65 13 -2.3 13 -4 13 C-5.80411967 10.24075815 -6.0127245 9.11027897 -5.625 5.75 C-5.41875 4.8425 -5.2125 3.935 -5 3 C-4.34 4.32 -3.68 5.64 -3 7 C-2.01 4.69 -1.02 2.38 0 0 Z " fill="#130C07" transform="translate(6,28)"/>
<path d="M0 0 C0.80824219 0.11085938 1.61648438 0.22171875 2.44921875 0.3359375 C3.37154297 0.47902344 3.37154297 0.47902344 4.3125 0.625 C3.9825 2.275 3.6525 3.925 3.3125 5.625 C1.0025 5.955 -1.3075 6.285 -3.6875 6.625 C-4.0175 7.615 -4.3475 8.605 -4.6875 9.625 C-5.3475 9.625 -6.0075 9.625 -6.6875 9.625 C-7.3475 12.265 -8.0075 14.905 -8.6875 17.625 C-9.3475 17.295 -10.0075 16.965 -10.6875 16.625 C-11.03399648 10.85005861 -10.98476646 6.63196018 -7.6875 1.625 C-4.33422361 -0.61051759 -3.78006343 -0.54783528 0 0 Z " fill="#F4C954" transform="translate(12.6875,18.375)"/>
<path d="M0 0 C2.68716539 1.42492695 4.74453101 2.72907574 6.49609375 5.2421875 C7.05859375 7.1796875 7.05859375 7.1796875 7.05859375 10.1796875 C8.04859375 10.5096875 9.03859375 10.8396875 10.05859375 11.1796875 C9.06859375 11.5096875 8.07859375 11.8396875 7.05859375 12.1796875 C7.18234375 13.4790625 7.30609375 14.7784375 7.43359375 16.1171875 C7.50320312 16.84808594 7.5728125 17.57898438 7.64453125 18.33203125 C7.78117187 18.94175781 7.9178125 19.55148438 8.05859375 20.1796875 C8.71859375 20.5096875 9.37859375 20.8396875 10.05859375 21.1796875 C9.06859375 21.1796875 8.07859375 21.1796875 7.05859375 21.1796875 C6.39859375 20.1896875 5.73859375 19.1996875 5.05859375 18.1796875 C4.72859375 19.8296875 4.39859375 21.4796875 4.05859375 23.1796875 C3.05859375 21.1796875 2.05859375 19.1796875 1.05859375 17.1796875 C2.04859375 16.5196875 3.03859375 15.8596875 4.05859375 15.1796875 C4.04534599 12.07971183 3.84143618 9.18663193 3.05859375 6.1796875 C-1.24634351 1.97974871 -5.23994886 1.75949673 -10.94140625 1.1796875 C-11.27140625 0.5196875 -11.60140625 -0.1403125 -11.94140625 -0.8203125 C-7.68939577 -2.23764933 -4.14408584 -1.75102219 0 0 Z " fill="#070502" transform="translate(39.94140625,5.8203125)"/>
<path d="M0 0 C4.56020278 -0.35766296 7.94928084 -0.55752445 12.0625 1.625 C14 4 14 4 14.3125 7.25 C14.1578125 8.61125 14.1578125 8.61125 14 10 C12 10 12 10 9.875 8 C9.25625 7.34 8.6375 6.68 8 6 C7.67 6.33 7.34 6.66 7 7 C5.00041636 7.04080783 2.99954746 7.04254356 1 7 C0.67 4.69 0.34 2.38 0 0 Z " fill="#F6CD55" transform="translate(47,18)"/>
<path d="M0 0 C0.08159574 4.16138263 -0.01751476 7.9472484 -1 12 C-2.33333333 12 -3.66666667 12 -5 12 C-5.66 8.37 -6.32 4.74 -7 1 C-8.98 1.66 -10.96 2.32 -13 3 C-13 2.34 -13 1.68 -13 1 C-7.93204226 -2.37863849 -5.70273745 -2.20333038 0 0 Z " fill="#4F3623" transform="translate(22,24)"/>
<path d="M0 0 C3 1 3 1 5 4 C5.125 7.1875 5.125 7.1875 5 10 C2.03 10 -0.94 10 -4 10 C-3.34 8.35 -2.68 6.7 -2 5 C-1.34 5 -0.68 5 0 5 C0 3.35 0 1.7 0 0 Z " fill="#615671" transform="translate(40,47)"/>
<path d="M0 0 C0.66 0 1.32 0 2 0 C2 1.65 2 3.3 2 5 C2.66 5 3.32 5 4 5 C4.66 6.65 5.32 8.3 6 10 C3.03 10 0.06 10 -3 10 C-3.2295711 6.63295715 -3.33943529 4.58629732 -1.625 1.625 C-1.08875 1.08875 -0.5525 0.5525 0 0 Z " fill="#615671" transform="translate(22,47)"/>
<path d="M0 0 C0.33 1.32 0.66 2.64 1 4 C1.66 4 2.32 4 3 4 C3.33 3.01 3.66 2.02 4 1 C7 5.75 7 5.75 7 8 C4.69 8 2.38 8 0 8 C-1.125 2.25 -1.125 2.25 0 0 Z " fill="#2297A5" transform="translate(55,45)"/>
<path d="M0 0 C0.66 0.66 1.32 1.32 2 2 C1.625 5.125 1.625 5.125 1 8 C-1.31 8 -3.62 8 -6 8 C-5.39816251 5.97954558 -4.72693904 3.97888961 -4 2 C-3.34 1.67 -2.68 1.34 -2 1 C-1.34 1.99 -0.68 2.98 0 4 C0 2.68 0 1.36 0 0 Z " fill="#C02145" transform="translate(8,45)"/>
<path d="M0 0 C0.66 0 1.32 0 2 0 C4.1875 2.8125 4.1875 2.8125 6 6 C5.67 6.99 5.34 7.98 5 9 C4.278125 8.154375 3.55625 7.30875 2.8125 6.4375 C1.4203125 5.2309375 1.4203125 5.2309375 0 4 C-2.53176909 4.17295995 -2.53176909 4.17295995 -5 5 C-7.8125 4.5625 -7.8125 4.5625 -10 4 C-10 3.67 -10 3.34 -10 3 C-8.72125 2.87625 -7.4425 2.7525 -6.125 2.625 C-2.65209064 2.30957601 -2.65209064 2.30957601 0 0 Z " fill="#1F130E" transform="translate(36,15)"/>
<path d="M0 0 C2.64 0 5.28 0 8 0 C8.05395478 1.62463842 8.09277195 3.24978541 8.125 4.875 C8.14820313 5.77992187 8.17140625 6.68484375 8.1953125 7.6171875 C8 10 8 10 6 12 C5.67 11.01 5.34 10.02 5 9 C5.33 8.34 5.66 7.68 6 7 C6.0396713 5.33380554 6.04384447 3.66608987 6 2 C4.02 2 2.04 2 0 2 C0 1.34 0 0.68 0 0 Z " fill="#9B624B" transform="translate(34,24)"/>
<path d="M0 0 C1.65 1.65 3.3 3.3 5 5 C4.34 5.66 3.68 6.32 3 7 C2.34 6.01 1.68 5.02 1 4 C-0.99956611 3.95834237 -3.00043389 3.95834237 -5 4 C-5.66 3.34 -6.32 2.68 -7 2 C-4.69 1.34 -2.38 0.68 0 0 Z " fill="#1E170E" transform="translate(55,23)"/>
<path d="M0 0 C3 1 3 1 5 4 C5.125 7.1875 5.125 7.1875 5 10 C4.34 10 3.68 10 3 10 C2.67 8.02 2.34 6.04 2 4 C1.34 4 0.68 4 0 4 C0 2.68 0 1.36 0 0 Z " fill="#534A62" transform="translate(40,47)"/>
<path d="M0 0 C2 1.125 2 1.125 4 3 C4.25 6.1875 4.25 6.1875 4 9 C3.34 9 2.68 9 2 9 C-1.11450382 4.84732824 -1.11450382 4.84732824 -0.6875 1.6875 C-0.460625 1.130625 -0.23375 0.57375 0 0 Z " fill="#E3AC4B" transform="translate(57,19)"/>
<path d="M0 0 C0.66 0 1.32 0 2 0 C2.66 3.3 3.32 6.6 4 10 C3.01 9.67 2.02 9.34 1 9 C0.67 6.03 0.34 3.06 0 0 Z " fill="#443C4F" transform="translate(26,45)"/>
<path d="M0 0 C1.2375 0.185625 2.475 0.37125 3.75 0.5625 C6.76279577 0.94711223 9.10010827 1.0874594 12 0 C10.875 2 10.875 2 9 4 C6 4.5 6 4.5 3 4 C1.125 2 1.125 2 0 0 Z " fill="#221914" transform="translate(26,32)"/>
<path d="M0 0 C0.66 0.33 1.32 0.66 2 1 C2 3.97 2 6.94 2 10 C1.01 10 0.02 10 -1 10 C-0.67 6.7 -0.34 3.4 0 0 Z " fill="#E0916F" transform="translate(57,29)"/>
<path d="M0 0 C1.60080151 4.00200378 0.29279692 7.04556236 -1 11 C-1.33 11 -1.66 11 -2 11 C-2.05399736 9.54207116 -2.09279177 8.08357288 -2.125 6.625 C-2.15980469 5.40683594 -2.15980469 5.40683594 -2.1953125 4.1640625 C-2 2 -2 2 0 0 Z " fill="#030201" transform="translate(2,22)"/>
<path d="M0 0 C0.99 0.33 1.98 0.66 3 1 C3.33 1.99 3.66 2.98 4 4 C3.01 4.33 2.02 4.66 1 5 C0.67 5.66 0.34 6.32 0 7 C-0.99 6.67 -1.98 6.34 -3 6 C-2.34 5.34 -1.68 4.68 -1 4 C-0.3574765 1.93125966 -0.3574765 1.93125966 0 0 Z " fill="#7C172F" transform="translate(17,46)"/>
<path d="M0 0 C0.66 0 1.32 0 2 0 C2 1.98 2 3.96 2 6 C1.34 6 0.68 6 0 6 C-0.33 6.66 -0.66 7.32 -1 8 C-1.125 2.25 -1.125 2.25 0 0 Z " fill="#484055" transform="translate(36,45)"/>
<path d="M0 0 C0 0.33 0 0.66 0 1 C-2.31 1.33 -4.62 1.66 -7 2 C-7.33 2.99 -7.66 3.98 -8 5 C-8.99 4.34 -9.98 3.68 -11 3 C-7.48550811 -0.37391222 -4.73940561 -0.27342725 0 0 Z " fill="#120C09" transform="translate(31,19)"/>
</svg>
