<?xml version="1.0" encoding="UTF-8"?>
<svg version="1.1" xmlns="http://www.w3.org/2000/svg" width="512" height="512">
<path d="M0 0 C0.73250977 -0.00700928 1.46501953 -0.01401855 2.21972656 -0.02124023 C4.62604382 -0.03875584 7.03117209 -0.02722142 9.4375 -0.01367188 C11.11849186 -0.01636866 12.79948221 -0.02025264 14.48046875 -0.02526855 C17.99754743 -0.03115485 21.5142188 -0.02262896 25.03125 -0.00390625 C29.53052189 0.01888312 34.02883927 0.00575532 38.52807617 -0.01819611 C41.99746847 -0.03267779 45.46663594 -0.02803731 48.93603516 -0.01768494 C50.59456496 -0.01502418 52.25311544 -0.01826444 53.91162109 -0.02760315 C56.23329421 -0.03780834 58.55344011 -0.02221466 60.875 0 C62.19371094 0.00318237 63.51242187 0.00636475 64.87109375 0.00964355 C70.11715882 0.75679843 73.13555389 3.21563202 76.8125 6.89257812 C78.62114494 10.9272476 78.6047709 13.36189599 78.5390625 17.74414062 C78.52439941 19.01080566 78.50973633 20.2774707 78.49462891 21.58251953 C78.47577637 22.55108887 78.45692383 23.5196582 78.4375 24.51757812 C79.60990234 24.50869568 80.78230469 24.49981323 81.99023438 24.49066162 C93.05422904 24.40947564 104.11816304 24.34956455 115.18238831 24.31032944 C120.87025393 24.28947994 126.55787854 24.26121008 132.24560547 24.21582031 C137.73749146 24.17226909 143.22914602 24.14842118 148.72119141 24.13806915 C150.8135136 24.13069448 152.90582354 24.11629344 154.99804688 24.0946579 C157.93517143 24.06550097 160.8713471 24.0616273 163.80859375 24.06347656 C164.6681517 24.04909546 165.52770966 24.03471436 166.41331482 24.01989746 C173.27943497 24.06648821 178.48665378 25.93173205 183.6796875 30.48242188 C184.21851563 31.13339844 184.75734375 31.784375 185.3125 32.45507812 C185.86679687 33.10347656 186.42109375 33.751875 186.9921875 34.41992188 C190.09626023 38.92502203 190.68828889 42.78076301 190.69476891 48.20124531 C190.69827498 48.86308349 190.70178105 49.52492168 190.70539337 50.20681557 C190.71470969 52.42826938 190.70978354 54.64946117 190.70492554 56.8709259 C190.70866168 58.47821395 190.71326306 60.08550019 190.71865618 61.69278353 C190.730906 66.11267646 190.73062338 70.53249381 190.72826743 74.95239985 C190.72785977 79.71802925 190.7388936 84.48363425 190.74838257 89.24925232 C190.76500438 98.58721258 190.77049265 107.92514759 190.77160732 117.2631214 C190.77255723 124.8525642 190.77666467 132.44199866 190.78300858 140.03143883 C190.80062417 161.54301309 190.80984694 183.05456739 190.80834763 204.56614891 C190.80826772 205.72614839 190.8081878 206.88614786 190.80810547 208.08129883 C190.80802371 209.2427126 190.80794195 210.40412637 190.80785771 211.60073449 C190.80704471 230.42557152 190.82618512 249.25032854 190.8543822 268.07514242 C190.88309802 287.3985571 190.89692322 306.72193276 190.89519465 326.04536933 C190.8945303 336.89633193 190.90004228 347.74721067 190.92155075 358.59815407 C190.9397454 367.83659051 190.94412399 377.07490508 190.9305319 386.31335167 C190.92399361 391.0272581 190.92391612 395.74093061 190.9412384 400.45481491 C190.9569361 404.77098056 190.95413941 409.08672615 190.93667014 413.40288135 C190.93359295 414.96343104 190.9372597 416.52401182 190.94839029 418.08452485 C191.01008602 427.34861439 190.85428507 434.47735023 184.47265625 441.75976562 C183.82167969 442.29859375 183.17070312 442.83742188 182.5 443.39257812 C181.85160156 443.946875 181.20320313 444.50117188 180.53515625 445.07226562 C176.62041738 447.76957174 173.10495219 448.76712644 168.37803936 448.77484703 C167.37676657 448.78129592 166.37549379 448.78774482 165.3438794 448.79438913 C164.25108935 448.79129192 163.15829931 448.78819472 162.03239441 448.78500366 C160.86587084 448.78953478 159.69934726 448.79406589 158.49747449 448.79873431 C155.26332331 448.80920429 152.02931196 448.81070418 148.79514921 448.80834556 C145.30560106 448.80793732 141.81608604 448.81897721 138.32655334 448.82846069 C131.49119232 448.84507027 124.65586579 448.85057022 117.82048627 448.85168545 C112.26384186 448.85263596 106.70720882 448.85674643 101.15056801 448.8630867 C85.39409516 448.88069916 69.63764954 448.88992559 53.88116678 448.88842575 C52.60713888 448.88830588 52.60713888 448.88830588 51.30737305 448.88818359 C50.45698321 448.88810183 49.60659338 448.88802007 48.73043416 448.88793583 C34.94947517 448.88712298 21.1686255 448.9062605 7.38769814 448.93446033 C-6.76478189 448.96319178 -20.91720861 448.97700047 -35.06971854 448.97527277 C-43.01434329 448.97460895 -50.95885345 448.98009777 -58.90345192 449.00162888 C-65.66789057 449.01984415 -72.43216269 449.02418525 -79.19661526 449.01061003 C-82.64678667 449.00408197 -86.09663865 449.00395679 -89.54677963 449.02131653 C-93.29028696 449.03672459 -97.03295456 449.02748872 -100.77644348 449.01205444 C-101.86254136 449.02234157 -102.94863925 449.0326287 -104.06764919 449.04322755 C-111.64661495 448.97414767 -116.95030427 447.68296916 -122.8046875 442.55273438 C-123.34351562 441.90175781 -123.88234375 441.25078125 -124.4375 440.58007812 C-124.99179688 439.93167969 -125.54609375 439.28328125 -126.1171875 438.61523438 C-129.22126023 434.11013422 -129.81328889 430.25439324 -129.81976891 424.83391094 C-129.82327498 424.17207276 -129.82678105 423.51023457 -129.83039337 422.82834068 C-129.83970969 420.60688687 -129.83478354 418.38569508 -129.82992554 416.16423035 C-129.83366168 414.5569423 -129.83826306 412.94965606 -129.84365618 411.34237272 C-129.855906 406.92247979 -129.85562338 402.50266244 -129.85326743 398.0827564 C-129.85285977 393.317127 -129.8638936 388.551522 -129.87338257 383.78590393 C-129.89000438 374.44794367 -129.89549265 365.11000866 -129.89660732 355.77203485 C-129.89755723 348.18259205 -129.90166467 340.59315759 -129.90800858 333.00371742 C-129.92562417 311.49214316 -129.93484694 289.98058886 -129.93334763 268.46900734 C-129.93326772 267.30900786 -129.9331878 266.14900839 -129.93310547 264.95385742 C-129.93302371 263.79244365 -129.93294195 262.63102988 -129.93285771 261.43442176 C-129.93204471 242.60958473 -129.95118512 223.78482771 -129.9793822 204.96001383 C-130.00809802 185.63659915 -130.02192322 166.31322349 -130.02019465 146.98978692 C-130.0195303 136.13882432 -130.02504228 125.28794558 -130.04655075 114.43700218 C-130.0647454 105.19856574 -130.06912399 95.96025117 -130.0555319 86.72180458 C-130.04899361 82.00789815 -130.04891612 77.29422564 -130.0662384 72.58034134 C-130.0819361 68.26417569 -130.07913941 63.9484301 -130.06167014 59.6322749 C-130.05859295 58.07172521 -130.0622597 56.51114443 -130.07339029 54.9506314 C-130.13508602 45.68654186 -129.97928507 38.55780602 -123.59765625 31.27539062 C-122.94667969 30.7365625 -122.29570313 30.19773437 -121.625 29.64257812 C-120.97660156 29.08828125 -120.32820313 28.53398438 -119.66015625 27.96289062 C-114.31879107 24.28262039 -109.54902517 24.23868614 -103.27416992 24.29052734 C-101.88319092 24.29008926 -101.88319092 24.29008926 -100.46411133 24.28964233 C-97.40696776 24.29103277 -94.35006961 24.30658063 -91.29296875 24.32226562 C-89.1701928 24.32599677 -87.04741513 24.32884326 -84.92463684 24.33084106 C-79.34330472 24.33846952 -73.76207705 24.35811133 -68.18078613 24.38024902 C-62.48316867 24.40072436 -56.78553429 24.4098464 -51.08789062 24.41992188 C-39.91271458 24.4413579 -28.73761598 24.47548442 -17.5625 24.51757812 C-17.58135254 23.54900879 -17.60020508 22.58043945 -17.61962891 21.58251953 C-17.64162354 19.68252197 -17.64162354 19.68252197 -17.6640625 17.74414062 C-17.68291504 16.48682129 -17.70176758 15.22950195 -17.72119141 13.93408203 C-17.52106182 9.62544605 -16.61206002 7.56713815 -13.5625 4.51757812 C-8.92397928 0.84929543 -5.88317332 0.01419754 0 0 Z " fill="#EFEFEF" transform="translate(225.5625,31.482421875)"/>
<path d="M0 0 C0.73250977 -0.00700928 1.46501953 -0.01401855 2.21972656 -0.02124023 C4.62604382 -0.03875584 7.03117209 -0.02722142 9.4375 -0.01367188 C11.11849186 -0.01636866 12.79948221 -0.02025264 14.48046875 -0.02526855 C17.99754743 -0.03115485 21.5142188 -0.02262896 25.03125 -0.00390625 C29.53052189 0.01888312 34.02883927 0.00575532 38.52807617 -0.01819611 C41.99746847 -0.03267779 45.46663594 -0.02803731 48.93603516 -0.01768494 C50.59456496 -0.01502418 52.25311544 -0.01826444 53.91162109 -0.02760315 C56.23329421 -0.03780834 58.55344011 -0.02221466 60.875 0 C62.19371094 0.00318237 63.51242187 0.00636475 64.87109375 0.00964355 C70.11715882 0.75679843 73.13555389 3.21563202 76.8125 6.89257812 C78.62114494 10.9272476 78.6047709 13.36189599 78.5390625 17.74414062 C78.52439941 19.01080566 78.50973633 20.2774707 78.49462891 21.58251953 C78.47577637 22.55108887 78.45692383 23.5196582 78.4375 24.51757812 C79.60990234 24.50869568 80.78230469 24.49981323 81.99023438 24.49066162 C93.05422904 24.40947564 104.11816304 24.34956455 115.18238831 24.31032944 C120.87025393 24.28947994 126.55787854 24.26121008 132.24560547 24.21582031 C137.73749146 24.17226909 143.22914602 24.14842118 148.72119141 24.13806915 C150.8135136 24.13069448 152.90582354 24.11629344 154.99804688 24.0946579 C157.93517143 24.06550097 160.8713471 24.0616273 163.80859375 24.06347656 C164.6681517 24.04909546 165.52770966 24.03471436 166.41331482 24.01989746 C173.27943497 24.06648821 178.48665378 25.93173205 183.6796875 30.48242188 C184.21851563 31.13339844 184.75734375 31.784375 185.3125 32.45507812 C185.86679687 33.10347656 186.42109375 33.751875 186.9921875 34.41992188 C190.09626023 38.92502203 190.68828889 42.78076301 190.69476891 48.20124531 C190.69827498 48.86308349 190.70178105 49.52492168 190.70539337 50.20681557 C190.71470969 52.42826938 190.70978354 54.64946117 190.70492554 56.8709259 C190.70866168 58.47821395 190.71326306 60.08550019 190.71865618 61.69278353 C190.730906 66.11267646 190.73062338 70.53249381 190.72826743 74.95239985 C190.72785977 79.71802925 190.7388936 84.48363425 190.74838257 89.24925232 C190.76500438 98.58721258 190.77049265 107.92514759 190.77160732 117.2631214 C190.77255723 124.8525642 190.77666467 132.44199866 190.78300858 140.03143883 C190.80062417 161.54301309 190.80984694 183.05456739 190.80834763 204.56614891 C190.80826772 205.72614839 190.8081878 206.88614786 190.80810547 208.08129883 C190.80802371 209.2427126 190.80794195 210.40412637 190.80785771 211.60073449 C190.80704471 230.42557152 190.82618512 249.25032854 190.8543822 268.07514242 C190.88309802 287.3985571 190.89692322 306.72193276 190.89519465 326.04536933 C190.8945303 336.89633193 190.90004228 347.74721067 190.92155075 358.59815407 C190.9397454 367.83659051 190.94412399 377.07490508 190.9305319 386.31335167 C190.92399361 391.0272581 190.92391612 395.74093061 190.9412384 400.45481491 C190.9569361 404.77098056 190.95413941 409.08672615 190.93667014 413.40288135 C190.93359295 414.96343104 190.9372597 416.52401182 190.94839029 418.08452485 C191.01008602 427.34861439 190.85428507 434.47735023 184.47265625 441.75976562 C183.82167969 442.29859375 183.17070312 442.83742188 182.5 443.39257812 C181.85160156 443.946875 181.20320313 444.50117188 180.53515625 445.07226562 C176.62041738 447.76957174 173.10495219 448.76712644 168.37803936 448.77484703 C167.37676657 448.78129592 166.37549379 448.78774482 165.3438794 448.79438913 C164.25108935 448.79129192 163.15829931 448.78819472 162.03239441 448.78500366 C160.86587084 448.78953478 159.69934726 448.79406589 158.49747449 448.79873431 C155.26332331 448.80920429 152.02931196 448.81070418 148.79514921 448.80834556 C145.30560106 448.80793732 141.81608604 448.81897721 138.32655334 448.82846069 C131.49119232 448.84507027 124.65586579 448.85057022 117.82048627 448.85168545 C112.26384186 448.85263596 106.70720882 448.85674643 101.15056801 448.8630867 C85.39409516 448.88069916 69.63764954 448.88992559 53.88116678 448.88842575 C52.60713888 448.88830588 52.60713888 448.88830588 51.30737305 448.88818359 C50.45698321 448.88810183 49.60659338 448.88802007 48.73043416 448.88793583 C34.94947517 448.88712298 21.1686255 448.9062605 7.38769814 448.93446033 C-6.76478189 448.96319178 -20.91720861 448.97700047 -35.06971854 448.97527277 C-43.01434329 448.97460895 -50.95885345 448.98009777 -58.90345192 449.00162888 C-65.66789057 449.01984415 -72.43216269 449.02418525 -79.19661526 449.01061003 C-82.64678667 449.00408197 -86.09663865 449.00395679 -89.54677963 449.02131653 C-93.29028696 449.03672459 -97.03295456 449.02748872 -100.77644348 449.01205444 C-101.86254136 449.02234157 -102.94863925 449.0326287 -104.06764919 449.04322755 C-111.64661495 448.97414767 -116.95030427 447.68296916 -122.8046875 442.55273438 C-123.34351562 441.90175781 -123.88234375 441.25078125 -124.4375 440.58007812 C-124.99179688 439.93167969 -125.54609375 439.28328125 -126.1171875 438.61523438 C-129.22126023 434.11013422 -129.81328889 430.25439324 -129.81976891 424.83391094 C-129.82327498 424.17207276 -129.82678105 423.51023457 -129.83039337 422.82834068 C-129.83970969 420.60688687 -129.83478354 418.38569508 -129.82992554 416.16423035 C-129.83366168 414.5569423 -129.83826306 412.94965606 -129.84365618 411.34237272 C-129.855906 406.92247979 -129.85562338 402.50266244 -129.85326743 398.0827564 C-129.85285977 393.317127 -129.8638936 388.551522 -129.87338257 383.78590393 C-129.89000438 374.44794367 -129.89549265 365.11000866 -129.89660732 355.77203485 C-129.89755723 348.18259205 -129.90166467 340.59315759 -129.90800858 333.00371742 C-129.92562417 311.49214316 -129.93484694 289.98058886 -129.93334763 268.46900734 C-129.93326772 267.30900786 -129.9331878 266.14900839 -129.93310547 264.95385742 C-129.93302371 263.79244365 -129.93294195 262.63102988 -129.93285771 261.43442176 C-129.93204471 242.60958473 -129.95118512 223.78482771 -129.9793822 204.96001383 C-130.00809802 185.63659915 -130.02192322 166.31322349 -130.02019465 146.98978692 C-130.0195303 136.13882432 -130.02504228 125.28794558 -130.04655075 114.43700218 C-130.0647454 105.19856574 -130.06912399 95.96025117 -130.0555319 86.72180458 C-130.04899361 82.00789815 -130.04891612 77.29422564 -130.0662384 72.58034134 C-130.0819361 68.26417569 -130.07913941 63.9484301 -130.06167014 59.6322749 C-130.05859295 58.07172521 -130.0622597 56.51114443 -130.07339029 54.9506314 C-130.13508602 45.68654186 -129.97928507 38.55780602 -123.59765625 31.27539062 C-122.94667969 30.7365625 -122.29570313 30.19773437 -121.625 29.64257812 C-120.97660156 29.08828125 -120.32820313 28.53398438 -119.66015625 27.96289062 C-114.31879107 24.28262039 -109.54902517 24.23868614 -103.27416992 24.29052734 C-101.88319092 24.29008926 -101.88319092 24.29008926 -100.46411133 24.28964233 C-97.40696776 24.29103277 -94.35006961 24.30658063 -91.29296875 24.32226562 C-89.1701928 24.32599677 -87.04741513 24.32884326 -84.92463684 24.33084106 C-79.34330472 24.33846952 -73.76207705 24.35811133 -68.18078613 24.38024902 C-62.48316867 24.40072436 -56.78553429 24.4098464 -51.08789062 24.41992188 C-39.91271458 24.4413579 -28.73761598 24.47548442 -17.5625 24.51757812 C-17.58135254 23.54900879 -17.60020508 22.58043945 -17.61962891 21.58251953 C-17.64162354 19.68252197 -17.64162354 19.68252197 -17.6640625 17.74414062 C-17.68291504 16.48682129 -17.70176758 15.22950195 -17.72119141 13.93408203 C-17.52106182 9.62544605 -16.61206002 7.56713815 -13.5625 4.51757812 C-8.92397928 0.84929543 -5.88317332 0.01419754 0 0 Z M-104.50780946 67.58097869 C-107.05512192 72.25829748 -106.23414153 78.14191006 -106.18395996 83.33459473 C-106.18828885 84.77490982 -106.19480475 86.21521972 -106.20332003 87.65551615 C-106.22033408 91.61393702 -106.20611508 95.57172664 -106.18680525 99.53011441 C-106.17139633 103.79876243 -106.18477542 108.06733217 -106.19454956 112.33598328 C-106.2090881 120.69845095 -106.19683008 129.06067614 -106.17543632 137.42312086 C-106.15144442 147.15787464 -106.15313958 156.89257265 -106.15574223 166.62734944 C-106.15943384 183.99461801 -106.13859446 201.36177222 -106.10449219 218.72900391 C-106.07139992 235.58808279 -106.05723373 252.44704163 -106.06347656 269.30615234 C-106.07023825 287.6567828 -106.06778662 306.00736295 -106.04811716 324.35798597 C-106.04707768 325.32807076 -106.04603819 326.29815554 -106.0449672 327.29763684 C-106.04287628 329.24609746 -106.04076531 331.19455806 -106.03863403 333.14301863 C-106.03173396 339.93147569 -106.03106987 346.71991725 -106.03251648 353.50837708 C-106.03395514 361.77925968 -106.02428443 370.05004429 -106.00057012 378.32089436 C-105.98869759 382.54224424 -105.98159329 386.76345742 -105.98740768 390.98482323 C-105.99257082 394.84744762 -105.98392227 398.70978294 -105.96413308 402.57235783 C-105.95938443 403.97133798 -105.95970462 405.37034619 -105.96554345 406.76932222 C-105.97270406 408.66816067 -105.95967603 410.56704335 -105.94561005 412.4658432 C-105.94403884 413.5214134 -105.94246764 414.57698359 -105.94084883 415.66454077 C-105.50381474 418.96010956 -104.51725586 420.85077016 -102.5625 423.51757812 C-100.22398178 424.68683723 -98.8599108 424.64489134 -96.25423717 424.64900589 C-95.34417233 424.65284703 -94.43410748 424.65668818 -93.49646491 424.66064572 C-92.49016368 424.65977924 -91.48386246 424.65891276 -90.44706726 424.65802002 C-89.38307907 424.66099114 -88.31909089 424.66396226 -87.22286063 424.66702342 C-83.63383612 424.67574119 -80.04484483 424.67722126 -76.45581055 424.67871094 C-73.89223153 424.68333692 -71.3286532 424.68836128 -68.76507568 424.6937561 C-61.78367582 424.706903 -54.80228697 424.7133659 -47.82087684 424.71776676 C-43.4632281 424.72052745 -39.10558158 424.72476449 -34.74793434 424.72927094 C-22.68754942 424.74146524 -10.62716628 424.7517641 1.43322468 424.75514603 C2.20544316 424.75536559 2.97766165 424.75558516 3.77328069 424.75581138 C4.93441258 424.75613879 4.93441258 424.75613879 6.11900169 424.75647283 C7.68765152 424.7569163 9.25630134 424.75736286 10.82495117 424.7578125 C11.60305907 424.75803393 12.38116697 424.75825536 13.1828539 424.7584835 C25.79233548 424.7624319 38.40175927 424.77988648 51.01121853 424.80317202 C63.95108029 424.8268752 76.89091306 424.83934741 89.8307969 424.84051394 C97.09851138 424.84143131 104.3661506 424.84719902 111.63384438 424.86533356 C118.46853022 424.88232727 125.30307085 424.88399489 132.13777161 424.87519455 C134.64965382 424.87442141 137.16154357 424.87880313 139.6734066 424.8886528 C143.09614899 424.9012896 146.51837812 424.89554027 149.94111633 424.8850708 C150.94072539 424.89312721 151.94033445 424.90118361 152.97023469 424.90948415 C159.71660059 424.88613321 159.71660059 424.88613321 165.4375 421.51757812 C166.50096822 418.32717346 166.56497318 416.06212838 166.56892776 412.70914555 C166.57276891 411.48993414 166.57661005 410.27072273 166.5805676 409.01456553 C166.57978732 407.65449077 166.57890852 406.29441607 166.57794189 404.93434143 C166.58052484 403.4950469 166.5835378 402.05575308 166.5869453 400.61646026 C166.59502663 396.65180791 166.59680549 392.68717365 166.59754276 388.72251403 C166.59939131 384.45046175 166.60693754 380.17841891 166.61367798 375.90637207 C166.62726899 366.56153914 166.63328697 357.2167105 166.63768864 347.87186933 C166.64044927 342.04030532 166.64468625 336.20874298 166.64919281 330.3771801 C166.66138555 314.24031586 166.67168546 298.10345295 166.6750679 281.96658421 C166.67528747 280.93349949 166.67550703 279.90041477 166.67573325 278.83602446 C166.67595153 277.80043375 166.67616981 276.76484304 166.6763947 275.69787079 C166.67683817 273.5992804 166.67728473 271.50069 166.67773438 269.40209961 C166.6779558 268.3611208 166.67817723 267.32014199 166.67840537 266.24761837 C166.68235572 249.36962412 166.69981694 232.49167298 166.7230939 215.61369539 C166.74678341 198.29726935 166.75926862 180.98086497 166.76043582 163.66442245 C166.76135384 153.9369843 166.76713803 144.20960235 166.78525543 134.48217964 C166.80062394 126.20136139 166.80579611 117.9206167 166.79751733 109.63978691 C166.7935995 105.41248383 166.79459538 101.18532906 166.80857468 96.95804405 C166.82124583 93.09110024 166.82017638 89.22441718 166.80798396 85.35747408 C166.80601514 83.95574973 166.80915967 82.55400734 166.81782833 81.15230841 C166.828839 79.25218607 166.81968507 77.35197846 166.8094368 75.45185184 C166.81003389 74.39481778 166.81063097 73.33778372 166.81124616 72.24871832 C166.38214796 69.11309456 165.64284573 67.75917126 163.4375 65.51757812 C160.28415174 64.46646204 158.08237717 64.3968734 154.77270508 64.40405273 C153.03123955 64.40416603 153.03123955 64.40416603 151.2545929 64.40428162 C150.00139755 64.4094429 148.74820221 64.41460419 147.45703125 64.41992188 C146.17390549 64.42133682 144.89077972 64.42275177 143.56877136 64.42420959 C140.16079759 64.42802407 136.75286657 64.43784522 133.34490967 64.44891357 C129.86601337 64.45915069 126.38711015 64.46371214 122.90820312 64.46875 C116.08461788 64.47946845 109.26106099 64.49653204 102.4375 64.51757812 C102.29054688 65.89042969 102.29054688 65.89042969 102.140625 67.29101562 C101.99109375 68.47953125 101.8415625 69.66804688 101.6875 70.89257812 C101.54828125 72.0759375 101.4090625 73.25929688 101.265625 74.47851562 C100.4375 77.51757812 100.4375 77.51757812 98.73011875 78.69164658 C95.99783623 79.67597 93.83272674 79.76929438 90.92747498 79.77154541 C89.80722931 79.77718506 88.68698364 79.78282471 87.53279114 79.78863525 C86.30823715 79.78458679 85.08368317 79.78053833 83.82202148 79.77636719 C82.52903137 79.77987183 81.23604126 79.78337646 79.90386963 79.7869873 C76.36059147 79.79610191 72.81742984 79.79257115 69.27414966 79.78622913 C65.56663877 79.78116541 61.85913786 79.78586152 58.15162659 79.78900146 C51.92666838 79.79263957 45.70175764 79.78784563 39.47680664 79.77832031 C32.27744034 79.76743126 25.07818727 79.7709652 17.8788237 79.78197312 C11.69869499 79.79104474 5.51860039 79.79233204 -0.66153282 79.78709579 C-4.35321181 79.783976 -8.04483755 79.78356705 -11.73651314 79.79016876 C-15.84988252 79.79701091 -19.96305614 79.78753154 -24.07641602 79.77636719 C-25.30299423 79.78041565 -26.52957245 79.78446411 -27.7933197 79.78863525 C-28.91074554 79.78299561 -30.02817139 79.77735596 -31.17945862 79.77154541 C-32.1522857 79.77079136 -33.12511278 79.77003731 -34.12741947 79.76926041 C-36.5625 79.51757812 -36.5625 79.51757812 -39.5625 77.51757812 C-40.29296875 74.47851563 -40.29296875 74.47851563 -40.75 70.89257812 C-40.90855469 69.7040625 -41.06710938 68.51554687 -41.23046875 67.29101562 C-41.39482422 65.91816406 -41.39482422 65.91816406 -41.5625 64.51757812 C-49.16859388 64.40158266 -56.77459574 64.31281175 -64.38137341 64.25851727 C-67.91382845 64.23245424 -71.44567713 64.19711947 -74.9777832 64.14038086 C-79.04123661 64.07551748 -83.10405598 64.05137081 -87.16796875 64.02929688 C-88.4327153 64.00349045 -89.69746185 63.97768402 -91.00053406 63.95109558 C-92.77180412 63.9505291 -92.77180412 63.9505291 -94.57885742 63.94995117 C-95.61588303 63.93884811 -96.65290863 63.92774506 -97.72135925 63.91630554 C-100.69436354 64.5454845 -102.41675899 65.3574068 -104.50780946 67.58097869 Z " fill="#C70A50" transform="translate(225.5625,31.482421875)"/>
<path d="M0 0 C0.73250977 -0.00700928 1.46501953 -0.01401855 2.21972656 -0.02124023 C4.62604382 -0.03875584 7.03117209 -0.02722142 9.4375 -0.01367188 C11.11849186 -0.01636866 12.79948221 -0.02025264 14.48046875 -0.02526855 C17.99754743 -0.03115485 21.5142188 -0.02262896 25.03125 -0.00390625 C29.53052189 0.01888312 34.02883927 0.00575532 38.52807617 -0.01819611 C41.99746847 -0.03267779 45.46663594 -0.02803731 48.93603516 -0.01768494 C50.59456496 -0.01502418 52.25311544 -0.01826444 53.91162109 -0.02760315 C56.23329421 -0.03780834 58.55344011 -0.02221466 60.875 0 C62.19371094 0.00318237 63.51242187 0.00636475 64.87109375 0.00964355 C70.17766779 0.76541623 73.2114159 3.19811676 76.796875 7.05664062 C79.15500408 12.03117006 78.8695321 16.46662138 78.6875 21.89257812 C78.66945313 22.91480469 78.65140625 23.93703125 78.6328125 24.99023438 C78.58589491 27.50032561 78.52026729 30.00845577 78.4375 32.51757812 C79.67886719 32.48277344 80.92023438 32.44796875 82.19921875 32.41210938 C83.84113226 32.38396229 85.48306046 32.35666311 87.125 32.33007812 C87.94162109 32.30494141 88.75824219 32.27980469 89.59960938 32.25390625 C94.37765822 32.19587327 97.57173093 32.36853942 101.4375 35.51757812 C103.02756531 38.69770875 102.62167077 42.1372847 102.640625 45.63085938 C102.64632507 46.43742477 102.65202515 47.24399017 102.65789795 48.07499695 C102.66735195 49.78395271 102.67388352 51.49292673 102.67773438 53.2019043 C102.6874232 55.80940854 102.718435 58.4161189 102.75 61.0234375 C102.75653185 62.68424011 102.76178161 64.34504836 102.765625 66.00585938 C102.7779718 66.78310867 102.7903186 67.56035797 102.80303955 68.36116028 C102.78444428 72.90873296 102.36100081 75.95654176 99.4375 79.51757812 C96.36772173 80.54083755 94.26994355 80.64818787 91.05445862 80.65802002 C89.37831985 80.66658524 89.37831985 80.66658524 87.6683197 80.67532349 C86.44174149 80.67644135 85.21516327 80.6775592 83.95141602 80.67871094 C82.01455933 80.68615829 82.01455933 80.68615829 80.03857422 80.6937561 C76.49520838 80.70687135 72.95186148 80.71332306 69.40847516 80.71776676 C67.19511933 80.72069821 64.98176868 80.7248031 62.76841545 80.72927094 C55.84433598 80.74294203 48.92026834 80.75261123 41.9961763 80.75647283 C34.00105038 80.76095624 26.00609519 80.77851875 18.0110212 80.80747342 C11.83175256 80.8290762 5.65253202 80.83917631 -0.52677399 80.84051394 C-4.2179887 80.84156276 -7.90904283 80.84748692 -11.60021782 80.86533356 C-15.71592486 80.88484631 -19.83127337 80.88053093 -23.94702148 80.87402344 C-25.17157547 80.88323822 -26.39612946 80.892453 -27.65779114 80.90194702 C-28.7780368 80.89637787 -29.89828247 80.89080872 -31.05247498 80.8850708 C-32.51228114 80.88727064 -32.51228114 80.88727064 -34.00157833 80.88951492 C-37.02832321 80.44992405 -38.37892524 79.63304279 -40.5625 77.51757812 C-42.52071954 71.64291949 -41.86956286 64.92225641 -41.91259766 58.7578125 C-41.92916642 57.01776768 -41.95646889 55.27779118 -41.99462891 53.53808594 C-42.04946881 51.02308026 -42.0712786 48.50966405 -42.0859375 45.99414062 C-42.10860687 45.22002838 -42.13127625 44.44591614 -42.15463257 43.64834595 C-42.13912462 39.67233777 -41.72533284 37.73536816 -39.32006836 34.51831055 C-36.45500305 32.43958454 -35.37508088 31.91170803 -31.91796875 32.02929688 C-31.07685547 32.04541016 -30.23574219 32.06152344 -29.36914062 32.078125 C-28.50482422 32.12001953 -27.64050781 32.16191406 -26.75 32.20507812 C-25.86634766 32.22763672 -24.98269531 32.25019531 -24.07226562 32.2734375 C-21.9016109 32.33210384 -19.7318331 32.42177833 -17.5625 32.51757812 C-17.58344727 31.88255371 -17.60439453 31.2475293 -17.62597656 30.59326172 C-17.70954581 27.69319736 -17.76128774 24.79338697 -17.8125 21.89257812 C-17.84601563 20.89355469 -17.87953125 19.89453125 -17.9140625 18.86523438 C-17.99298846 12.90632449 -17.80801031 9.086422 -13.5625 4.51757812 C-8.93423261 0.83832522 -5.87868749 0.01418672 0 0 Z " fill="#F9B300" transform="translate(225.5625,31.482421875)"/>
<path d="M0 0 C3.268001 1.75768978 5.96058587 3.41035385 8.4375 6.1875 C11.66196979 4.76873329 13.80125498 3.01323309 16.3125 0.5625 C18.94654028 -1.77343925 20.13902157 -2.74226978 23.625 -3.5625 C27.50307732 -2.52834605 29.06383542 -1.02392855 31.4375 2.1875 C32.1875 5 32.1875 5 31.4375 8.1875 C28.84556952 11.94267639 25.66075122 15.09821345 22.26171875 18.125 C17.46893784 22.47092199 15.77147868 25.26724294 14.90625 31.66796875 C13.66645706 38.3318558 9.66826907 43.81269657 4.37109375 47.90234375 C-3.01466076 52.81125938 -9.693708 54.33759736 -18.5625 53.1875 C-25.93592862 51.22820843 -32.79574053 46.53754957 -36.9140625 40.0625 C-40.73243657 32.59057376 -42.0540598 24.95606259 -39.9140625 16.6796875 C-36.63417639 8.6341549 -31.32189183 2.43018876 -23.359375 -1.12109375 C-15.25469292 -4.23963446 -7.78662813 -3.82700458 0 0 Z " fill="#F8B403" transform="translate(184.5625,354.8125)"/>
<path d="M0 0 C3.268001 1.75768978 5.96058587 3.41035385 8.4375 6.1875 C11.66196979 4.76873329 13.80125498 3.01323309 16.3125 0.5625 C18.94654028 -1.77343925 20.13902157 -2.74226978 23.625 -3.5625 C27.50307732 -2.52834605 29.06383542 -1.02392855 31.4375 2.1875 C32.1875 5 32.1875 5 31.4375 8.1875 C28.84556952 11.94267639 25.66075122 15.09821345 22.26171875 18.125 C17.46893784 22.47092199 15.77147868 25.26724294 14.90625 31.66796875 C13.66645706 38.3318558 9.66826907 43.81269657 4.37109375 47.90234375 C-3.01466076 52.81125938 -9.693708 54.33759736 -18.5625 53.1875 C-25.93592862 51.22820843 -32.79574053 46.53754957 -36.9140625 40.0625 C-40.73243657 32.59057376 -42.0540598 24.95606259 -39.9140625 16.6796875 C-36.63417639 8.6341549 -31.32189183 2.43018876 -23.359375 -1.12109375 C-15.25469292 -4.23963446 -7.78662813 -3.82700458 0 0 Z " fill="#F8B403" transform="translate(184.5625,258.8125)"/>
<path d="M0 0 C3.268001 1.75768978 5.96058587 3.41035385 8.4375 6.1875 C11.66196979 4.76873329 13.80125498 3.01323309 16.3125 0.5625 C18.94654028 -1.77343925 20.13902157 -2.74226978 23.625 -3.5625 C27.50307732 -2.52834605 29.06383542 -1.02392855 31.4375 2.1875 C32.1875 5 32.1875 5 31.4375 8.1875 C28.84556952 11.94267639 25.66075122 15.09821345 22.26171875 18.125 C17.46893784 22.47092199 15.77147868 25.26724294 14.90625 31.66796875 C13.66645706 38.3318558 9.66826907 43.81269657 4.37109375 47.90234375 C-3.01466076 52.81125938 -9.693708 54.33759736 -18.5625 53.1875 C-25.93592862 51.22820843 -32.79574053 46.53754957 -36.9140625 40.0625 C-40.73243657 32.59057376 -42.0540598 24.95606259 -39.9140625 16.6796875 C-36.63417639 8.6341549 -31.32189183 2.43018876 -23.359375 -1.12109375 C-15.25469292 -4.23963446 -7.78662813 -3.82700458 0 0 Z " fill="#F8B403" transform="translate(184.5625,162.8125)"/>
<path d="M0 0 C1.28992355 -0.00554901 2.57984711 -0.01109802 3.90885925 -0.01681519 C7.44006301 -0.03104557 10.97048642 -0.01401989 14.50161552 0.00946999 C18.20017049 0.02960069 21.89869375 0.02369828 25.59729004 0.0213623 C31.80799199 0.02141585 38.01838947 0.0411583 44.22900391 0.07324219 C51.40512854 0.11013413 58.5808544 0.11891753 65.75706148 0.11194468 C72.66570695 0.10563518 79.57421594 0.11640218 86.48283386 0.13591003 C89.42052661 0.14407593 92.35814952 0.14679508 95.29585266 0.1452179 C99.3992621 0.14417419 103.50214772 0.1683704 107.60546875 0.1953125 C109.43219368 0.1909166 109.43219368 0.1909166 111.29582214 0.18643188 C112.41455215 0.19778168 113.53328217 0.20913147 114.68591309 0.2208252 C115.65559776 0.22455391 116.62528244 0.22828262 117.6243515 0.23212433 C120.81111338 0.6879518 122.7085672 1.73792472 125.30273438 3.61523438 C126.70731174 6.42438911 126.55168595 8.50333972 126.30273438 11.61523438 C124.52289033 14.75115008 123.77965231 15.45626173 120.30273438 16.61523438 C118.51273399 16.71606778 116.71923081 16.75885168 114.92642212 16.76913452 C113.81044144 16.77773499 112.69446075 16.78633545 111.54466248 16.79519653 C110.3196553 16.79945648 109.09464813 16.80371643 107.83251953 16.80810547 C105.89807228 16.8203717 105.89807228 16.8203717 103.92454529 16.83288574 C99.64698367 16.85907405 95.36941239 16.87440752 91.09179688 16.88867188 C89.6187273 16.89403237 88.1456578 16.89940988 86.67258835 16.90480423 C80.54582123 16.9264259 74.41905672 16.94516338 68.29226112 16.95642662 C59.51300601 16.97267296 50.73419294 17.00587488 41.95510447 17.06282747 C35.78091919 17.10151612 29.60685221 17.12105784 23.43254888 17.12634718 C19.74508045 17.13000143 16.05808382 17.14202981 12.37074661 17.17444992 C8.2574758 17.21009816 4.14515682 17.20616255 0.03173828 17.19873047 C-1.79969978 17.22333847 -1.79969978 17.22333847 -3.6681366 17.2484436 C-12.85362978 17.18031952 -12.85362978 17.18031952 -15.95376587 14.26626587 C-17.69726562 11.61523438 -17.69726562 11.61523438 -18.32226562 8.61523438 C-17.67913342 5.52819977 -16.86972264 3.82906284 -14.56648254 1.66398621 C-10.23282079 -0.76747889 -4.82407743 -0.05253904 0 0 Z " fill="#0A5078" transform="translate(249.697265625,391.384765625)"/>
<path d="M0 0 C1.28992355 -0.00554901 2.57984711 -0.01109802 3.90885925 -0.01681519 C7.44006301 -0.03104557 10.97048642 -0.01401989 14.50161552 0.00946999 C18.20017049 0.02960069 21.89869375 0.02369828 25.59729004 0.0213623 C31.80799199 0.02141585 38.01838947 0.0411583 44.22900391 0.07324219 C51.40512854 0.11013413 58.5808544 0.11891753 65.75706148 0.11194468 C72.66570695 0.10563518 79.57421594 0.11640218 86.48283386 0.13591003 C89.42052661 0.14407593 92.35814952 0.14679508 95.29585266 0.1452179 C99.3992621 0.14417419 103.50214772 0.1683704 107.60546875 0.1953125 C109.43219368 0.1909166 109.43219368 0.1909166 111.29582214 0.18643188 C112.41455215 0.19778168 113.53328217 0.20913147 114.68591309 0.2208252 C115.65559776 0.22455391 116.62528244 0.22828262 117.6243515 0.23212433 C120.81111338 0.6879518 122.7085672 1.73792472 125.30273438 3.61523438 C126.70731174 6.42438911 126.55168595 8.50333972 126.30273438 11.61523438 C124.52289033 14.75115008 123.77965231 15.45626173 120.30273438 16.61523438 C118.51273399 16.71606778 116.71923081 16.75885168 114.92642212 16.76913452 C113.81044144 16.77773499 112.69446075 16.78633545 111.54466248 16.79519653 C110.3196553 16.79945648 109.09464813 16.80371643 107.83251953 16.80810547 C105.89807228 16.8203717 105.89807228 16.8203717 103.92454529 16.83288574 C99.64698367 16.85907405 95.36941239 16.87440752 91.09179688 16.88867188 C89.6187273 16.89403237 88.1456578 16.89940988 86.67258835 16.90480423 C80.54582123 16.9264259 74.41905672 16.94516338 68.29226112 16.95642662 C59.51300601 16.97267296 50.73419294 17.00587488 41.95510447 17.06282747 C35.78091919 17.10151612 29.60685221 17.12105784 23.43254888 17.12634718 C19.74508045 17.13000143 16.05808382 17.14202981 12.37074661 17.17444992 C8.2574758 17.21009816 4.14515682 17.20616255 0.03173828 17.19873047 C-1.79969978 17.22333847 -1.79969978 17.22333847 -3.6681366 17.2484436 C-12.85362978 17.18031952 -12.85362978 17.18031952 -15.95376587 14.26626587 C-17.69726562 11.61523438 -17.69726562 11.61523438 -18.32226562 8.61523438 C-17.67913342 5.52819977 -16.86972264 3.82906284 -14.56648254 1.66398621 C-10.23282079 -0.76747889 -4.82407743 -0.05253904 0 0 Z " fill="#0A5078" transform="translate(249.697265625,295.384765625)"/>
<path d="M0 0 C1.28992355 -0.00554901 2.57984711 -0.01109802 3.90885925 -0.01681519 C7.44006301 -0.03104557 10.97048642 -0.01401989 14.50161552 0.00946999 C18.20017049 0.02960069 21.89869375 0.02369828 25.59729004 0.0213623 C31.80799199 0.02141585 38.01838947 0.0411583 44.22900391 0.07324219 C51.40512854 0.11013413 58.5808544 0.11891753 65.75706148 0.11194468 C72.66570695 0.10563518 79.57421594 0.11640218 86.48283386 0.13591003 C89.42052661 0.14407593 92.35814952 0.14679508 95.29585266 0.1452179 C99.3992621 0.14417419 103.50214772 0.1683704 107.60546875 0.1953125 C109.43219368 0.1909166 109.43219368 0.1909166 111.29582214 0.18643188 C112.41455215 0.19778168 113.53328217 0.20913147 114.68591309 0.2208252 C115.65559776 0.22455391 116.62528244 0.22828262 117.6243515 0.23212433 C120.81111338 0.6879518 122.7085672 1.73792472 125.30273438 3.61523438 C126.70731174 6.42438911 126.55168595 8.50333972 126.30273438 11.61523438 C124.52289033 14.75115008 123.77965231 15.45626173 120.30273438 16.61523438 C118.51273399 16.71606778 116.71923081 16.75885168 114.92642212 16.76913452 C113.81044144 16.77773499 112.69446075 16.78633545 111.54466248 16.79519653 C110.3196553 16.79945648 109.09464813 16.80371643 107.83251953 16.80810547 C105.89807228 16.8203717 105.89807228 16.8203717 103.92454529 16.83288574 C99.64698367 16.85907405 95.36941239 16.87440752 91.09179688 16.88867188 C89.6187273 16.89403237 88.1456578 16.89940988 86.67258835 16.90480423 C80.54582123 16.9264259 74.41905672 16.94516338 68.29226112 16.95642662 C59.51300601 16.97267296 50.73419294 17.00587488 41.95510447 17.06282747 C35.78091919 17.10151612 29.60685221 17.12105784 23.43254888 17.12634718 C19.74508045 17.13000143 16.05808382 17.14202981 12.37074661 17.17444992 C8.2574758 17.21009816 4.14515682 17.20616255 0.03173828 17.19873047 C-1.79969978 17.22333847 -1.79969978 17.22333847 -3.6681366 17.2484436 C-12.85362978 17.18031952 -12.85362978 17.18031952 -15.95376587 14.26626587 C-17.69726562 11.61523438 -17.69726562 11.61523438 -18.32226562 8.61523438 C-17.67913342 5.52819977 -16.86972264 3.82906284 -14.56648254 1.66398621 C-10.23282079 -0.76747889 -4.82407743 -0.05253904 0 0 Z " fill="#0A5078" transform="translate(249.697265625,199.384765625)"/>
<path d="M0 0 C0.73250977 -0.00700928 1.46501953 -0.01401855 2.21972656 -0.02124023 C4.62604382 -0.03875584 7.03117209 -0.02722142 9.4375 -0.01367188 C11.11849186 -0.01636866 12.79948221 -0.02025264 14.48046875 -0.02526855 C17.99754743 -0.03115485 21.5142188 -0.02262896 25.03125 -0.00390625 C29.53052189 0.01888312 34.02883927 0.00575532 38.52807617 -0.01819611 C41.99746847 -0.03267779 45.46663594 -0.02803731 48.93603516 -0.01768494 C50.59456496 -0.01502418 52.25311544 -0.01826444 53.91162109 -0.02760315 C56.23329421 -0.03780834 58.55344011 -0.02221466 60.875 0 C62.19371094 0.00318237 63.51242187 0.00636475 64.87109375 0.00964355 C70.11715882 0.75679843 73.13555389 3.21563202 76.8125 6.89257812 C78.4375 10.51757812 78.4375 10.51757812 78.4375 24.51757812 C46.7575 24.51757812 15.0775 24.51757812 -17.5625 24.51757812 C-17.5625 8.51757812 -17.5625 8.51757812 -13.5625 4.51757812 C-8.92397928 0.84929543 -5.88317332 0.01419754 0 0 Z " fill="#FAB300" transform="translate(225.5625,31.482421875)"/>
<path d="M0 0 C0.60906724 0.48714289 1.21813448 0.97428577 1.8456583 1.47619057 C6.38996837 3.67147035 10.4838234 3.41442008 15.46946716 3.38095093 C17.06823601 3.38797089 17.06823601 3.38797089 18.69930321 3.39513266 C22.27679358 3.40711469 25.85390316 3.39761259 29.43139648 3.38818359 C31.99379704 3.39224788 34.55619584 3.39758895 37.11859131 3.40411377 C43.35975681 3.41638765 49.60078092 3.41457112 55.84194832 3.40587585 C60.91472754 3.399101 65.98747642 3.39818172 71.06025887 3.4014473 C72.14319811 3.40213684 72.14319811 3.40213684 73.24801492 3.40284032 C74.71466987 3.4037995 76.18132481 3.40477214 77.64797974 3.4057581 C91.40227804 3.41431357 105.15651636 3.40447572 118.91080482 3.388357 C130.71083027 3.37495651 142.51076717 3.37727937 154.31079102 3.39111328 C168.01428198 3.40717123 181.71772035 3.41348658 195.42121941 3.40427649 C196.88278805 3.40332085 198.34435671 3.40237774 199.80592537 3.4014473 C200.52503894 3.40098447 201.24415251 3.40052164 201.98505739 3.40004479 C207.05082115 3.39745533 212.11655152 3.401825 217.1823101 3.40888596 C224.00228834 3.41818306 230.82207353 3.41155466 237.64204407 3.39420319 C240.14705184 3.39023203 242.65207367 3.39138308 245.15707588 3.39799118 C248.57275801 3.40617169 251.98790151 3.39592661 255.40354919 3.38095093 C256.39819905 3.38764309 257.39284891 3.39433526 258.41763967 3.40123022 C263.72148443 3.35603202 267.3788936 2.91806904 272 0 C271.96682761 1.43847561 271.89726123 2.8761407 271.8125 4.3125 C271.76029297 5.51326172 271.76029297 5.51326172 271.70703125 6.73828125 C271 9 271 9 269.11099339 10.61754799 C264.58013822 12.63095305 260.42342233 12.41384275 255.51707458 12.38095093 C253.91618904 12.38797089 253.91618904 12.38797089 252.28296238 12.39513266 C248.70080422 12.40711462 245.11902635 12.39761267 241.53686523 12.38818359 C238.97121965 12.39224783 236.40557581 12.39758888 233.8399353 12.40411377 C227.59141984 12.41638703 221.34304561 12.41457172 215.09452825 12.40587585 C210.0169645 12.39910191 204.93943106 12.39818132 199.86186409 12.4014473 C198.77805868 12.40213684 198.77805868 12.40213684 197.6723582 12.40284032 C196.20457179 12.40379949 194.73678538 12.40477213 193.26899899 12.4057581 C179.50522345 12.41431303 165.74150785 12.40447593 151.97774214 12.388357 C140.16457478 12.37495087 128.35149585 12.37728412 116.53833008 12.39111328 C102.82240644 12.40716238 89.10653532 12.41349204 75.3906036 12.40427649 C73.92850912 12.40332083 72.46641464 12.40237772 71.00432014 12.4014473 C70.28492515 12.40098447 69.56553016 12.40052164 68.82433532 12.40004479 C63.75162066 12.3974531 58.67893929 12.40182969 53.60622978 12.40888596 C46.78133307 12.41817084 39.95662952 12.41157485 33.13174057 12.39420319 C30.6226676 12.39022646 28.11358061 12.39139252 25.60451317 12.39799118 C22.18813048 12.40614966 18.77228964 12.3959537 15.35594177 12.38095093 C14.35546623 12.38764309 13.35499069 12.39433526 12.32419771 12.40123022 C10.95312729 12.38949535 10.95312729 12.38949535 9.55435848 12.37752342 C8.76573168 12.37703637 7.97710487 12.37654931 7.16458029 12.37604749 C4.42092916 11.89939937 3.03146928 10.87427969 1 9 C0.390625 6.73828125 0.390625 6.73828125 0.25 4.3125 C0.19328125 3.50425781 0.1365625 2.69601562 0.078125 1.86328125 C0.05234375 1.24839844 0.0265625 0.63351562 0 0 Z " fill="#A00028" transform="translate(120,452)"/>
<path d="M0 0 C3.21142855 2.37366458 4.71584605 3.93442268 5.75 7.8125 C3.60872644 16.91291262 -7.88237859 25.0343429 -14.38110352 31.51147461 C-16.32881803 33.45377265 -18.2710593 35.4014314 -20.21289062 37.34960938 C-21.45019983 38.58625875 -22.68781868 39.82259842 -23.92578125 41.05859375 C-24.50596512 41.64080185 -25.08614899 42.22300995 -25.68391418 42.82286072 C-30.62886669 47.73883175 -30.62886669 47.73883175 -34.625 48.5 C-39.83455179 47.72821455 -42.34705039 44.62879787 -46 41 C-47.0480008 39.97768384 -48.09619042 38.95556122 -49.14453125 37.93359375 C-58.80902346 28.43232408 -58.80902346 28.43232408 -59.375 24.1875 C-59 21 -59 21 -56.875 18.125 C-54 16 -54 16 -51.1875 15.25 C-46.3123391 16.39709668 -43.48664978 19.53560543 -40 23 C-38.7625 24.2065625 -38.7625 24.2065625 -37.5 25.4375 C-37.005 25.953125 -36.51 26.46875 -36 27 C-32.01295714 25.40247219 -29.3698311 22.60944346 -26.4296875 19.58984375 C-25.64623459 18.79858849 -25.64623459 18.79858849 -24.84695435 17.99134827 C-23.18479666 16.3114287 -21.52950195 14.62495728 -19.875 12.9375 C-18.21249027 11.24736984 -16.54854046 9.5587228 -14.88162231 7.87294006 C-13.8460278 6.82509029 -12.81311817 5.77457886 -11.78317261 4.72117615 C-7.82036622 0.70300231 -5.76124198 -0.67779317 0 0 Z " fill="#0F5276" transform="translate(211,352)"/>
<path d="M0 0 C3.21142855 2.37366458 4.71584605 3.93442268 5.75 7.8125 C3.60872644 16.91291262 -7.88237859 25.0343429 -14.38110352 31.51147461 C-16.32881803 33.45377265 -18.2710593 35.4014314 -20.21289062 37.34960938 C-21.45019983 38.58625875 -22.68781868 39.82259842 -23.92578125 41.05859375 C-24.50596512 41.64080185 -25.08614899 42.22300995 -25.68391418 42.82286072 C-30.62886669 47.73883175 -30.62886669 47.73883175 -34.625 48.5 C-39.83455179 47.72821455 -42.34705039 44.62879787 -46 41 C-47.0480008 39.97768384 -48.09619042 38.95556122 -49.14453125 37.93359375 C-58.80902346 28.43232408 -58.80902346 28.43232408 -59.375 24.1875 C-59 21 -59 21 -56.875 18.125 C-54 16 -54 16 -51.1875 15.25 C-46.3123391 16.39709668 -43.48664978 19.53560543 -40 23 C-38.7625 24.2065625 -38.7625 24.2065625 -37.5 25.4375 C-37.005 25.953125 -36.51 26.46875 -36 27 C-32.01295714 25.40247219 -29.3698311 22.60944346 -26.4296875 19.58984375 C-25.64623459 18.79858849 -25.64623459 18.79858849 -24.84695435 17.99134827 C-23.18479666 16.3114287 -21.52950195 14.62495728 -19.875 12.9375 C-18.21249027 11.24736984 -16.54854046 9.5587228 -14.88162231 7.87294006 C-13.8460278 6.82509029 -12.81311817 5.77457886 -11.78317261 4.72117615 C-7.82036622 0.70300231 -5.76124198 -0.67779317 0 0 Z " fill="#0F5276" transform="translate(211,256)"/>
<path d="M0 0 C3.21142855 2.37366458 4.71584605 3.93442268 5.75 7.8125 C3.60872644 16.91291262 -7.88237859 25.0343429 -14.38110352 31.51147461 C-16.32881803 33.45377265 -18.2710593 35.4014314 -20.21289062 37.34960938 C-21.45019983 38.58625875 -22.68781868 39.82259842 -23.92578125 41.05859375 C-24.50596512 41.64080185 -25.08614899 42.22300995 -25.68391418 42.82286072 C-30.62886669 47.73883175 -30.62886669 47.73883175 -34.625 48.5 C-39.83455179 47.72821455 -42.34705039 44.62879787 -46 41 C-47.0480008 39.97768384 -48.09619042 38.95556122 -49.14453125 37.93359375 C-58.80902346 28.43232408 -58.80902346 28.43232408 -59.375 24.1875 C-59 21 -59 21 -56.875 18.125 C-54 16 -54 16 -51.1875 15.25 C-46.3123391 16.39709668 -43.48664978 19.53560543 -40 23 C-38.7625 24.2065625 -38.7625 24.2065625 -37.5 25.4375 C-37.005 25.953125 -36.51 26.46875 -36 27 C-32.01295714 25.40247219 -29.3698311 22.60944346 -26.4296875 19.58984375 C-25.64623459 18.79858849 -25.64623459 18.79858849 -24.84695435 17.99134827 C-23.18479666 16.3114287 -21.52950195 14.62495728 -19.875 12.9375 C-18.21249027 11.24736984 -16.54854046 9.5587228 -14.88162231 7.87294006 C-13.8460278 6.82509029 -12.81311817 5.77457886 -11.78317261 4.72117615 C-7.82036622 0.70300231 -5.76124198 -0.67779317 0 0 Z " fill="#0F5276" transform="translate(211,160)"/>
<path d="M0 0 C0.66569504 -0.00554901 1.33139008 -0.01109802 2.01725769 -0.01681519 C4.20691044 -0.02857861 6.39447797 -0.00437471 8.58398438 0.02148438 C10.11185614 0.02319649 11.63973084 0.02312877 13.16760254 0.0213623 C16.36543997 0.02301365 19.56257476 0.04167599 22.76025391 0.07324219 C26.85265379 0.1129199 30.94413402 0.11728643 35.03668976 0.10977936 C38.19037249 0.1067051 41.3438497 0.11884625 44.4974823 0.13591003 C46.00610565 0.14292529 47.5147523 0.14606636 49.02339172 0.1452179 C51.13450962 0.14702221 53.24453978 0.16845545 55.35546875 0.1953125 C57.15485901 0.20794128 57.15485901 0.20794128 58.99060059 0.2208252 C62.47938538 0.65256382 64.38053785 1.52169287 67.17773438 3.61523438 C68.58231174 6.42438911 68.42668595 8.50333972 68.17773438 11.61523438 C66.39789033 14.75115008 65.65465231 15.45626173 62.17773438 16.61523438 C59.98138324 16.72994826 57.78173889 16.78461539 55.58251953 16.80810547 C54.91711655 16.81628296 54.25171356 16.82446045 53.56614685 16.83288574 C51.36637258 16.85767791 49.16666249 16.87423814 46.96679688 16.88867188 C46.21454205 16.89399555 45.46228722 16.89931923 44.68723679 16.90480423 C40.70686615 16.93150667 36.72652659 16.95089235 32.74609375 16.96533203 C29.45381955 16.97868118 26.16216371 17.00655447 22.87011719 17.04736328 C18.89194295 17.09667402 14.9143303 17.12145046 10.93586349 17.12855911 C9.42158246 17.13527098 7.90731392 17.15049166 6.39320755 17.17444992 C4.27205411 17.20610378 2.15306628 17.20614005 0.03173828 17.19873047 C-1.77670059 17.21086075 -1.77670059 17.21086075 -3.62167358 17.22323608 C-7.75547101 16.43795765 -9.23531615 14.86445309 -11.82226562 11.61523438 C-12.44726562 8.61523438 -12.44726562 8.61523438 -11.82226562 5.61523438 C-8.14529699 1.00473595 -5.84277586 -0.01000643 0 0 Z " fill="#0B5178" transform="translate(243.822265625,351.384765625)"/>
<path d="M0 0 C0.66569504 -0.00554901 1.33139008 -0.01109802 2.01725769 -0.01681519 C4.20691044 -0.02857861 6.39447797 -0.00437471 8.58398438 0.02148438 C10.11185614 0.02319649 11.63973084 0.02312877 13.16760254 0.0213623 C16.36543997 0.02301365 19.56257476 0.04167599 22.76025391 0.07324219 C26.85265379 0.1129199 30.94413402 0.11728643 35.03668976 0.10977936 C38.19037249 0.1067051 41.3438497 0.11884625 44.4974823 0.13591003 C46.00610565 0.14292529 47.5147523 0.14606636 49.02339172 0.1452179 C51.13450962 0.14702221 53.24453978 0.16845545 55.35546875 0.1953125 C57.15485901 0.20794128 57.15485901 0.20794128 58.99060059 0.2208252 C62.47938538 0.65256382 64.38053785 1.52169287 67.17773438 3.61523438 C68.58231174 6.42438911 68.42668595 8.50333972 68.17773438 11.61523438 C66.39789033 14.75115008 65.65465231 15.45626173 62.17773438 16.61523438 C59.98138324 16.72994826 57.78173889 16.78461539 55.58251953 16.80810547 C54.91711655 16.81628296 54.25171356 16.82446045 53.56614685 16.83288574 C51.36637258 16.85767791 49.16666249 16.87423814 46.96679688 16.88867188 C46.21454205 16.89399555 45.46228722 16.89931923 44.68723679 16.90480423 C40.70686615 16.93150667 36.72652659 16.95089235 32.74609375 16.96533203 C29.45381955 16.97868118 26.16216371 17.00655447 22.87011719 17.04736328 C18.89194295 17.09667402 14.9143303 17.12145046 10.93586349 17.12855911 C9.42158246 17.13527098 7.90731392 17.15049166 6.39320755 17.17444992 C4.27205411 17.20610378 2.15306628 17.20614005 0.03173828 17.19873047 C-1.77670059 17.21086075 -1.77670059 17.21086075 -3.62167358 17.22323608 C-7.75547101 16.43795765 -9.23531615 14.86445309 -11.82226562 11.61523438 C-12.44726562 8.61523438 -12.44726562 8.61523438 -11.82226562 5.61523438 C-8.14529699 1.00473595 -5.84277586 -0.01000643 0 0 Z " fill="#0B5178" transform="translate(243.822265625,255.384765625)"/>
<path d="M0 0 C0.66569504 -0.00554901 1.33139008 -0.01109802 2.01725769 -0.01681519 C4.20691044 -0.02857861 6.39447797 -0.00437471 8.58398438 0.02148438 C10.11185614 0.02319649 11.63973084 0.02312877 13.16760254 0.0213623 C16.36543997 0.02301365 19.56257476 0.04167599 22.76025391 0.07324219 C26.85265379 0.1129199 30.94413402 0.11728643 35.03668976 0.10977936 C38.19037249 0.1067051 41.3438497 0.11884625 44.4974823 0.13591003 C46.00610565 0.14292529 47.5147523 0.14606636 49.02339172 0.1452179 C51.13450962 0.14702221 53.24453978 0.16845545 55.35546875 0.1953125 C57.15485901 0.20794128 57.15485901 0.20794128 58.99060059 0.2208252 C62.47938538 0.65256382 64.38053785 1.52169287 67.17773438 3.61523438 C68.58231174 6.42438911 68.42668595 8.50333972 68.17773438 11.61523438 C66.39789033 14.75115008 65.65465231 15.45626173 62.17773438 16.61523438 C59.98138324 16.72994826 57.78173889 16.78461539 55.58251953 16.80810547 C54.91711655 16.81628296 54.25171356 16.82446045 53.56614685 16.83288574 C51.36637258 16.85767791 49.16666249 16.87423814 46.96679688 16.88867188 C46.21454205 16.89399555 45.46228722 16.89931923 44.68723679 16.90480423 C40.70686615 16.93150667 36.72652659 16.95089235 32.74609375 16.96533203 C29.45381955 16.97868118 26.16216371 17.00655447 22.87011719 17.04736328 C18.89194295 17.09667402 14.9143303 17.12145046 10.93586349 17.12855911 C9.42158246 17.13527098 7.90731392 17.15049166 6.39320755 17.17444992 C4.27205411 17.20610378 2.15306628 17.20614005 0.03173828 17.19873047 C-1.77670059 17.21086075 -1.77670059 17.21086075 -3.62167358 17.22323608 C-7.75547101 16.43795765 -9.23531615 14.86445309 -11.82226562 11.61523438 C-12.44726562 8.61523438 -12.44726562 8.61523438 -11.82226562 5.61523438 C-8.14529699 1.00473595 -5.84277586 -0.01000643 0 0 Z " fill="#0B5178" transform="translate(243.822265625,159.384765625)"/>
<path d="M0 0 C0.84418739 1.21895714 0.84418739 1.21895714 1.70542908 2.46253967 C5.2759255 5.98673822 9.23108199 5.60259384 14.01802063 5.64431763 C15.23740829 5.62948334 16.45679596 5.61464905 17.71313477 5.59936523 C19.65042953 5.60527931 19.65042953 5.60527931 21.62686157 5.61131287 C25.16215194 5.62127699 28.6966389 5.60013642 32.23181272 5.57283282 C35.93349211 5.54897844 39.63515624 5.55194759 43.3368988 5.55152893 C49.55180438 5.54690298 55.7664033 5.52327466 61.98120117 5.48706055 C69.16524666 5.44530984 76.34901616 5.42774451 83.533176 5.4244408 C91.18465975 5.42084046 98.83604428 5.40196608 106.4874866 5.37732053 C108.69127426 5.37109412 110.89505436 5.36745644 113.09884834 5.36428642 C117.20477304 5.35728635 121.31041467 5.33289336 125.41625977 5.30639648 C127.24837761 5.30539948 127.24837761 5.30539948 129.11750793 5.30438232 C130.79354095 5.28941963 130.79354095 5.28941963 132.50343323 5.27415466 C133.4740397 5.26950416 134.44464617 5.26485365 135.44466496 5.26006222 C138.15013256 4.98472067 139.73548426 4.48771452 142 3 C142.66 2.01 143.32 1.02 144 0 C144.44680851 8.78723404 144.44680851 8.78723404 141 13 C137.93022173 14.02325942 135.83244355 14.13060974 132.61695862 14.14044189 C131.49953278 14.14615204 130.38210693 14.15186218 129.2308197 14.15774536 C128.00424149 14.15886322 126.77766327 14.15998108 125.51391602 14.16113281 C123.57705933 14.16858017 123.57705933 14.16858017 121.60107422 14.17617798 C118.05770838 14.18929322 114.51436148 14.19574493 110.97097516 14.20018864 C108.75761933 14.20312008 106.54426868 14.20722497 104.33091545 14.21169281 C97.40683598 14.2253639 90.48276834 14.23503311 83.5586763 14.2388947 C75.56355038 14.24337811 67.56859519 14.26094063 59.5735212 14.2898953 C53.39425256 14.31149807 47.21503202 14.32159819 41.03572601 14.32293582 C37.3445113 14.32398464 33.65345717 14.32990879 29.96228218 14.34775543 C25.84657514 14.36726819 21.73122663 14.3629528 17.61547852 14.35644531 C16.39092453 14.3656601 15.16637054 14.37487488 13.90470886 14.3843689 C12.22434036 14.37601517 12.22434036 14.37601517 10.51002502 14.36749268 C9.05021886 14.36969252 9.05021886 14.36969252 7.56092167 14.3719368 C4.53417679 13.93234592 3.18357476 13.11546467 1 11 C-0.28317892 7.15046324 -0.06643637 4.05261865 0 0 Z " fill="#D2D2D1" transform="translate(184,106)"/>
<path d="M0 0 C0.5627916 0.64997955 1.12558319 1.29995911 1.70542908 1.96963501 C6.82506425 5.1247433 11.81369993 4.54021454 17.71313477 4.48583984 C19.00466461 4.48963654 20.29619446 4.49343323 21.62686157 4.49734497 C25.16203456 4.50702216 28.69670097 4.49175653 32.23181272 4.47143888 C35.93350203 4.45384612 39.63517621 4.45739338 43.3368988 4.4581604 C49.55175228 4.45628862 55.76641019 4.43894038 61.98120117 4.41162109 C69.16524281 4.38015772 76.34907044 4.36962545 83.533176 4.3710922 C91.18464864 4.37244336 98.83603884 4.35856094 106.4874866 4.34019899 C108.69127704 4.33593775 110.89505416 4.33451683 113.09884834 4.33372116 C117.20475481 4.33133806 121.31040834 4.31191082 125.41625977 4.29052734 C126.63767166 4.29143372 127.85908356 4.29234009 129.11750793 4.29327393 C130.23486328 4.28474396 131.35221863 4.27621399 132.50343323 4.26742554 C133.4740397 4.26407385 134.44464617 4.26072216 135.44466496 4.25726891 C139.26124776 3.87301867 141.31062935 2.68937065 144 0 C144.29201904 4.96432365 144.14707573 8.03701574 141 12 C137.93022173 13.02325942 135.83244355 13.13060974 132.61695862 13.14044189 C131.49953278 13.14615204 130.38210693 13.15186218 129.2308197 13.15774536 C128.00424149 13.15886322 126.77766327 13.15998108 125.51391602 13.16113281 C123.57705933 13.16858017 123.57705933 13.16858017 121.60107422 13.17617798 C118.05770838 13.18929322 114.51436148 13.19574493 110.97097516 13.20018864 C108.75761933 13.20312008 106.54426868 13.20722497 104.33091545 13.21169281 C97.40683598 13.2253639 90.48276834 13.23503311 83.5586763 13.2388947 C75.56355038 13.24337811 67.56859519 13.26094063 59.5735212 13.2898953 C53.39425256 13.31149807 47.21503202 13.32159819 41.03572601 13.32293582 C37.3445113 13.32398464 33.65345717 13.32990879 29.96228218 13.34775543 C25.84657514 13.36726819 21.73122663 13.3629528 17.61547852 13.35644531 C16.39092453 13.3656601 15.16637054 13.37487488 13.90470886 13.3843689 C12.22434036 13.37601517 12.22434036 13.37601517 10.51002502 13.36749268 C9.05021886 13.36969252 9.05021886 13.36969252 7.56092167 13.3719368 C4.53417679 12.93234592 3.18357476 12.11546467 1 10 C-0.1577506 6.52674819 -0.06866652 3.63932552 0 0 Z " fill="#D1D2D2" transform="translate(232,403)"/>
<path d="M0 0 C0.5627916 0.64997955 1.12558319 1.29995911 1.70542908 1.96963501 C6.82506425 5.1247433 11.81369993 4.54021454 17.71313477 4.48583984 C19.00466461 4.48963654 20.29619446 4.49343323 21.62686157 4.49734497 C25.16203456 4.50702216 28.69670097 4.49175653 32.23181272 4.47143888 C35.93350203 4.45384612 39.63517621 4.45739338 43.3368988 4.4581604 C49.55175228 4.45628862 55.76641019 4.43894038 61.98120117 4.41162109 C69.16524281 4.38015772 76.34907044 4.36962545 83.533176 4.3710922 C91.18464864 4.37244336 98.83603884 4.35856094 106.4874866 4.34019899 C108.69127704 4.33593775 110.89505416 4.33451683 113.09884834 4.33372116 C117.20475481 4.33133806 121.31040834 4.31191082 125.41625977 4.29052734 C126.63767166 4.29143372 127.85908356 4.29234009 129.11750793 4.29327393 C130.23486328 4.28474396 131.35221863 4.27621399 132.50343323 4.26742554 C133.4740397 4.26407385 134.44464617 4.26072216 135.44466496 4.25726891 C139.26124776 3.87301867 141.31062935 2.68937065 144 0 C144.29201904 4.96432365 144.14707573 8.03701574 141 12 C137.93022173 13.02325942 135.83244355 13.13060974 132.61695862 13.14044189 C131.49953278 13.14615204 130.38210693 13.15186218 129.2308197 13.15774536 C128.00424149 13.15886322 126.77766327 13.15998108 125.51391602 13.16113281 C123.57705933 13.16858017 123.57705933 13.16858017 121.60107422 13.17617798 C118.05770838 13.18929322 114.51436148 13.19574493 110.97097516 13.20018864 C108.75761933 13.20312008 106.54426868 13.20722497 104.33091545 13.21169281 C97.40683598 13.2253639 90.48276834 13.23503311 83.5586763 13.2388947 C75.56355038 13.24337811 67.56859519 13.26094063 59.5735212 13.2898953 C53.39425256 13.31149807 47.21503202 13.32159819 41.03572601 13.32293582 C37.3445113 13.32398464 33.65345717 13.32990879 29.96228218 13.34775543 C25.84657514 13.36726819 21.73122663 13.3629528 17.61547852 13.35644531 C16.39092453 13.3656601 15.16637054 13.37487488 13.90470886 13.3843689 C12.22434036 13.37601517 12.22434036 13.37601517 10.51002502 13.36749268 C9.05021886 13.36969252 9.05021886 13.36969252 7.56092167 13.3719368 C4.53417679 12.93234592 3.18357476 12.11546467 1 10 C-0.1577506 6.52674819 -0.06866652 3.63932552 0 0 Z " fill="#D1D2D2" transform="translate(232,307)"/>
<path d="M0 0 C0.5627916 0.64997955 1.12558319 1.29995911 1.70542908 1.96963501 C6.82506425 5.1247433 11.81369993 4.54021454 17.71313477 4.48583984 C19.00466461 4.48963654 20.29619446 4.49343323 21.62686157 4.49734497 C25.16203456 4.50702216 28.69670097 4.49175653 32.23181272 4.47143888 C35.93350203 4.45384612 39.63517621 4.45739338 43.3368988 4.4581604 C49.55175228 4.45628862 55.76641019 4.43894038 61.98120117 4.41162109 C69.16524281 4.38015772 76.34907044 4.36962545 83.533176 4.3710922 C91.18464864 4.37244336 98.83603884 4.35856094 106.4874866 4.34019899 C108.69127704 4.33593775 110.89505416 4.33451683 113.09884834 4.33372116 C117.20475481 4.33133806 121.31040834 4.31191082 125.41625977 4.29052734 C126.63767166 4.29143372 127.85908356 4.29234009 129.11750793 4.29327393 C130.23486328 4.28474396 131.35221863 4.27621399 132.50343323 4.26742554 C133.4740397 4.26407385 134.44464617 4.26072216 135.44466496 4.25726891 C139.26124776 3.87301867 141.31062935 2.68937065 144 0 C144.29201904 4.96432365 144.14707573 8.03701574 141 12 C137.93022173 13.02325942 135.83244355 13.13060974 132.61695862 13.14044189 C131.49953278 13.14615204 130.38210693 13.15186218 129.2308197 13.15774536 C128.00424149 13.15886322 126.77766327 13.15998108 125.51391602 13.16113281 C123.57705933 13.16858017 123.57705933 13.16858017 121.60107422 13.17617798 C118.05770838 13.18929322 114.51436148 13.19574493 110.97097516 13.20018864 C108.75761933 13.20312008 106.54426868 13.20722497 104.33091545 13.21169281 C97.40683598 13.2253639 90.48276834 13.23503311 83.5586763 13.2388947 C75.56355038 13.24337811 67.56859519 13.26094063 59.5735212 13.2898953 C53.39425256 13.31149807 47.21503202 13.32159819 41.03572601 13.32293582 C37.3445113 13.32398464 33.65345717 13.32990879 29.96228218 13.34775543 C25.84657514 13.36726819 21.73122663 13.3629528 17.61547852 13.35644531 C16.39092453 13.3656601 15.16637054 13.37487488 13.90470886 13.3843689 C12.22434036 13.37601517 12.22434036 13.37601517 10.51002502 13.36749268 C9.05021886 13.36969252 9.05021886 13.36969252 7.56092167 13.3719368 C4.53417679 12.93234592 3.18357476 12.11546467 1 10 C-0.1577506 6.52674819 -0.06866652 3.63932552 0 0 Z " fill="#D1D2D2" transform="translate(232,211)"/>
<path d="M0 0 C31.68 0 63.36 0 96 0 C96 2.64 96 5.28 96 8 C64.32 8 32.64 8 0 8 C0 5.36 0 2.72 0 0 Z " fill="#DC9600" transform="translate(208,56)"/>
<path d="M0 0 C1.02594521 0.97496933 1.02594521 0.97496933 2.07261658 1.96963501 C5.64075536 4.444413 7.53069692 4.49604794 11.83813477 4.48583984 C12.83908676 4.49153488 12.83908676 4.49153488 13.86026001 4.49734497 C16.05446167 4.50472293 18.24732338 4.48341143 20.44140625 4.4609375 C21.97167302 4.45855153 23.50194276 4.45764808 25.0322113 4.4581604 C28.23414537 4.45503727 31.43563012 4.43850879 34.63745117 4.41162109 C38.73878572 4.37761301 42.83962773 4.36999364 46.94108677 4.37151146 C50.0989806 4.37096732 53.25676707 4.35999355 56.41462517 4.34550858 C57.92687099 4.33915143 59.43912895 4.33520422 60.95138741 4.33372116 C63.0648885 4.32937813 65.17787052 4.31185727 67.29125977 4.29052734 C69.09398094 4.27909195 69.09398094 4.27909195 70.93312073 4.26742554 C75.07686472 3.90609962 77.0878426 2.9121574 80 0 C80.29201904 4.96432365 80.14707573 8.03701574 77 12 C73.59866333 13.13377889 70.97595778 13.14084176 67.38891602 13.16113281 C66.72190674 13.16609772 66.05489746 13.17106262 65.36767578 13.17617798 C63.16307542 13.19077284 60.95854697 13.19759638 58.75390625 13.203125 C57.2207794 13.20887777 55.68765257 13.21463549 54.15452576 13.22039795 C50.94082301 13.2308997 47.72714522 13.23674806 44.51342773 13.24023438 C40.39631983 13.24572358 36.2795419 13.26976389 32.16253757 13.29820633 C28.99609919 13.31683097 25.82974041 13.32203816 22.66325188 13.32357025 C21.14539723 13.3265967 19.62754399 13.334625 18.10974312 13.34775543 C15.98639915 13.36481624 13.86386327 13.3629364 11.74047852 13.35644531 C10.53263199 13.36009094 9.32478546 13.36373657 8.08033752 13.36749268 C4.7216871 12.96679651 3.35437859 12.38881028 1 10 C-0.1577506 6.52674819 -0.06866652 3.63932552 0 0 Z " fill="#D1D2D2" transform="translate(232,363)"/>
<path d="M0 0 C1.02594521 0.97496933 1.02594521 0.97496933 2.07261658 1.96963501 C5.64075536 4.444413 7.53069692 4.49604794 11.83813477 4.48583984 C12.83908676 4.49153488 12.83908676 4.49153488 13.86026001 4.49734497 C16.05446167 4.50472293 18.24732338 4.48341143 20.44140625 4.4609375 C21.97167302 4.45855153 23.50194276 4.45764808 25.0322113 4.4581604 C28.23414537 4.45503727 31.43563012 4.43850879 34.63745117 4.41162109 C38.73878572 4.37761301 42.83962773 4.36999364 46.94108677 4.37151146 C50.0989806 4.37096732 53.25676707 4.35999355 56.41462517 4.34550858 C57.92687099 4.33915143 59.43912895 4.33520422 60.95138741 4.33372116 C63.0648885 4.32937813 65.17787052 4.31185727 67.29125977 4.29052734 C69.09398094 4.27909195 69.09398094 4.27909195 70.93312073 4.26742554 C75.07686472 3.90609962 77.0878426 2.9121574 80 0 C80.29201904 4.96432365 80.14707573 8.03701574 77 12 C73.59866333 13.13377889 70.97595778 13.14084176 67.38891602 13.16113281 C66.72190674 13.16609772 66.05489746 13.17106262 65.36767578 13.17617798 C63.16307542 13.19077284 60.95854697 13.19759638 58.75390625 13.203125 C57.2207794 13.20887777 55.68765257 13.21463549 54.15452576 13.22039795 C50.94082301 13.2308997 47.72714522 13.23674806 44.51342773 13.24023438 C40.39631983 13.24572358 36.2795419 13.26976389 32.16253757 13.29820633 C28.99609919 13.31683097 25.82974041 13.32203816 22.66325188 13.32357025 C21.14539723 13.3265967 19.62754399 13.334625 18.10974312 13.34775543 C15.98639915 13.36481624 13.86386327 13.3629364 11.74047852 13.35644531 C10.53263199 13.36009094 9.32478546 13.36373657 8.08033752 13.36749268 C4.7216871 12.96679651 3.35437859 12.38881028 1 10 C-0.1577506 6.52674819 -0.06866652 3.63932552 0 0 Z " fill="#D1D2D2" transform="translate(232,267)"/>
<path d="M0 0 C1.02594521 0.97496933 1.02594521 0.97496933 2.07261658 1.96963501 C5.64075536 4.444413 7.53069692 4.49604794 11.83813477 4.48583984 C12.83908676 4.49153488 12.83908676 4.49153488 13.86026001 4.49734497 C16.05446167 4.50472293 18.24732338 4.48341143 20.44140625 4.4609375 C21.97167302 4.45855153 23.50194276 4.45764808 25.0322113 4.4581604 C28.23414537 4.45503727 31.43563012 4.43850879 34.63745117 4.41162109 C38.73878572 4.37761301 42.83962773 4.36999364 46.94108677 4.37151146 C50.0989806 4.37096732 53.25676707 4.35999355 56.41462517 4.34550858 C57.92687099 4.33915143 59.43912895 4.33520422 60.95138741 4.33372116 C63.0648885 4.32937813 65.17787052 4.31185727 67.29125977 4.29052734 C69.09398094 4.27909195 69.09398094 4.27909195 70.93312073 4.26742554 C75.07686472 3.90609962 77.0878426 2.9121574 80 0 C80.29201904 4.96432365 80.14707573 8.03701574 77 12 C73.59866333 13.13377889 70.97595778 13.14084176 67.38891602 13.16113281 C66.72190674 13.16609772 66.05489746 13.17106262 65.36767578 13.17617798 C63.16307542 13.19077284 60.95854697 13.19759638 58.75390625 13.203125 C57.2207794 13.20887777 55.68765257 13.21463549 54.15452576 13.22039795 C50.94082301 13.2308997 47.72714522 13.23674806 44.51342773 13.24023438 C40.39631983 13.24572358 36.2795419 13.26976389 32.16253757 13.29820633 C28.99609919 13.31683097 25.82974041 13.32203816 22.66325188 13.32357025 C21.14539723 13.3265967 19.62754399 13.334625 18.10974312 13.34775543 C15.98639915 13.36481624 13.86386327 13.3629364 11.74047852 13.35644531 C10.53263199 13.36009094 9.32478546 13.36373657 8.08033752 13.36749268 C4.7216871 12.96679651 3.35437859 12.38881028 1 10 C-0.1577506 6.52674819 -0.06866652 3.63932552 0 0 Z " fill="#D1D2D2" transform="translate(232,171)"/>
<path d="M0 0 C0.33 0 0.66 0 1 0 C1.30258595 5.14396121 0.98300247 7.81256348 -2 12 C-3.45959972 13.43357119 -4.92212835 14.86522059 -6.42944336 16.24853516 C-13.10773817 22.34070822 -13.10773817 22.34070822 -15.671875 30.77734375 C-16.66421007 37.49923251 -20.64034686 43.67824426 -25.99609375 47.75 C-33.18208145 52.23248745 -40.53773165 54.49876687 -49 53 C-57.82535264 49.96974107 -64.60903683 45.26962254 -69.0859375 36.9921875 C-71.10901406 32.25930196 -71.2734271 28.10397253 -71 23 C-69.44107761 25.33838358 -68.45790441 27.2198495 -67.375 29.75 C-64.37088659 35.79160585 -59.40717342 40.19242685 -53.25 42.9375 C-45.32096979 45.38434917 -38.05152182 44.88461539 -30.5625 41.375 C-22.7882202 37.02667401 -18.76517542 31.47173843 -16 23 C-15.91492188 21.35257812 -15.91492188 21.35257812 -15.828125 19.671875 C-14.66320283 14.50665407 -11.81581373 12.18407735 -8 8.6875 C-6.7065764 7.46409441 -5.41482489 6.23891785 -4.125 5.01171875 C-3.55007812 4.48022217 -2.97515625 3.94872559 -2.3828125 3.40112305 C-0.88494523 2.02820827 -0.88494523 2.02820827 0 0 Z " fill="#D3D2D0" transform="translate(215,363)"/>
<path d="M0 0 C0.33 0 0.66 0 1 0 C1.30258595 5.14396121 0.98300247 7.81256348 -2 12 C-3.45959972 13.43357119 -4.92212835 14.86522059 -6.42944336 16.24853516 C-13.10773817 22.34070822 -13.10773817 22.34070822 -15.671875 30.77734375 C-16.66421007 37.49923251 -20.64034686 43.67824426 -25.99609375 47.75 C-33.18208145 52.23248745 -40.53773165 54.49876687 -49 53 C-57.82535264 49.96974107 -64.60903683 45.26962254 -69.0859375 36.9921875 C-71.10901406 32.25930196 -71.2734271 28.10397253 -71 23 C-69.44107761 25.33838358 -68.45790441 27.2198495 -67.375 29.75 C-64.37088659 35.79160585 -59.40717342 40.19242685 -53.25 42.9375 C-45.32096979 45.38434917 -38.05152182 44.88461539 -30.5625 41.375 C-22.7882202 37.02667401 -18.76517542 31.47173843 -16 23 C-15.91492188 21.35257812 -15.91492188 21.35257812 -15.828125 19.671875 C-14.66320283 14.50665407 -11.81581373 12.18407735 -8 8.6875 C-6.7065764 7.46409441 -5.41482489 6.23891785 -4.125 5.01171875 C-3.55007812 4.48022217 -2.97515625 3.94872559 -2.3828125 3.40112305 C-0.88494523 2.02820827 -0.88494523 2.02820827 0 0 Z " fill="#D3D2D0" transform="translate(215,267)"/>
<path d="M0 0 C0.33 0 0.66 0 1 0 C1.30258595 5.14396121 0.98300247 7.81256348 -2 12 C-3.45959972 13.43357119 -4.92212835 14.86522059 -6.42944336 16.24853516 C-13.10773817 22.34070822 -13.10773817 22.34070822 -15.671875 30.77734375 C-16.66421007 37.49923251 -20.64034686 43.67824426 -25.99609375 47.75 C-33.18208145 52.23248745 -40.53773165 54.49876687 -49 53 C-57.82535264 49.96974107 -64.60903683 45.26962254 -69.0859375 36.9921875 C-71.10901406 32.25930196 -71.2734271 28.10397253 -71 23 C-69.44107761 25.33838358 -68.45790441 27.2198495 -67.375 29.75 C-64.37088659 35.79160585 -59.40717342 40.19242685 -53.25 42.9375 C-45.32096979 45.38434917 -38.05152182 44.88461539 -30.5625 41.375 C-22.7882202 37.02667401 -18.76517542 31.47173843 -16 23 C-15.91492188 21.35257813 -15.91492188 21.35257813 -15.828125 19.671875 C-14.66320283 14.50665407 -11.81581373 12.18407735 -8 8.6875 C-6.7065764 7.46409441 -5.41482489 6.23891785 -4.125 5.01171875 C-3.55007812 4.48022217 -2.97515625 3.94872559 -2.3828125 3.40112305 C-0.88494523 2.02820827 -0.88494523 2.02820827 0 0 Z " fill="#D3D2D0" transform="translate(215,171)"/>
<path d="M0 0 C4.08998175 1.80720124 6.66247347 4.19069751 9 8 C9.62819266 13.0255413 9.03320735 15.95572354 6 20 C3.24705395 23.21177039 0.96958591 23.86947882 -3.25 24.4375 C-8.1843364 23.86182742 -10.79803186 21.71753928 -14 18 C-15.23534045 14.29397865 -15.45528745 11.90246386 -15 8 C-10.91704021 1.64314568 -7.65816344 -0.51919752 0 0 Z " fill="#0F5275" transform="translate(303,76)"/>
<path d="M0 0 C4.08998175 1.80720124 6.66247347 4.19069751 9 8 C9.62819266 13.0255413 9.03320735 15.95572354 6 20 C3.24705395 23.21177039 0.96958591 23.86947882 -3.25 24.4375 C-8.1843364 23.86182742 -10.79803186 21.71753928 -14 18 C-15.23534045 14.29397865 -15.45528745 11.90246386 -15 8 C-10.91704021 1.64314568 -7.65816344 -0.51919752 0 0 Z " fill="#0F5275" transform="translate(215,76)"/>
</svg>
