<?xml version="1.0" encoding="UTF-8"?>
<svg version="1.1" xmlns="http://www.w3.org/2000/svg" width="512" height="512">
<path d="M0 0 C7.52735904 4.48853632 11.93185993 10.28063521 15.421875 18.2578125 C16.28588231 22.02802621 16.15296605 25.39009771 16.109375 29.2578125 C17.42131836 29.23686523 18.73326172 29.21591797 20.08496094 29.19433594 C24.95268844 29.1219328 29.82036835 29.07601137 34.68847656 29.03808594 C36.79532882 29.01797124 38.90212525 28.99067583 41.00878906 28.95605469 C44.03724947 28.90753082 47.06497178 28.88484234 50.09375 28.8671875 C51.50645172 28.83621979 51.50645172 28.83621979 52.94769287 28.80462646 C53.82830383 28.80432434 54.70891479 28.80402222 55.61621094 28.80371094 C56.38898376 28.79482849 57.16175659 28.78594604 57.95794678 28.77679443 C61.08009902 29.47484776 62.22947444 30.69799153 64.109375 33.2578125 C64.5 36.2734375 64.5 36.2734375 64.359375 39.5078125 C64.32328125 40.58546875 64.2871875 41.663125 64.25 42.7734375 C64.20359375 43.59328125 64.1571875 44.413125 64.109375 45.2578125 C64.98919037 45.24893005 65.86900574 45.24004761 66.77548218 45.230896 C75.10165069 45.1504629 83.42768711 45.08970287 91.75415611 45.05056381 C96.03402777 45.02976491 100.31357609 45.0015898 104.59326172 44.95605469 C108.73003911 44.91231983 112.86650718 44.88861763 117.00349808 44.87830353 C118.57503752 44.87096138 120.14656167 44.85662484 121.71796799 44.83489227 C133.04053827 44.68465057 142.90546916 45.45475421 151.578125 53.5546875 C157.46441733 60.10168612 160.35590192 67.12978345 160.36664391 75.96523666 C160.37014998 76.61749926 160.37365605 77.26976186 160.37726837 77.94178998 C160.38656289 80.12467009 160.38166419 82.30728227 160.37680054 84.49017334 C160.38053779 86.07215029 160.38513961 87.6541254 160.39053118 89.23609757 C160.40276744 93.58146087 160.40249998 97.92674722 160.40014243 102.27212381 C160.39973442 106.95938206 160.41077193 111.64661557 160.42025757 116.3338623 C160.43687215 125.51661259 160.44236733 134.69933721 160.44348232 143.88210127 C160.44443261 151.34659835 160.44854196 158.81108696 160.45488358 166.27558136 C160.47249751 187.43909105 160.48172225 208.60258045 160.48022263 229.76609752 C160.48014272 230.90708416 160.4800628 232.04807081 160.47998047 233.22363281 C160.47989871 234.36601277 160.47981695 235.50839273 160.47973271 236.68539026 C160.47891984 255.1984199 160.49805723 273.71136816 160.5262572 292.22437426 C160.55498465 311.23368691 160.56879756 330.24295987 160.56706965 349.25229478 C160.56640568 359.92445451 160.57190086 370.59652895 160.59342575 381.26866913 C160.61163573 390.35550987 160.61598639 399.44222665 160.6024069 408.52907774 C160.59587626 413.16425499 160.59576356 417.79919442 160.6131134 422.43434906 C160.62884493 426.68088229 160.62597975 430.92698917 160.60854514 435.17351201 C160.60547541 436.70647677 160.60910665 438.23947336 160.62026529 439.77240059 C160.69533379 450.82019638 159.6407931 460.34475373 151.8125 468.7265625 C143.5488804 476.15623884 135.3320668 477.55577945 124.52154541 477.52523804 C123.34741144 477.52976915 122.17327747 477.53430026 120.96356368 477.53896868 C117.71273005 477.54942745 114.46203578 477.55094047 111.2111907 477.54857993 C107.70185359 477.54817128 104.1925493 477.55921557 100.68322754 477.56869507 C93.81056883 477.58529601 86.93794444 477.59080422 80.06526735 477.59191982 C74.47719954 477.5928708 68.88914303 477.59698356 63.3010788 477.60332108 C47.4499704 477.62093158 31.59888907 477.63016033 15.74777082 477.62866013 C14.89353574 477.62858022 14.03930067 477.6285003 13.15917969 477.62841797 C11.87625828 477.62829533 11.87625828 477.62829533 10.56741926 477.62817021 C-3.28972309 477.62735752 -17.14675669 477.64649124 -31.0038676 477.6746947 C-45.24000981 477.70344041 -59.47609901 477.71723405 -73.71227098 477.71550715 C-81.70165745 477.7148438 -89.69092993 477.72031202 -97.68029022 477.74186325 C-104.48344083 477.76009735 -111.28642579 477.76440422 -118.08959028 477.7508444 C-121.55824324 477.7443257 -125.0265786 477.74415723 -128.49520111 477.7615509 C-132.26203717 477.77699578 -136.02804255 477.76769862 -139.79486084 477.75228882 C-140.88223282 477.76257594 -141.96960479 477.77286307 -143.08992743 477.78346193 C-152.39616896 477.69949819 -160.44300855 475.42056277 -167.359375 468.9609375 C-173.55225153 462.07294217 -176.16007193 454.93867831 -176.0859375 445.671875 C-176.0831076 444.97009125 -176.08027771 444.2683075 -176.07736206 443.54525757 C-176.06625012 441.32426222 -176.04116334 439.10368405 -176.015625 436.8828125 C-176.00558354 435.36849545 -175.99645973 433.85417201 -175.98828125 432.33984375 C-175.96634054 428.64569992 -175.93187375 424.95179699 -175.890625 421.2578125 C-177.20256836 421.27875977 -178.51451172 421.29970703 -179.86621094 421.32128906 C-184.73393844 421.3936922 -189.60161835 421.43961363 -194.46972656 421.47753906 C-196.57657882 421.49765376 -198.68337525 421.52494917 -200.79003906 421.55957031 C-203.81849947 421.60809418 -206.84622178 421.63078266 -209.875 421.6484375 C-211.28770172 421.67940521 -211.28770172 421.67940521 -212.72894287 421.71099854 C-213.60955383 421.71130066 -214.49016479 421.71160278 -215.39746094 421.71191406 C-216.17023376 421.72079651 -216.94300659 421.72967896 -217.73919678 421.73883057 C-220.83284888 421.04714932 -221.99677593 419.76343217 -223.890625 417.2578125 C-224.39855957 414.67773438 -224.39855957 414.67773438 -224.40820312 411.7265625 C-224.42081177 410.61861328 -224.43342041 409.51066406 -224.44641113 408.36914062 C-224.43831421 407.17740234 -224.43021729 405.98566406 -224.421875 404.7578125 C-224.4257019 403.52998047 -224.42952881 402.30214844 -224.43347168 401.03710938 C-224.43619342 398.44139791 -224.42881411 395.84565914 -224.41210938 393.25 C-224.39070575 389.27281651 -224.41190463 385.29743968 -224.4375 381.3203125 C-224.43485677 378.79947517 -224.42973191 376.27863897 -224.421875 373.7578125 C-224.43402039 371.97020508 -224.43402039 371.97020508 -224.44641113 370.14648438 C-224.43380249 369.03853516 -224.42119385 367.93058594 -224.40820312 366.7890625 C-224.40502075 365.81517578 -224.40183838 364.84128906 -224.39855957 363.83789062 C-223.7368684 360.47679844 -222.61124939 359.29383123 -219.890625 357.2578125 C-217.73919678 356.77679443 -217.73919678 356.77679443 -215.39746094 356.80371094 C-214.50462402 356.80419434 -213.61178711 356.80467773 -212.69189453 356.80517578 C-211.76231934 356.82563965 -210.83274414 356.84610352 -209.875 356.8671875 C-209.01406738 356.87121582 -208.15313477 356.87524414 -207.26611328 356.87939453 C-204.05739966 356.90028533 -200.8489904 356.95613106 -197.640625 357.0078125 C-190.463125 357.0903125 -183.285625 357.1728125 -175.890625 357.2578125 C-175.890625 338.7778125 -175.890625 320.2978125 -175.890625 301.2578125 C-177.870625 300.9278125 -179.850625 300.5978125 -181.890625 300.2578125 C-183.7265625 298.38208008 -183.7265625 298.38208008 -185.265625 295.90234375 C-185.85077881 294.98146973 -186.43593262 294.0605957 -187.03881836 293.11181641 C-187.64991455 292.10812012 -188.26101074 291.10442383 -188.890625 290.0703125 C-189.54361572 289.03310059 -190.19660645 287.99588867 -190.86938477 286.92724609 C-192.22810653 284.76672287 -193.57901871 282.60127003 -194.92236328 280.43115234 C-197.29071671 276.61276263 -199.70669769 272.82642051 -202.12841797 269.04174805 C-203.84914022 266.34993736 -205.56007501 263.65210175 -207.26953125 260.953125 C-209.8436715 256.89513558 -212.43775603 252.85060981 -215.04296875 248.8125 C-245.33588443 201.83526438 -245.33588443 201.83526438 -239.171875 173.20703125 C-238.25203362 170.10998466 -237.18982307 167.21402058 -235.890625 164.2578125 C-235.52839844 163.38382813 -235.16617188 162.50984375 -234.79296875 161.609375 C-227.86127027 146.33614106 -215.25338949 135.28973095 -199.88671875 129.03515625 C-193.5906588 126.69614063 -188.39846025 125.12185777 -181.640625 125.1953125 C-180.56296875 125.20433594 -179.4853125 125.21335937 -178.375 125.22265625 C-177.55515625 125.23425781 -176.7353125 125.24585938 -175.890625 125.2578125 C-175.89950745 124.57844635 -175.90838989 123.8990802 -175.9175415 123.1991272 C-176.0064118 116.09328674 -176.06652365 108.9876056 -176.11035156 101.88134766 C-176.1303988 99.2334959 -176.15764384 96.58568804 -176.19238281 93.93798828 C-176.24120244 90.12000662 -176.26366381 86.30261314 -176.28125 82.484375 C-176.30189514 81.31105621 -176.32254028 80.13773743 -176.34381104 78.92886353 C-176.34642934 69.21904963 -174.35570332 61.02913373 -167.59375 53.7890625 C-161.4000801 48.22044186 -154.47659006 44.99271764 -146.06884766 45.03076172 C-144.38778427 45.03098831 -144.38778427 45.03098831 -142.67276001 45.03121948 C-140.88181412 45.04670334 -140.88181412 45.04670334 -139.0546875 45.0625 C-137.82019867 45.0653299 -136.58570984 45.06815979 -135.31381226 45.07107544 C-131.38098351 45.08224728 -127.44838463 45.10734686 -123.515625 45.1328125 C-120.84505541 45.14397425 -118.17448799 45.15197131 -115.50390625 45.16015625 C-108.96606775 45.18217685 -102.4283628 45.21562491 -95.890625 45.2578125 C-95.93703125 44.43796875 -95.9834375 43.618125 -96.03125 42.7734375 C-96.06734375 41.69578125 -96.1034375 40.618125 -96.140625 39.5078125 C-96.18703125 38.44046875 -96.2334375 37.373125 -96.28125 36.2734375 C-95.890625 33.2578125 -95.890625 33.2578125 -94.15582275 30.89556885 C-91.60695671 29.05271802 -90.49921229 28.76805862 -87.39746094 28.80371094 C-86.51684998 28.80401306 -85.63623901 28.80431519 -84.72894287 28.80462646 C-83.78714172 28.82527161 -82.84534058 28.84591675 -81.875 28.8671875 C-80.90403381 28.87284729 -79.93306763 28.87850708 -78.93267822 28.88433838 C-75.83482331 28.90670939 -72.73812967 28.95690777 -69.640625 29.0078125 C-67.53907922 29.02787653 -65.43751528 29.04612747 -63.3359375 29.0625 C-58.1870533 29.1065767 -53.03903597 29.17560992 -47.890625 29.2578125 C-47.91116943 27.36204468 -47.91116943 27.36204468 -47.93212891 25.42797852 C-48.01394109 17.87863854 -44.70184128 11.25833195 -39.59375 5.7890625 C-28.99673947 -3.73852495 -12.95346121 -6.21592266 0 0 Z M-29.265625 20.8828125 C-31.46970393 25.46051489 -31.6877889 29.26333661 -30.890625 34.2578125 C-28.56093569 39.09639798 -25.72921048 41.92812319 -20.890625 44.2578125 C-15.89614911 45.0549764 -12.09332739 44.83689143 -7.515625 42.6328125 C-3.93154787 39.39007605 -1.29527259 36.79305354 -0.5078125 31.859375 C-0.25178581 26.17558256 -0.95435568 22.60842595 -4.890625 18.2578125 C-9.24123845 14.32154318 -12.80839506 13.61897331 -18.4921875 13.875 C-23.42586604 14.66246009 -26.02288855 17.29873537 -29.265625 20.8828125 Z " fill="#91C83C" transform="translate(287.890625,18.7421875)"/>
<path d="M0 0 C1.22763565 0.00212242 1.22763565 0.00212242 2.48007202 0.00428772 C5.09873075 0.00989335 7.71730454 0.02244677 10.3359375 0.03515625 C12.10937377 0.04017053 13.88281137 0.04473356 15.65625 0.04882812 C20.00784532 0.05986461 24.359377 0.077133 28.7109375 0.09765625 C28.82050781 1.01289062 28.93007812 1.928125 29.04296875 2.87109375 C29.20152344 4.05960937 29.36007813 5.248125 29.5234375 6.47265625 C29.67425781 7.65601562 29.82507813 8.839375 29.98046875 10.05859375 C30.41793084 13.39297709 30.41793084 13.39297709 33.7109375 15.09765625 C36.49495431 15.40044428 36.49495431 15.40044428 39.70140076 15.35162354 C41.57947922 15.36008301 41.57947922 15.36008301 43.49549866 15.36871338 C44.88559018 15.36482463 46.27568113 15.36072828 47.66577148 15.35644531 C49.12768732 15.35915497 50.58960179 15.36271576 52.05151367 15.36706543 C56.02465233 15.37619556 59.99768731 15.37264241 63.97082782 15.36630726 C68.1263118 15.36124953 72.2817868 15.36593817 76.43727112 15.36907959 C83.41726274 15.3727203 90.39721206 15.3679178 97.37719727 15.35839844 C105.44845581 15.34751794 113.51961328 15.35103609 121.59086937 15.36205125 C128.51748312 15.37112621 135.44406643 15.37240825 142.37068421 15.36717391 C146.50897984 15.36405481 150.64722797 15.36364314 154.78552055 15.37024689 C158.67691911 15.3760226 162.56818736 15.37201933 166.45957184 15.36045837 C167.88823035 15.35781281 169.31689981 15.35857512 170.74555397 15.3629837 C172.69486221 15.36844449 174.6441944 15.36038407 176.5934906 15.35162354 C178.23028101 15.35049246 178.23028101 15.35049246 179.9001379 15.34933853 C182.73315583 15.09566679 184.39122797 14.7290624 186.7109375 13.09765625 C187.63593533 9.99936845 187.63593533 9.99936845 187.9609375 6.47265625 C188.11046875 5.28414063 188.26 4.095625 188.4140625 2.87109375 C188.56101562 1.49824219 188.56101562 1.49824219 188.7109375 0.09765625 C193.72799471 0.02323619 198.74472722 -0.03107283 203.76220703 -0.06713867 C205.46734213 -0.08218113 207.17243882 -0.10262028 208.87744141 -0.12866211 C211.33505762 -0.16524659 213.79216019 -0.18211548 216.25 -0.1953125 C217.00648834 -0.21079636 217.76297668 -0.22628021 218.54238892 -0.24223328 C224.0004032 -0.24395028 228.21972081 0.77212618 232.35546875 4.6328125 C235.77698041 9.10709698 236.83568797 11.12235558 236.84236526 16.71498489 C236.84620641 17.91703827 236.85004755 19.11909165 236.8540051 20.35757089 C236.85322476 21.70348889 236.85234596 23.04940683 236.85137939 24.39532471 C236.8539616 25.81583161 236.85697435 27.23633779 236.8603828 28.65684295 C236.86847317 32.57428717 236.8702435 36.49171308 236.87098026 40.40916467 C236.8728273 44.62878428 236.8803729 48.84839432 236.88711548 53.06800842 C236.90071413 62.30146815 236.906726 71.53492354 236.91112614 80.76839161 C236.91388617 86.53111933 236.9181231 92.29384537 236.92263031 98.05657196 C236.93482534 114.00380981 236.94512396 129.95104631 236.9485054 145.89828873 C236.94872497 146.91953499 236.94894453 147.94078126 236.94917075 148.99297439 C236.94938903 150.01670249 236.94960731 151.04043059 236.9498322 152.09518075 C236.95027567 154.16973639 236.95072223 156.24429202 236.95117188 158.31884766 C236.9513933 159.34790489 236.95161473 160.37696212 236.95184287 161.4372029 C236.95579128 178.11344754 236.97324556 194.78964849 236.9965314 211.46587625 C237.02023159 228.57661806 237.03270666 245.68733793 237.03387332 262.79809642 C237.03479087 272.40935948 237.04056322 282.02056564 237.05869293 291.63181305 C237.07407601 299.81598041 237.07922503 308.00007329 237.07095483 316.18425235 C237.06704185 320.3611653 237.06800937 324.53792818 237.08201218 328.71482277 C237.0947125 332.53811865 237.09358785 336.36115111 237.08142146 340.18444642 C237.07945772 341.56806682 237.0825741 342.95170563 237.09126583 344.33530012 C237.1023319 346.21582395 237.09309496 348.09643443 237.0828743 349.97696304 C237.08347139 351.02162869 237.08406847 352.06629433 237.08468366 353.14261651 C236.48032471 357.92100599 234.53813249 361.93012681 230.7109375 364.91015625 C225.76397427 368.51731694 221.44113714 368.24604352 215.54496765 368.24482727 C214.59517007 368.24850396 213.64537249 368.25218065 212.66679317 368.25596875 C209.47015814 368.26702061 206.27355559 368.27085196 203.0769043 368.2746582 C200.79065853 368.28092163 198.50441379 368.28756832 196.21817017 368.29457092 C189.99707251 368.31198983 183.77598255 368.32253476 177.55486655 368.33077645 C173.67041944 368.3359239 169.78597473 368.3419997 165.90152931 368.34828758 C155.14673312 368.36515691 144.39194064 368.37979255 133.6371336 368.38703632 C130.8467121 368.38894621 128.05629061 368.39086654 125.26586914 368.39282227 C124.22555483 368.39354788 124.22555483 368.39354788 123.16422407 368.39428815 C111.926361 368.40259055 100.6886043 368.42793186 89.45078769 368.46040294 C77.91323015 368.4934684 66.37574267 368.51115173 54.83813602 368.51468056 C48.36011037 368.51703465 41.88225292 368.52604202 35.40427208 368.55114174 C29.31151236 368.57436753 23.21903223 368.5786777 17.12623978 368.56838036 C14.88890594 368.56788358 12.65155859 368.57424562 10.41426659 368.5879364 C7.36179295 368.6055719 4.3103318 368.59858988 1.25785828 368.58540344 C0.37079073 368.59637269 -0.51627681 368.60734193 -1.43022519 368.61864358 C-6.87675776 368.56176813 -9.96328458 367.71344722 -14.2890625 364.09765625 C-18.55688324 359.36844949 -19.41921768 356.202088 -19.3515625 349.91015625 C-19.34253906 348.82347656 -19.33351562 347.73679687 -19.32421875 346.6171875 C-19.31261719 345.78574219 -19.30101562 344.95429688 -19.2890625 344.09765625 C-18.40358388 344.10540762 -17.51810526 344.11315899 -16.60579395 344.12114525 C5.07687639 344.30603936 26.75871586 344.41154998 48.44218731 344.43187523 C58.92892446 344.4435613 69.41433944 344.48077735 79.90063477 344.58105469 C89.05524767 344.66852952 98.20850985 344.70509099 107.36353809 344.68392813 C112.19852697 344.67443951 117.03060938 344.68811447 121.86508751 344.76307297 C145.55047948 345.11068637 163.00625324 343.16199995 183.59537697 330.87999344 C188.85396049 327.87168438 194.37266495 325.44380391 199.8984375 322.97265625 C201.7676044 322.11736408 203.63622099 321.26086652 205.50390625 320.40234375 C206.2724292 320.05155762 207.04095215 319.70077148 207.83276367 319.33935547 C210.1171863 317.82907684 210.79363498 316.65808219 211.7109375 314.09765625 C211.98760751 310.56306199 211.98760751 310.56306199 210.7109375 307.09765625 C208.1726811 305.18180755 206.11675379 303.9729496 203.2734375 302.66015625 C197.5695732 299.9915417 191.95026309 297.26664223 186.46975791 294.15807009 C163.75089155 281.35698891 144.31807212 278.79088798 118.52209425 279.27342415 C113.65228706 279.3468622 108.78273303 279.32666787 103.9125061 279.31774902 C94.75040989 279.31451308 85.59095366 279.39162048 76.42957079 279.49996901 C65.97440463 279.6195291 55.51959212 279.64591748 45.06383586 279.66572094 C23.61134805 279.70837562 2.16237677 279.87628054 -19.2890625 280.09765625 C-19.2890625 261.61765625 -19.2890625 243.13765625 -19.2890625 224.09765625 C-17.3090625 223.10765625 -15.3290625 222.11765625 -13.2890625 221.09765625 C-11.32713019 218.84665661 -11.32713019 218.84665661 -9.80859375 216.15234375 C-8.90741821 214.67386963 -8.90741821 214.67386963 -7.98803711 213.16552734 C-7.36550049 212.11187988 -6.74296387 211.05823242 -6.1015625 209.97265625 C-4.76672064 207.774074 -3.43077794 205.57615975 -2.09375 203.37890625 C-1.44374023 202.30125 -0.79373047 201.22359375 -0.12402344 200.11328125 C2.26749335 196.18299715 4.75283549 192.32093981 7.2734375 188.47265625 C13.83293071 178.398796 20.28611608 168.25783896 26.7109375 158.09765625 C27.36400879 157.06705078 27.36400879 157.06705078 28.03027344 156.015625 C39.58779666 137.73145005 46.71859525 120.37348741 43.09765625 98.37109375 C38.96447738 82.23895067 29.35845889 67.83633314 15.37890625 58.625 C4.5042348 52.39952923 -6.90971242 49.17099297 -19.2890625 48.09765625 C-19.38826799 42.93820752 -19.46068896 37.77931936 -19.50878906 32.61914062 C-19.5288496 30.86546146 -19.55610501 29.11184872 -19.59082031 27.35839844 C-19.63958552 24.83121307 -19.66208642 22.30491534 -19.6796875 19.77734375 C-19.70033264 18.99898163 -19.72097778 18.22061951 -19.74224854 17.41867065 C-19.74438975 12.17191744 -18.72653278 9.27800292 -15.2890625 5.09765625 C-10.0271549 0.46216622 -6.86256373 -0.04432957 0 0 Z " fill="#D6E5EF" transform="translate(163.2890625,95.90234375)"/>
<path d="M0 0 C17.56765849 -0.16043524 17.56765849 -0.16043524 25.10546875 -0.1953125 C30.23177835 -0.21914495 35.35779985 -0.24721713 40.48388672 -0.30175781 C44.62066411 -0.34549267 48.75713218 -0.36919487 52.89412308 -0.37950897 C54.46566252 -0.38685112 56.03718667 -0.40118766 57.60859299 -0.42292023 C68.93116327 -0.57316193 78.79609416 0.19694171 87.46875 8.296875 C93.35504233 14.84387362 96.24652692 21.87197095 96.25726891 30.70742416 C96.26077498 31.35968676 96.26428105 32.01194936 96.26789337 32.68397748 C96.27718789 34.86685759 96.27228919 37.04946977 96.26742554 39.23236084 C96.27116279 40.81433779 96.27576461 42.3963129 96.28115618 43.97828507 C96.29339244 48.32364837 96.29312498 52.66893472 96.29076743 57.01431131 C96.29035942 61.70156956 96.30139693 66.38880307 96.31088257 71.0760498 C96.32749715 80.25880009 96.33299233 89.44152471 96.33410732 98.62428877 C96.33505761 106.08878585 96.33916696 113.55327446 96.34550858 121.01776886 C96.36312251 142.18127855 96.37234725 163.34476795 96.37084763 184.50828502 C96.37076772 185.64927166 96.3706878 186.79025831 96.37060547 187.96582031 C96.37052371 189.10820027 96.37044195 190.25058023 96.37035771 191.42757776 C96.36954484 209.9406074 96.38868223 228.45355566 96.4168822 246.96656176 C96.44560965 265.97587441 96.45942256 284.98514737 96.45769465 303.99448228 C96.45703068 314.66664201 96.46252586 325.33871645 96.48405075 336.01085663 C96.50226073 345.09769737 96.50661139 354.18441415 96.4930319 363.27126524 C96.48650126 367.90644249 96.48638856 372.54138192 96.5037384 377.17653656 C96.51946993 381.42306979 96.51660475 385.66917667 96.49917014 389.91569951 C96.49610041 391.44866427 96.49973165 392.98166086 96.51089029 394.51458809 C96.58595879 405.56238388 95.5314181 415.08694123 87.703125 423.46875 C79.4395054 430.89842634 71.2226918 432.29796695 60.41217041 432.26742554 C59.23803644 432.27195665 58.06390247 432.27648776 56.85418868 432.28115618 C53.60335505 432.29161495 50.35266078 432.29312797 47.1018157 432.29076743 C43.59247859 432.29035878 40.0831743 432.30140307 36.57385254 432.31088257 C29.70119383 432.32748351 22.82856944 432.33299172 15.95589235 432.33410732 C10.36782454 432.3350583 4.77976803 432.33917106 -0.8082962 432.34550858 C-16.6594046 432.36311908 -32.51048593 432.37234783 -48.36160418 432.37084763 C-49.21583926 432.37076772 -50.07007433 432.3706878 -50.95019531 432.37060547 C-52.23311672 432.37048283 -52.23311672 432.37048283 -53.54195574 432.37035771 C-67.39909809 432.36954502 -81.25613169 432.38867874 -95.1132426 432.4168822 C-109.34938481 432.44562791 -123.58547401 432.45942155 -137.82164598 432.45769465 C-145.81103245 432.4570313 -153.80030493 432.46249952 -161.78966522 432.48405075 C-168.59281583 432.50228485 -175.39580079 432.50659172 -182.19896528 432.4930319 C-185.66761824 432.4865132 -189.1359536 432.48634473 -192.60457611 432.5037384 C-196.37141217 432.51918328 -200.13741755 432.50988612 -203.90423584 432.49447632 C-204.99160782 432.50476344 -206.07897979 432.51505057 -207.19930243 432.52564943 C-216.50554396 432.44168569 -224.55238355 430.16275027 -231.46875 423.703125 C-237.66162653 416.81512967 -240.26944693 409.68086581 -240.1953125 400.4140625 C-240.19031738 399.12967285 -240.18532227 397.8452832 -240.18017578 396.52197266 C-240.16196777 394.90597168 -240.14375977 393.2899707 -240.125 391.625 C-240.08375 386.46875 -240.0425 381.3125 -240 376 C-229.44 376 -218.88 376 -208 376 C-207.67 379.96 -207.34 383.92 -207 388 C-205.08073891 393.37393106 -202.10547638 396.44726181 -197 399 C-193.97731697 399.10270053 -190.97742036 399.14336324 -187.95428467 399.14044189 C-187.00534151 399.14341302 -186.05639836 399.14638414 -185.07869935 399.1494453 C-181.87895485 399.15816037 -178.67924764 399.15964291 -175.47949219 399.16113281 C-173.19339416 399.16575903 -170.90729691 399.17078342 -168.62120056 399.17617798 C-162.39590835 399.18932356 -156.17062692 399.19575122 -149.94532299 399.20018864 C-146.05870352 399.20311609 -142.17208703 399.20722028 -138.28546906 399.21169281 C-127.5264227 399.22380526 -116.76738024 399.23418591 -106.00832748 399.2375679 C-105.31945368 399.23778747 -104.63057987 399.23800703 -103.9208311 399.23823325 C-102.88503021 399.23856067 -102.88503021 399.23856067 -101.82830405 399.2388947 C-100.42899307 399.23933817 -99.02968208 399.23978473 -97.63037109 399.24023438 C-96.93626272 399.2404558 -96.24215434 399.24067723 -95.52701238 399.24090537 C-84.28264019 399.24485247 -73.03833284 399.26230285 -61.79398569 399.2855939 C-50.25194137 399.3093087 -38.70993881 399.32151186 -27.16786885 399.32293582 C-20.68650786 399.32398531 -14.20523825 399.32992365 -7.72389984 399.34775543 C-1.62708305 399.36420224 4.46957331 399.36640805 10.56640434 399.35761642 C12.80534481 399.35684421 15.04429378 399.36121288 17.28321266 399.37107468 C20.33778414 399.38374098 23.39178293 399.37794606 26.4463501 399.36749268 C27.33409976 399.37554908 28.22184943 399.38360548 29.1365006 399.39190602 C34.17474054 399.35153215 37.63643542 398.79769628 42 396 C46.16277195 391.499706 47.12388529 388.29058895 47.13422108 382.25962353 C47.14090784 380.45355689 47.14090784 380.45355689 47.14772969 378.61100405 C47.1476404 377.26802837 47.14745054 375.92505269 47.14717102 374.58207703 C47.15046972 373.16070687 47.1541953 371.73933764 47.1583125 370.31796962 C47.16833975 366.40278696 47.17205045 362.48761964 47.17470181 358.57242596 C47.17860264 354.35350398 47.18818104 350.13459416 47.19691467 345.91567993 C47.21668394 335.72326854 47.22674526 325.53085615 47.23564246 315.33843037 C47.24002405 310.54102194 47.24539114 305.74361461 47.25063133 300.94620705 C47.26764303 285.00321907 47.28213833 269.06023179 47.28938007 253.11723614 C47.29129002 248.97928046 47.29321035 244.84132479 47.29516602 240.70336914 C47.29564976 239.67487741 47.2961335 238.64638568 47.2966319 237.58672754 C47.30493643 220.91699886 47.33028074 204.24734185 47.36274669 187.57764449 C47.39579191 170.47139137 47.41382648 153.36517471 47.41702431 136.2588895 C47.41919162 126.65097378 47.42797258 117.0431626 47.45348549 107.43527794 C47.47515773 99.2547807 47.48326003 91.07441339 47.47351871 82.8938907 C47.46896407 78.7189506 47.47092753 74.54427879 47.49028015 70.36937523 C47.50784177 66.54790402 47.50697162 62.72689821 47.49138286 58.90542255 C47.48899609 57.52250186 47.49338556 56.13954953 47.50521151 54.75667735 C47.75835194 45.02499902 47.75835194 45.02499902 43 37 C38.31951174 32.88684365 33.83092775 32.81346439 27.83203125 32.68359375 C26.63981209 32.6524221 26.63981209 32.6524221 25.42350769 32.62062073 C22.88659237 32.55527913 20.34957427 32.49631192 17.8125 32.4375 C16.09178628 32.39430014 14.37108292 32.35068537 12.65039062 32.30664062 C8.43369753 32.19883323 4.21692549 32.0996458 0 32 C0 21.44 0 10.88 0 0 Z " fill="#54596D" transform="translate(352,64)"/>
<path d="M0 0 C11.23837228 8.31106113 18.9614858 19.00690845 24 32 C24.32097656 32.804375 24.64195312 33.60875 24.97265625 34.4375 C30.1059976 49.71814401 27.83132438 66.69454576 21 81 C17.40048259 87.91275741 13.2352989 94.46431033 9 101 C8.4745459 101.81726563 7.9490918 102.63453125 7.40771484 103.4765625 C4.74181073 107.61968823 2.05482434 111.74835135 -0.6484375 115.8671875 C-4.15075326 121.21217791 -7.57794944 126.60339783 -11 132 C-12.16378853 133.82829942 -13.32785062 135.65642474 -14.4921875 137.484375 C-16.27313641 140.28087341 -18.050137 143.0795834 -19.81738281 145.88476562 C-21.57803796 148.67870467 -23.35044362 151.4648762 -25.125 154.25 C-25.65738281 155.10207031 -26.18976563 155.95414063 -26.73828125 156.83203125 C-27.23972656 157.61449219 -27.74117188 158.39695312 -28.2578125 159.203125 C-28.6923877 159.89051758 -29.12696289 160.57791016 -29.57470703 161.28613281 C-31.96117489 164.1557807 -34.30648434 164.89671043 -37.9375 165.4375 C-42.11525686 164.84067759 -43.21535716 163.12639446 -46 160 C-47.51600241 157.76943083 -48.93204655 155.55998259 -50.3125 153.25 C-51.18985296 151.81545511 -52.06887579 150.38193069 -52.94921875 148.94921875 C-53.43181152 148.16208496 -53.9144043 147.37495117 -54.41162109 146.56396484 C-57.42779715 141.6952466 -60.53168379 136.88242257 -63.625 132.0625 C-64.30151611 131.00603271 -64.97803223 129.94956543 -65.67504883 128.86108398 C-69.20883092 123.34397653 -72.75164069 117.83284541 -76.3046875 112.328125 C-106.44477457 65.57519999 -106.44477457 65.57519999 -100.28125 36.94921875 C-99.36140862 33.85217216 -98.29919807 30.95620808 -97 28 C-96.45666016 26.68902344 -96.45666016 26.68902344 -95.90234375 25.3515625 C-88.97064527 10.07832856 -76.36276449 -0.96808155 -60.99609375 -7.22265625 C-40.23672948 -14.93485683 -18.74250381 -11.6466652 0 0 Z " fill="#59D6FE" transform="translate(149,155)"/>
<path d="M0 0 C7.52735904 4.48853632 11.93185993 10.28063521 15.421875 18.2578125 C16.28588231 22.02802621 16.15296605 25.39009771 16.109375 29.2578125 C17.42131836 29.23686523 18.73326172 29.21591797 20.08496094 29.19433594 C24.95268844 29.1219328 29.82036835 29.07601137 34.68847656 29.03808594 C36.79532882 29.01797124 38.90212525 28.99067583 41.00878906 28.95605469 C44.03724947 28.90753082 47.06497178 28.88484234 50.09375 28.8671875 C51.03555115 28.84654236 51.97735229 28.82589722 52.94769287 28.80462646 C53.82830383 28.80432434 54.70891479 28.80402222 55.61621094 28.80371094 C56.38898376 28.79482849 57.16175659 28.78594604 57.95794678 28.77679443 C61.0449994 29.46700016 62.21470033 30.76317321 64.109375 33.2578125 C64.61058044 35.75523376 64.61058044 35.75523376 64.61108398 38.58959961 C64.62046494 39.65427963 64.62984589 40.71895966 64.63951111 41.81590271 C64.62266014 43.53318321 64.62266014 43.53318321 64.60546875 45.28515625 C64.60692398 46.46622452 64.60837921 47.64729279 64.60987854 48.864151 C64.60821876 51.36152615 64.5966488 53.85891144 64.57592773 56.35620117 C64.54701083 60.17736332 64.55531093 63.99713523 64.56835938 67.81835938 C64.56212087 70.24479841 64.55372906 72.67123306 64.54296875 75.09765625 C64.54590439 76.24048569 64.54884003 77.38331512 64.55186462 78.56077576 C64.53918045 79.62860794 64.52649628 80.69644012 64.51342773 81.79663086 C64.50802475 82.73276718 64.50262177 83.6689035 64.49705505 84.63340759 C64.02787784 87.80950851 63.02608785 89.69660612 61.109375 92.2578125 C57.87250373 93.33676959 55.52432258 93.38896782 52.11891174 93.39825439 C50.86685944 93.40396454 49.61480713 93.40967468 48.32481384 93.41555786 C46.934723 93.41680319 45.54463204 93.41792829 44.15454102 93.41894531 C42.69262568 93.42357388 41.23071155 93.42859859 39.76879883 93.43399048 C35.79569457 93.44711072 31.82260721 93.45355842 27.84948468 93.45800114 C25.36811359 93.46093179 22.88674711 93.46503654 20.40537834 93.46950531 C12.64408723 93.48317776 4.88280668 93.49284628 -2.87849563 93.4967072 C-11.84258223 93.50119085 -20.80651657 93.51875395 -29.77055687 93.5477078 C-36.69716501 93.56930565 -43.62373024 93.57941043 -50.55037171 93.58074832 C-54.68871001 93.58179749 -58.82690514 93.58772928 -62.96520805 93.60556793 C-66.85663482 93.62201646 -70.74781026 93.62421994 -74.63925934 93.61542892 C-76.06792688 93.61465688 -77.49660777 93.61902331 -78.92524147 93.62888718 C-80.87451287 93.64155726 -82.82388472 93.63395619 -84.7731781 93.62530518 C-85.86437171 93.62677174 -86.95556532 93.6282383 -88.0798254 93.6297493 C-91.26735667 93.20796178 -92.6219382 92.5053973 -94.890625 90.2578125 C-95.8950599 87.24450779 -96.03463531 85.17591068 -96.06762695 82.02368164 C-96.08046219 80.95569839 -96.09329742 79.88771515 -96.10652161 78.78736877 C-96.11390854 77.63421677 -96.12129547 76.48106476 -96.12890625 75.29296875 C-96.136978 74.10811386 -96.14504974 72.92325897 -96.15336609 71.70249939 C-96.16720205 69.19499168 -96.17792638 66.68746518 -96.18579102 64.17993164 C-96.20304109 60.33899562 -96.24693748 56.49891197 -96.29101562 52.65820312 C-96.30113922 50.22396467 -96.30965636 47.7897189 -96.31640625 45.35546875 C-96.33391434 44.20434097 -96.35142242 43.0532132 -96.36946106 41.86720276 C-96.36653549 40.79606735 -96.36360992 39.72493195 -96.3605957 38.62133789 C-96.36646194 37.67996475 -96.37232819 36.73859161 -96.37837219 35.76869202 C-95.73307363 32.44675196 -94.5715639 31.27396301 -91.890625 29.2578125 C-89.73919678 28.77679443 -89.73919678 28.77679443 -87.39746094 28.80371094 C-86.07654449 28.80416412 -86.07654449 28.80416412 -84.72894287 28.80462646 C-83.31624115 28.83559418 -83.31624115 28.83559418 -81.875 28.8671875 C-80.90403381 28.87284729 -79.93306763 28.87850708 -78.93267822 28.88433838 C-75.83482331 28.90670939 -72.73812967 28.95690777 -69.640625 29.0078125 C-67.53907922 29.02787653 -65.43751528 29.04612747 -63.3359375 29.0625 C-58.1870533 29.1065767 -53.03903597 29.17560992 -47.890625 29.2578125 C-47.90432129 27.99396729 -47.91801758 26.73012207 -47.93212891 25.42797852 C-48.01394109 17.87863854 -44.70184128 11.25833195 -39.59375 5.7890625 C-28.99673947 -3.73852495 -12.95346121 -6.21592266 0 0 Z M-29.265625 20.8828125 C-31.46970393 25.46051489 -31.6877889 29.26333661 -30.890625 34.2578125 C-28.56093569 39.09639798 -25.72921048 41.92812319 -20.890625 44.2578125 C-15.89614911 45.0549764 -12.09332739 44.83689143 -7.515625 42.6328125 C-3.93154787 39.39007605 -1.29527259 36.79305354 -0.5078125 31.859375 C-0.25178581 26.17558256 -0.95435568 22.60842595 -4.890625 18.2578125 C-9.24123845 14.32154318 -12.80839506 13.61897331 -18.4921875 13.875 C-23.42586604 14.66246009 -26.02288855 17.29873537 -29.265625 20.8828125 Z " fill="#FAA019" transform="translate(287.890625,18.7421875)"/>
<path d="M0 0 C1.68106339 0.00022659 1.68106339 0.00022659 3.39608765 0.00045776 C5.18703354 0.01594162 5.18703354 0.01594162 7.01416016 0.03173828 C8.24864899 0.03456818 9.48313782 0.03739807 10.7550354 0.04031372 C14.68786415 0.05148556 18.62046303 0.07658514 22.55322266 0.10205078 C25.22379224 0.11321253 27.89435967 0.12120959 30.56494141 0.12939453 C37.10286108 0.14971125 43.64028532 0.18886685 50.17822266 0.22705078 C50.17822266 10.78705078 50.17822266 21.34705078 50.17822266 32.22705078 C47.57689453 32.25283203 44.97556641 32.27861328 42.29541016 32.30517578 C39.76340118 32.34363845 37.23159294 32.3887849 34.69970703 32.43457031 C32.94622454 32.46271662 31.19261666 32.48396263 29.43896484 32.49804688 C26.91129667 32.51956505 24.38512582 32.5662578 21.85791016 32.61767578 C20.69036697 32.61951874 20.69036697 32.61951874 19.49923706 32.62139893 C14.30147559 32.75984374 11.24316755 33.71851584 7.17822266 37.22705078 C3.01953231 42.04525763 2.57845626 45.81952742 2.56884766 51.90673828 C2.5523114 52.71950226 2.53577515 53.53226624 2.51873779 54.36965942 C2.4704331 56.94720141 2.44892672 59.52415422 2.42822266 62.10205078 C2.40004818 63.85728848 2.37011868 65.61249894 2.33837891 67.36767578 C2.26467935 71.65408556 2.21499813 75.94017164 2.17822266 80.22705078 C3.10441406 80.18136963 3.10441406 80.18136963 4.04931641 80.13476562 C10.28004958 79.96050425 15.32728419 80.75794299 21.17822266 82.85205078 C21.96003906 83.1249292 22.74185547 83.39780762 23.54736328 83.67895508 C40.71475177 89.88126283 52.81895496 101.61462686 60.76904297 117.88867188 C67.10441578 131.39528491 68.52770923 146.7989152 64.17822266 161.22705078 C63.91783203 162.13583984 63.65744141 163.04462891 63.38916016 163.98095703 C59.57568449 175.37771827 52.65723767 185.2035997 46.17822266 195.22705078 C45.70046387 195.97003418 45.22270508 196.71301758 44.73046875 197.47851562 C42.51405229 200.92511921 40.28608186 204.36393634 38.04931641 207.79736328 C35.36554889 211.92493572 32.7217753 216.077216 30.08374023 220.23413086 C27.7187234 223.96049977 25.34555242 227.68165416 22.97314453 231.40332031 C21.15371035 234.26561299 19.3457651 237.13497488 17.53759766 240.00439453 C16.37663293 241.82892746 15.21519326 243.65315829 14.05322266 245.47705078 C13.52100098 246.32887939 12.9887793 247.18070801 12.44042969 248.05834961 C11.93882324 248.84105225 11.4372168 249.62375488 10.92041016 250.43017578 C10.48583496 251.11756836 10.05125977 251.80496094 9.60351562 252.51318359 C7.86328828 254.60574885 6.76618751 255.35152313 4.17822266 256.22705078 C0.78662109 256.45410156 0.78662109 256.45410156 -3.21240234 256.42236328 C-4.26932281 256.41811844 -4.26932281 256.41811844 -5.34759521 256.41378784 C-7.58916494 256.40262879 -9.8303292 256.37753271 -12.07177734 256.35205078 C-13.59520906 256.34201543 -15.11864706 256.33289054 -16.64208984 256.32470703 C-20.36878321 256.30270369 -24.09524067 256.2682035 -27.82177734 256.22705078 C-27.06743408 255.50678711 -26.31309082 254.78652344 -25.53588867 254.04443359 C-23.0834174 251.4986462 -21.26984059 249.12770101 -19.39599609 246.14892578 C-18.46086182 244.674198 -18.46086182 244.674198 -17.50683594 243.16967773 C-16.8476416 242.11611084 -16.18844727 241.06254395 -15.50927734 239.97705078 C-14.44349413 238.29224709 -13.37770079 236.60744969 -12.3112793 234.92304993 C-11.20819929 233.17907367 -10.10785564 231.43339305 -9.0078125 229.6875 C-6.25819627 225.32856795 -3.476357 220.99041942 -0.69360352 216.65258789 C1.29851935 213.5468832 3.28560364 210.43800045 5.27197266 207.32861328 C7.86397433 203.27376037 10.4692514 199.22789999 13.08447266 195.18798828 C21.98747529 181.67844827 21.98747529 181.67844827 29.17822266 167.22705078 C29.58556641 166.26927734 29.99291016 165.31150391 30.41259766 164.32470703 C35.98531394 149.19058369 34.41221091 132.84141312 28.17822266 118.22705078 C20.43473824 101.97149789 8.04443399 90.49427685 -8.82177734 84.22705078 C-14.34305721 82.52819544 -19.77491978 81.30956351 -25.51660156 80.69091797 C-26.32378632 80.60332214 -27.13097107 80.51572632 -27.96261597 80.42547607 C-28.57613922 80.35999573 -29.18966248 80.29451538 -29.82177734 80.22705078 C-29.92365522 72.43501014 -29.99344324 64.64314291 -30.04150391 56.85058594 C-30.06155114 54.20273418 -30.08879618 51.55492632 -30.12353516 48.90722656 C-30.17235478 45.0892449 -30.19481615 41.27185142 -30.21240234 37.45361328 C-30.23304749 36.28029449 -30.25369263 35.10697571 -30.27496338 33.89810181 C-30.27758169 24.18828791 -28.28685567 15.99837202 -21.52490234 8.75830078 C-15.33123244 3.18968014 -8.4077424 -0.03804408 0 0 Z " fill="#24AAE6" transform="translate(141.82177734375,63.77294921875)"/>
<path d="M0 0 C23.03058523 -0.85123313 23.03058523 -0.85123313 32.8125 6.75 C38.62818254 12.18162804 42.61930015 19.19098177 43.25299966 27.19590354 C43.25440851 28.35470535 43.25581736 29.51350715 43.25726891 30.70742416 C43.26077498 31.35968676 43.26428105 32.01194936 43.26789337 32.68397748 C43.27718789 34.86685759 43.27228919 37.04946977 43.26742554 39.23236084 C43.27116279 40.81433779 43.27576461 42.3963129 43.28115618 43.97828507 C43.29339244 48.32364837 43.29312498 52.66893472 43.29076743 57.01431131 C43.29035942 61.70156956 43.30139693 66.38880307 43.31088257 71.0760498 C43.32749715 80.25880009 43.33299233 89.44152471 43.33410732 98.62428877 C43.33505761 106.08878585 43.33916696 113.55327446 43.34550858 121.01776886 C43.36312251 142.18127855 43.37234725 163.34476795 43.37084763 184.50828502 C43.37076772 185.64927166 43.3706878 186.79025831 43.37060547 187.96582031 C43.37052371 189.10820027 43.37044195 190.25058023 43.37035771 191.42757776 C43.36954484 209.9406074 43.38868223 228.45355566 43.4168822 246.96656176 C43.44560965 265.97587441 43.45942256 284.98514737 43.45769465 303.99448228 C43.45703068 314.66664201 43.46252586 325.33871645 43.48405075 336.01085663 C43.50226073 345.09769737 43.50661139 354.18441415 43.4930319 363.27126524 C43.48650126 367.90644249 43.48638856 372.54138192 43.5037384 377.17653656 C43.51946993 381.42306979 43.51660475 385.66917667 43.49917014 389.91569951 C43.49610041 391.44866427 43.49973165 392.98166086 43.51089029 394.51458809 C43.58595879 405.56238388 42.5314181 415.08694123 34.703125 423.46875 C26.99391255 430.39996853 19.27738757 432.32376662 9.125 432.125 C8.24585938 432.11597656 7.36671875 432.10695313 6.4609375 432.09765625 C4.3071729 432.07424577 2.15354986 432.0383801 0 432 C2.75509047 430.60587086 5.52060473 429.36431208 8.375 428.1875 C16.22451563 424.66165199 20.60198977 419.80557422 24 412 C25.53765501 407.27338974 26.25117079 403.19310644 26.25726891 398.22920418 C26.26077498 397.58224164 26.26428105 396.93527909 26.26789337 396.26871163 C26.2771663 394.10989098 26.27229484 391.95134255 26.26742554 389.79251099 C26.27116386 388.22545747 26.27576611 386.65840582 26.28115618 385.09135711 C26.29337883 380.79192858 26.29312659 376.49257791 26.29076743 372.19313598 C26.29035909 367.55363121 26.30140003 362.91415135 26.31088257 358.2746582 C26.32748895 349.18796595 26.33299193 340.10129965 26.33410732 331.0145935 C26.33505786 323.62877304 26.33916845 316.24296115 26.34550858 308.8571434 C26.36311913 287.91582627 26.37234761 266.97452964 26.37084763 246.03320505 C26.37076772 244.90446906 26.3706878 243.77573308 26.37060547 242.61279297 C26.37052371 241.48267866 26.37044195 240.35256435 26.37035771 239.18820415 C26.36954461 220.86855797 26.38868875 202.54899397 26.4168822 184.22937156 C26.44560434 165.4177842 26.4594229 146.60623692 26.45769465 127.79462707 C26.45703057 117.23373752 26.46253085 106.67293416 26.48405075 96.11206436 C26.50225359 87.12147109 26.50661715 78.13100307 26.4930319 69.14039935 C26.48649806 64.55394453 26.48640014 59.96773008 26.5037384 55.38129807 C26.51945548 51.18049913 26.51661957 46.98013144 26.49917014 42.77934311 C26.49609726 41.26190371 26.49974354 39.74443223 26.51089029 38.22703065 C26.5668737 30.06363489 26.27945988 23.17416224 22 16 C21.54238281 15.19046875 21.08476562 14.3809375 20.61328125 13.546875 C15.38224259 6.32081558 8.55071637 3.00123149 0 1 C0 0.67 0 0.34 0 0 Z " fill="#463B4B" transform="translate(405,64)"/>
<path d="M0 0 C68.64 0 137.28 0 208 0 C208 10.56 208 21.12 208 32 C139.36 32 70.72 32 0 32 C0 21.44 0 10.88 0 0 Z " fill="#5FAA46" transform="translate(112,408)"/>
<path d="M0 0 C1.68106339 0.00022659 1.68106339 0.00022659 3.39608765 0.00045776 C5.18703354 0.01594162 5.18703354 0.01594162 7.01416016 0.03173828 C8.24864899 0.03456818 9.48313782 0.03739807 10.7550354 0.04031372 C14.68786415 0.05148556 18.62046303 0.07658514 22.55322266 0.10205078 C25.22379224 0.11321253 27.89435967 0.12120959 30.56494141 0.12939453 C37.10286108 0.14971125 43.64028532 0.18886685 50.17822266 0.22705078 C50.17822266 10.78705078 50.17822266 21.34705078 50.17822266 32.22705078 C47.57689453 32.25283203 44.97556641 32.27861328 42.29541016 32.30517578 C39.76340118 32.34363845 37.23159294 32.3887849 34.69970703 32.43457031 C32.94622454 32.46271662 31.19261666 32.48396263 29.43896484 32.49804688 C26.91129667 32.51956505 24.38512582 32.5662578 21.85791016 32.61767578 C20.69036697 32.61951874 20.69036697 32.61951874 19.49923706 32.62139893 C14.30147559 32.75984374 11.24316755 33.71851584 7.17822266 37.22705078 C3.01953231 42.04525763 2.57845626 45.81952742 2.56884766 51.90673828 C2.5523114 52.71950226 2.53577515 53.53226624 2.51873779 54.36965942 C2.4704331 56.94720141 2.44892672 59.52415422 2.42822266 62.10205078 C2.40004818 63.85728848 2.37011868 65.61249894 2.33837891 67.36767578 C2.26139614 71.65440048 2.22071778 75.93929284 2.17822266 80.22705078 C-8.38177734 80.22705078 -18.94177734 80.22705078 -29.82177734 80.22705078 C-29.91387818 72.43429711 -29.99344133 64.6434513 -30.04150391 56.85058594 C-30.06155114 54.20273418 -30.08879618 51.55492632 -30.12353516 48.90722656 C-30.17235478 45.0892449 -30.19481615 41.27185142 -30.21240234 37.45361328 C-30.23304749 36.28029449 -30.25369263 35.10697571 -30.27496338 33.89810181 C-30.27758169 24.18828791 -28.28685567 15.99837202 -21.52490234 8.75830078 C-15.33123244 3.18968014 -8.4077424 -0.03804408 0 0 Z " fill="#54596D" transform="translate(141.82177734375,63.77294921875)"/>
<path d="M0 0 C6.69809768 4.76229994 11.16407958 11.54657266 13.3125 19.4375 C14.63589593 30.16397224 12.19041124 39.59787827 5.75 48.3125 C-0.09419259 54.52195462 -8.91954788 57.9044014 -17.265625 58.67578125 C-26.62999224 58.93590256 -33.51411837 56.04984356 -40.83203125 50.265625 C-47.93308539 43.26921798 -50.63205347 34.68504696 -51.0625 25 C-50.86882644 16.23627125 -46.67605604 8.71689099 -40.6875 2.4375 C-28.21792185 -7.6590525 -13.76318937 -8.22065287 0 0 Z " fill="#D5E5F0" transform="translate(130.6875,181.5625)"/>
<path d="M0 0 C1.28992355 -0.00554901 2.57984711 -0.01109802 3.90885925 -0.01681519 C7.44006301 -0.03104557 10.97048642 -0.01401989 14.50161552 0.00946999 C18.20017049 0.02960069 21.89869375 0.02369828 25.59729004 0.0213623 C31.80799199 0.02141585 38.01838947 0.0411583 44.22900391 0.07324219 C51.40512854 0.11013413 58.5808544 0.11891753 65.75706148 0.11194468 C72.66570695 0.10563518 79.57421594 0.11640218 86.48283386 0.13591003 C89.42052661 0.14407593 92.35814952 0.14679508 95.29585266 0.1452179 C99.3992621 0.14417419 103.50214772 0.1683704 107.60546875 0.1953125 C109.43219368 0.1909166 109.43219368 0.1909166 111.29582214 0.18643188 C112.41455215 0.19778168 113.53328217 0.20913147 114.68591309 0.2208252 C115.65559776 0.22455391 116.62528244 0.22828262 117.6243515 0.23212433 C120.84545115 0.6928634 122.72282749 1.64798851 125.30273438 3.61523438 C126.47454351 7.57009021 126.70754767 9.68416379 125.05273438 13.49023438 C123.30273438 15.61523438 123.30273438 15.61523438 120.30273438 16.61523438 C118.51038537 16.71197221 116.71464231 16.75018776 114.91969299 16.75567627 C113.80226715 16.76138641 112.68484131 16.76709656 111.53355408 16.77297974 C110.30697586 16.7740976 109.08039764 16.77521545 107.81665039 16.77636719 C105.8797937 16.78381454 105.8797937 16.78381454 103.90380859 16.79141235 C100.36044275 16.8045276 96.81709585 16.81097931 93.27370954 16.81542301 C91.06035371 16.81835446 88.84700305 16.82245935 86.63364983 16.82692719 C79.70957035 16.84059828 72.78550271 16.85026748 65.86141068 16.85412908 C57.86628476 16.85861249 49.87132957 16.876175 41.87625557 16.90512967 C35.69698693 16.92673245 29.51776639 16.93683256 23.33846039 16.93817019 C19.64724567 16.93921901 15.95619154 16.94514317 12.26501656 16.96298981 C8.14930952 16.98250256 4.033961 16.97818718 -0.08178711 16.97167969 C-1.30634109 16.98089447 -2.53089508 16.99010925 -3.79255676 16.99960327 C-5.47292526 16.99124954 -5.47292526 16.99124954 -7.1872406 16.98272705 C-8.64704676 16.98492689 -8.64704676 16.98492689 -10.13634396 16.98717117 C-13.13799746 16.55122446 -14.49980972 15.66964997 -16.69726562 13.61523438 C-17.48242188 11.74804688 -17.48242188 11.74804688 -17.75976562 9.74023438 C-17.87449219 9.0828125 -17.98921875 8.42539062 -18.10742188 7.74804688 C-17.59852832 5.10180039 -16.51499395 3.54437863 -14.57403564 1.69447327 C-10.25870377 -0.7870636 -4.82780189 -0.05257961 0 0 Z " fill="#A5C3DC" transform="translate(193.697265625,303.384765625)"/>
<path d="M0 0 C24.49593066 11.0231688 24.49593066 11.0231688 35.44311523 16.29516602 C36.88427463 16.98694245 38.32773244 17.67394662 39.77319336 18.35668945 C41.91753501 19.36973626 44.05502421 20.39607484 46.19140625 21.42578125 C46.83501602 21.72688309 47.47862579 22.02798492 48.14173889 22.33821106 C51.65104911 24.05181059 54.12728798 25.51260528 56 29 C56.2423644 34.0896523 56.2423644 34.0896523 55 37 C53.41583252 38.34875488 53.41583252 38.34875488 51.42675781 39.50195312 C50.7037146 39.92347656 49.98067139 40.345 49.23571777 40.77929688 C45.85969875 42.6226051 42.45038337 44.36367002 38.984375 46.03125 C38.24729309 46.38964966 37.51021118 46.74804932 36.75079346 47.11730957 C35.20226866 47.86896024 33.65267264 48.61840772 32.10205078 49.36572266 C29.76694818 50.49182673 27.43600635 51.62620254 25.10546875 52.76171875 C23.58617909 53.49789462 22.06665509 54.23358711 20.546875 54.96875 C19.86832458 55.29911255 19.18977417 55.6294751 18.49066162 55.96984863 C12.40135104 58.89558558 6.2674406 61.38856642 0 64 C0 42.88 0 21.76 0 0 Z " fill="#EF915A" transform="translate(320,376)"/>
<path d="M0 0 C9.24 0 18.48 0 28 0 C28 21.12 28 42.24 28 64 C18.76 64 9.52 64 0 64 C-4.50114122 59.49885878 -4.50114122 59.49885878 -4.51757812 54.46875 C-4.53018677 53.36080078 -4.54279541 52.25285156 -4.55578613 51.11132812 C-4.54768921 49.91958984 -4.53959229 48.72785156 -4.53125 47.5 C-4.5350769 46.27216797 -4.53890381 45.04433594 -4.54284668 43.77929688 C-4.54556842 41.18358541 -4.53818911 38.58784664 -4.52148438 35.9921875 C-4.50008075 32.01500401 -4.52127963 28.03962718 -4.546875 24.0625 C-4.54423177 21.54166267 -4.53910691 19.02082647 -4.53125 16.5 C-4.53934692 15.30826172 -4.54744385 14.11652344 -4.55578613 12.88867188 C-4.54317749 11.78072266 -4.53056885 10.67277344 -4.51757812 9.53125 C-4.51439575 8.55736328 -4.51121338 7.58347656 -4.50793457 6.58007812 C-4 4 -4 4 0 0 Z " fill="#463B4B" transform="translate(68,376)"/>
<path d="M0 0 C14.90790333 0.06054607 29.81564675 0.13805411 44.72335339 0.23571491 C51.64538742 0.28066655 58.56737007 0.32008259 65.48950195 0.34643555 C72.16802676 0.37187666 78.84629225 0.41278548 85.524683 0.46318626 C88.07436598 0.47988891 90.62408852 0.49138196 93.17381859 0.49761391 C96.74136771 0.50721775 100.30832767 0.53523383 103.87573242 0.56762695 C105.46177025 0.56547432 105.46177025 0.56547432 107.07984924 0.5632782 C116.32098228 0.68217667 116.32098228 0.68217667 120 4 C121.17180914 7.95485583 121.4048133 10.06892942 119.75 13.875 C118 16 118 16 115 17 C113.31249814 17.09005667 111.62161923 17.12196321 109.93171692 17.12025452 C108.36049828 17.12231651 108.36049828 17.12231651 106.75753784 17.12442017 C105.03447922 17.11902725 105.03447922 17.11902725 103.27661133 17.11352539 C101.46179008 17.11374443 101.46179008 17.11374443 99.61030579 17.1139679 C96.29238309 17.11339019 92.97452244 17.1083714 89.65661073 17.10139394 C86.18926313 17.09514695 82.72191473 17.09455553 79.25456238 17.09336853 C72.68853396 17.09025919 66.12252218 17.08205114 59.55650109 17.07201904 C52.08136444 17.0608456 44.606227 17.05534435 37.13108408 17.05032361 C21.75404642 17.03986821 6.37702535 17.02227643 -9 17 C-7.44439603 12.97986637 -5.57732004 9.39881711 -3.375 5.6875 C-2.74335938 4.61886719 -2.11171875 3.55023438 -1.4609375 2.44921875 C-0.97882813 1.64097656 -0.49671875 0.83273438 0 0 Z " fill="#A4C3DC" transform="translate(199,239)"/>
<path d="M0 0 C14.77736382 -0.0701044 29.5547056 -0.12299516 44.33220196 -0.15543652 C51.19377389 -0.17090049 58.05524246 -0.19198091 64.91674805 -0.22631836 C71.53678469 -0.2594316 78.15674206 -0.27684682 84.77686501 -0.28463173 C87.30426538 -0.29018059 89.8316598 -0.30101595 92.35901451 -0.31719017 C95.89531603 -0.33892401 99.43117188 -0.34196855 102.9675293 -0.34057617 C104.01553711 -0.351362 105.06354492 -0.36214783 106.14331055 -0.3732605 C115.30410486 -0.33415527 115.30410486 -0.33415527 119 3 C120.17180914 6.95485583 120.4048133 9.06892942 118.75 12.875 C117 15 117 15 114 16 C112.51516335 16.08887255 111.02663173 16.12198215 109.53913879 16.12025452 C108.62628616 16.12162918 107.71343353 16.12300385 106.7729187 16.12442017 C105.77382477 16.12082489 104.77473083 16.11722961 103.74536133 16.11352539 C102.16462578 16.11374443 102.16462578 16.11374443 100.55195618 16.1139679 C97.0619604 16.11327015 93.57201772 16.10548416 90.08203125 16.09765625 C87.66493255 16.09579158 85.24783347 16.09436791 82.83073425 16.09336853 C76.46358195 16.08954721 70.09645239 16.07972018 63.72930908 16.06866455 C57.23425606 16.05844218 50.73919937 16.05386914 44.24414062 16.04882812 C31.49608404 16.03809759 18.74804323 16.02121751 6 16 C4.9955866 13.7101766 3.99632388 11.4183401 3 9.125 C2.71382812 8.47402344 2.42765625 7.82304687 2.1328125 7.15234375 C0 2.2265625 0 2.2265625 0 0 Z " fill="#A4C3DC" transform="translate(200,176)"/>
<path d="M0 0 C10.56 0 21.12 0 32 0 C32 18.48 32 36.96 32 56 C21.44 56 10.88 56 0 56 C0 37.52 0 19.04 0 0 Z " fill="#555A6E" transform="translate(112,320)"/>
<path d="M0 0 C5.28 0 10.56 0 16 0 C16 21.12 16 42.24 16 64 C10.72 64 5.44 64 0 64 C0 42.88 0 21.76 0 0 Z " fill="#A5C3DC" transform="translate(96,376)"/>
<path d="M0 0 C1.12696289 0.00999023 2.25392578 0.01998047 3.41503906 0.03027344 C5.55311035 0.08489746 5.55311035 0.08489746 7.734375 0.140625 C12.271875 0.223125 16.809375 0.305625 21.484375 0.390625 C21.484375 10.950625 21.484375 21.510625 21.484375 32.390625 C14.925625 32.4834375 14.925625 32.4834375 8.234375 32.578125 C6.17461426 32.61909302 6.17461426 32.61909302 4.07324219 32.66088867 C2.98688477 32.66838135 1.90052734 32.67587402 0.78125 32.68359375 C-0.32895508 32.6993042 -1.43916016 32.71501465 -2.58300781 32.73120117 C-5.86563416 32.34997708 -7.19760498 31.70898411 -9.515625 29.390625 C-11.04242529 24.81022414 -10.78201655 20.2514776 -10.828125 15.453125 C-10.85712891 14.45087891 -10.88613281 13.44863281 -10.91601562 12.41601562 C-10.92439453 11.44986328 -10.93277344 10.48371094 -10.94140625 9.48828125 C-10.95598877 8.60664307 -10.97057129 7.72500488 -10.9855957 6.81665039 C-9.78611053 0.62481448 -5.64255981 -0.102592 0 0 Z " fill="#54596D" transform="translate(74.515625,375.609375)"/>
<path d="M0 0 C3.21142855 2.37366458 4.71584605 3.93442268 5.75 7.8125 C3.75495922 16.29142333 -6.33717127 23.48824543 -12.3125 29.4375 C-13.21806641 30.34693359 -14.12363281 31.25636719 -15.05664062 32.19335938 C-15.92095703 33.05638672 -16.78527344 33.91941406 -17.67578125 34.80859375 C-18.45864502 35.59032959 -19.24150879 36.37206543 -20.0480957 37.17749023 C-22.3391085 39.31662851 -23.54680513 39.91367717 -26.625 40.5 C-31.7751085 39.73702096 -34.43793635 36.62057804 -38 33 C-38.53496094 32.47535156 -39.06992187 31.95070313 -39.62109375 31.41015625 C-41.88677028 28.99043939 -42.9599461 27.19626411 -43.625 23.9375 C-42.76756415 19.9075515 -41.28860314 18.43070667 -38 16 C-34.37170989 15.4076261 -32.74008151 15.5325801 -29.625 17.5 C-29.08875 17.995 -28.5525 18.49 -28 19 C-24.75904935 17.58079247 -22.64164495 15.86691752 -20.1796875 13.33984375 C-19.47972656 12.62892578 -18.77976562 11.91800781 -18.05859375 11.18554688 C-17.33800781 10.44369141 -16.61742187 9.70183594 -15.875 8.9375 C-14.43712439 7.46526807 -12.99712292 5.99510844 -11.5546875 4.52734375 C-10.92030762 3.87499756 -10.28592773 3.22265137 -9.63232422 2.55053711 C-6.57319756 -0.35531293 -4.13388339 -0.48633922 0 0 Z " fill="#EF6728" transform="translate(387,288)"/>
<path d="M0 0 C3.21142855 2.37366458 4.71584605 3.93442268 5.75 7.8125 C3.75495922 16.29142333 -6.33717127 23.48824543 -12.3125 29.4375 C-13.21806641 30.34693359 -14.12363281 31.25636719 -15.05664062 32.19335938 C-15.92095703 33.05638672 -16.78527344 33.91941406 -17.67578125 34.80859375 C-18.45864502 35.59032959 -19.24150879 36.37206543 -20.0480957 37.17749023 C-22.3391085 39.31662851 -23.54680513 39.91367717 -26.625 40.5 C-31.7751085 39.73702096 -34.43793635 36.62057804 -38 33 C-38.53496094 32.47535156 -39.06992187 31.95070312 -39.62109375 31.41015625 C-41.88677028 28.99043939 -42.9599461 27.19626411 -43.625 23.9375 C-42.76756415 19.9075515 -41.28860314 18.43070667 -38 16 C-34.37170989 15.4076261 -32.74008151 15.5325801 -29.625 17.5 C-29.08875 17.995 -28.5525 18.49 -28 19 C-24.75904935 17.58079247 -22.64164495 15.86691752 -20.1796875 13.33984375 C-19.47972656 12.62892578 -18.77976562 11.91800781 -18.05859375 11.18554688 C-17.33800781 10.44369141 -16.61742187 9.70183594 -15.875 8.9375 C-14.43712439 7.46526807 -12.99712292 5.99510844 -11.5546875 4.52734375 C-10.92030762 3.87499756 -10.28592773 3.22265137 -9.63232422 2.55053711 C-6.57319756 -0.35531293 -4.13388339 -0.48633922 0 0 Z " fill="#EF6728" transform="translate(387,224)"/>
<path d="M0 0 C3.21142855 2.37366458 4.71584605 3.93442268 5.75 7.8125 C3.75495922 16.29142333 -6.33717127 23.48824543 -12.3125 29.4375 C-13.21806641 30.34693359 -14.12363281 31.25636719 -15.05664062 32.19335938 C-15.92095703 33.05638672 -16.78527344 33.91941406 -17.67578125 34.80859375 C-18.45864502 35.59032959 -19.24150879 36.37206543 -20.0480957 37.17749023 C-22.3391085 39.31662851 -23.54680513 39.91367717 -26.625 40.5 C-31.7751085 39.73702096 -34.43793635 36.62057804 -38 33 C-38.53496094 32.47535156 -39.06992187 31.95070312 -39.62109375 31.41015625 C-41.88677028 28.99043939 -42.9599461 27.19626411 -43.625 23.9375 C-42.76756415 19.9075515 -41.28860314 18.43070667 -38 16 C-34.37170989 15.4076261 -32.74008151 15.5325801 -29.625 17.5 C-29.08875 17.995 -28.5525 18.49 -28 19 C-24.75904935 17.58079247 -22.64164495 15.86691752 -20.1796875 13.33984375 C-19.47972656 12.62892578 -18.77976562 11.91800781 -18.05859375 11.18554688 C-17.33800781 10.44369141 -16.61742187 9.70183594 -15.875 8.9375 C-14.43712439 7.46526807 -12.99712292 5.99510844 -11.5546875 4.52734375 C-10.92030762 3.87499756 -10.28592773 3.22265137 -9.63232422 2.55053711 C-6.57319756 -0.35531293 -4.13388339 -0.48633922 0 0 Z " fill="#EF6728" transform="translate(387,160)"/>
<path d="M0 0 C5.28 0 10.56 0 16 0 C16 10.56 16 21.12 16 32 C10.72 32 5.44 32 0 32 C0 21.44 0 10.88 0 0 Z " fill="#D7E6F0" transform="translate(96,376)"/>
<path d="M0 0 C2.26875 1.093125 4.5375 2.18625 6.875 3.3125 C7.58769043 3.65063721 8.30038086 3.98877441 9.03466797 4.3371582 C12.32811467 5.954686 13.92622043 6.88933065 16 10 C16.16400878 15.08427213 16.16400878 15.08427213 15 18 C10.83010671 21.95735018 5.19392653 23.77403149 0 26 C0 17.42 0 8.84 0 0 Z " fill="#565C6F" transform="translate(360,395)"/>
<path d="M0 0 C0.66 0.33 1.32 0.66 2 1 C-3.28 6.28 -8.56 11.56 -14 17 C-14 12.95607032 -12.51908749 11.99868382 -9.8125 9.0625 C-9.03519531 8.20785156 -8.25789063 7.35320312 -7.45703125 6.47265625 C-5.09786332 4.09848566 -2.65532732 2.0327639 0 0 Z " fill="#4CCCF8" transform="translate(74,155)"/>
<path d="M0 0 C0.66 0.33 1.32 0.66 2 1 C-1.63 4.63 -5.26 8.26 -9 12 C-9 7.8407692 -6.75316432 5.85455565 -4 3 C-1.6875 1.125 -1.6875 1.125 0 0 Z " fill="#4A485C" transform="translate(126,68)"/>
</svg>
